<svg width="75" height="23" viewBox="0 0 75 23" fill="none" xmlns="http://www.w3.org/2000/svg">
<path d="M74.9774 12.1284C74.9778 13.743 75.0376 15.3605 74.9611 16.9716C74.8836 18.6061 74.6131 20.2051 73.3031 21.4094C72.4295 22.2126 71.3587 22.5242 70.2376 22.738C68.2181 23.1231 66.2847 22.9755 64.544 21.7661C63.9506 21.3537 63.5093 20.8143 63.7005 20.0243C63.9204 19.1147 64.6953 18.7584 65.7418 19.0745C66.6617 19.3522 67.5428 19.761 68.551 19.6616C69.1632 19.6012 69.7461 19.4618 70.3072 19.2335C70.6689 19.0862 70.9567 18.8269 71.1499 18.4759C71.2832 18.2339 71.4484 17.9461 71.2967 17.7148C71.1354 17.4691 70.8996 17.7585 70.7012 17.8025C68.2177 18.3521 65.57 17.4889 64.4315 15.5071C63.9662 14.6974 63.7558 13.8169 63.7193 12.8984C63.6346 10.7633 63.5196 8.62378 63.7866 6.49541C63.9099 5.51226 64.6364 4.9769 65.5616 5.0539C66.4943 5.13156 67.0428 5.774 67.1286 6.76402C67.2926 8.65262 67.1269 10.5454 67.2338 12.4319C67.3287 14.1041 68.9188 14.9496 70.4048 14.1638C71.1773 13.7552 71.4668 13.0726 71.4732 12.2519C71.4868 10.4982 71.4723 8.74421 71.483 6.99042C71.4872 6.29561 71.7136 5.70407 72.3225 5.28545C73.2872 4.62222 74.9472 5.12466 74.9723 7.03393C74.9947 8.73179 74.9771 10.4302 74.9774 12.1284Z" fill="#E7513B"/>
<path d="M55.5701 11.5992C55.5708 13.074 55.5615 14.5487 55.5746 16.0233C55.5812 16.7695 55.3554 17.3781 54.6711 17.7491C53.9848 18.1212 53.3131 18.0211 52.7514 17.532C52.4901 17.3044 52.3255 17.4024 52.1096 17.4921C50.0926 18.3305 48.1534 18.0803 46.3685 16.9205C44.9944 16.0275 44.4259 14.5967 44.375 13.0127C44.3108 11.0112 44.3493 9.00631 44.3582 7.00295C44.3634 5.8278 45.0408 4.98224 46.0219 5.04303C47.1843 5.11493 47.6406 5.50429 47.8318 6.88787C47.9187 7.51614 47.8514 8.16581 47.8521 8.80572C47.8531 9.9466 47.846 11.0874 47.8544 12.2282C47.8642 13.5461 48.7434 14.4557 50.0035 14.4682C51.1574 14.4795 52.0717 13.5242 52.0783 12.2764C52.0872 10.6069 52.0647 8.93723 52.088 7.268C52.0985 6.51256 52.2636 5.77669 52.93 5.3024C53.4622 4.92353 54.0848 4.88934 54.6478 5.19103C55.2774 5.52827 55.5695 6.11965 55.5695 6.8411C55.5695 8.42714 55.5695 10.0132 55.5701 11.5992Z" fill="#E7513B"/>
<path d="M57.9229 8.90129C57.9238 6.62239 57.9043 4.34328 57.931 2.06471C57.9477 0.643906 58.7553 -0.102383 59.9823 0.0842302C60.8536 0.216714 61.36 0.880522 61.4015 2.03766C61.4354 2.98139 61.4117 3.9272 61.4118 4.87211C61.4122 8.37376 61.4078 11.8755 61.417 15.3772C61.4181 15.8266 61.3777 16.265 61.2457 16.6898C61.0267 17.3937 60.4316 17.7979 59.6784 17.8097C58.8804 17.8221 58.3679 17.4299 58.0932 16.7121C57.9438 16.3221 57.9153 15.9088 57.9172 15.4878C57.9271 13.2923 57.9218 11.0969 57.9229 8.90129Z" fill="#E7513B"/>
<path d="M12.8274 9.55624C11.8021 6.09895 8.00326 4.13943 4.50541 5.29498C3.79765 5.52878 3.13355 6.0018 2.48555 5.20694C2.42938 5.13815 2.28378 5.13439 2.177 5.11527C0.915683 4.88911 0.0169748 5.70685 0.00872269 7.13427C-0.00659691 9.77851 0.00369786 12.4229 0.00361615 15.0672C0.00361615 16.9879 -0.00720931 18.9085 0.00860051 20.8291C0.0192221 22.1184 0.578203 22.7929 1.60237 22.8183C2.81397 22.8483 3.46315 22.2623 3.49444 21.0352C3.52578 19.8125 3.50135 18.5883 3.50135 17.2921C6.22407 18.051 6.91521 18.1127 8.2733 17.7357C11.8288 16.7488 13.8722 13.079 12.8274 9.55624ZM6.48389 14.4926C5.09291 14.5108 3.51225 13.3827 3.51667 11.4059C3.52067 9.6582 4.86916 8.40249 6.6562 8.42058C8.41403 8.43835 9.60263 9.68124 9.58755 11.4861C9.57252 13.2887 8.31942 14.4688 6.48389 14.4926Z" fill="#E7513B"/>
<path d="M42.1789 8.48045C42.1789 6.22667 42.1942 3.97265 42.1724 1.71903C42.1599 0.439011 41.1171 -0.283951 39.9131 0.105412C39.1362 0.356612 38.7155 1.07373 38.6984 2.24317C38.6822 3.35292 38.6949 4.46312 38.6949 5.65413C38.4781 5.58909 38.3987 5.57402 38.3266 5.5424C35.692 4.38595 33.2568 4.83369 31.2052 6.73148C29.2131 8.57421 28.6341 10.9413 29.4888 13.546C30.682 17.1823 34.8804 18.9341 38.4082 17.332C38.6533 17.2208 38.9128 16.9406 39.2241 17.2763C39.8062 17.904 40.5244 17.9997 41.2603 17.6294C42.0161 17.2488 42.1888 16.539 42.1841 15.7428C42.17 13.322 42.179 10.9013 42.1789 8.48045ZM38.6797 11.4133C38.6858 13.2207 37.4412 14.4836 35.6536 14.4835C33.9264 14.4834 32.7011 13.1951 32.6082 11.4662C32.5256 9.92883 34.0379 8.35034 35.6776 8.386C37.3835 8.42313 38.7698 9.82616 38.6797 11.4133Z" fill="#E7513B"/>
<path d="M25.6342 12.6243C26.8715 12.62 27.7256 11.6455 27.5198 10.4492C26.7194 5.79842 21.7662 3.41457 17.6414 5.96563C15.3029 7.41193 14.3458 9.66766 14.6955 12.3604C15.0289 14.9273 16.5569 16.6881 18.9685 17.5743C21.4396 18.4824 24.0599 17.8132 25.6745 16.0783C26.2117 15.501 26.3288 14.7518 25.9303 14.19C25.4803 13.5557 24.8622 13.5297 24.1568 13.7521C23.6513 13.9114 23.2105 14.1885 22.7287 14.3858C21.0204 15.0846 19.0993 14.5047 18.468 12.6269C20.907 12.6269 23.2707 12.6329 25.6342 12.6243ZM21.3976 8.4528C22.3888 8.55052 23.2002 8.97706 23.7715 9.98284H18.4752C19.2088 8.87411 20.141 8.3289 21.3976 8.4528Z" fill="#E7513B"/>
</svg>
