<svg width="86" height="86" viewBox="0 0 86 86" fill="none" xmlns="http://www.w3.org/2000/svg">
<path d="M84 43C84 65.6437 65.6437 84 43 84C20.3563 84 2 65.6437 2 43C2 20.3563 20.3563 2 43 2C65.6437 2 84 20.3563 84 43Z" fill="#0288D1" stroke="white" stroke-width="4"/>
<path d="M46.1792 59.182C46.9302 59.182 47.5351 59.7926 47.5351 60.5408C47.5351 61.2919 46.9302 61.8996 46.1792 61.8996H23.3089C22.5607 61.8996 21.9501 61.2919 21.9501 60.5408C21.9501 51.1697 28.8702 42.2917 38.5223 42.2917C39.2734 42.2917 39.8811 42.8994 39.8811 43.6505C39.8811 44.3987 39.2734 45.0093 38.5223 45.0093C30.9916 45.0093 25.3385 51.7144 24.7222 59.182H46.1792ZM43.4472 39.6687C38.4965 39.6687 34.4832 35.6783 34.4832 30.7534C34.4832 25.8284 38.4994 21.838 43.4472 21.838C48.3951 21.838 52.4113 25.8284 52.4113 30.7534C52.4113 35.6783 48.398 39.6687 43.4472 39.6687ZM43.4472 36.9539C46.9016 36.9539 49.6966 34.1761 49.6966 30.7534C49.6966 27.3306 46.9016 24.5528 43.4472 24.5528C39.9929 24.5528 37.1979 27.3306 37.1979 30.7534C37.1979 34.1761 39.9929 36.9539 43.4472 36.9539ZM56.6224 42.3289C58.6148 42.1139 60.6042 42.779 62.0519 44.1464L62.0634 44.1579C63.3304 45.3848 64.0471 47.0647 64.0471 48.8162C64.0471 50.5734 63.3304 52.2533 62.0662 53.4802L53.793 61.5126C53.2627 62.0258 52.4256 62.0258 51.901 61.5126L43.6307 53.4831C42.3608 52.2533 41.6441 50.5734 41.6441 48.8191C41.6441 47.0647 42.3608 45.3848 43.6422 44.1464C45.0898 42.779 47.0793 42.1139 49.0716 42.3289C50.4878 42.4837 51.8036 43.0685 52.847 43.9887C53.8905 43.0685 55.2063 42.4809 56.6224 42.3289ZM56.9148 45.0265C55.7137 45.1583 54.6358 45.8033 53.9736 46.7837C53.4347 47.5835 52.2594 47.5835 51.7233 46.7837C51.0611 45.8033 49.9832 45.1583 48.7821 45.0265C47.5781 44.8975 46.377 45.3017 45.5198 46.1072C44.7774 46.8267 44.3617 47.8043 44.3617 48.8191C44.3617 49.8339 44.7802 50.8114 45.5227 51.5309L52.8499 58.6431L60.1771 51.528C60.9224 50.8085 61.3352 49.8338 61.3352 48.8162C61.3352 47.8014 60.9196 46.8325 60.1828 46.1129C59.3085 45.2988 58.1131 44.8975 56.9148 45.0265Z" fill="white"/>
</svg>
