<svg width="40" height="41" viewBox="0 0 40 41" fill="none" xmlns="http://www.w3.org/2000/svg">
<path opacity="0.4" d="M20 40.5383C31.0457 40.5383 40 31.584 40 20.5383C40 9.49264 31.0457 0.53833 20 0.53833C8.95431 0.53833 0 9.49264 0 20.5383C0 31.584 8.95431 40.5383 20 40.5383Z" fill="#0288D1"/>
<path d="M21.4788 28.0649C21.8281 28.0649 22.1095 28.3489 22.1095 28.6968C22.1095 29.0462 21.8281 29.3288 21.4788 29.3288H10.8415C10.4935 29.3288 10.2095 29.0462 10.2095 28.6968C10.2095 24.3382 13.4281 20.2089 17.9175 20.2089C18.2668 20.2089 18.5495 20.4915 18.5495 20.8409C18.5495 21.1889 18.2668 21.4729 17.9175 21.4729C14.4148 21.4729 11.7855 24.5915 11.4988 28.0649H21.4788ZM20.2081 18.9889C17.9055 18.9889 16.0388 17.1329 16.0388 14.8422C16.0388 12.5516 17.9068 10.6956 20.2081 10.6956C22.5095 10.6956 24.3775 12.5516 24.3775 14.8422C24.3775 17.1329 22.5108 18.9889 20.2081 18.9889ZM20.2081 17.7262C21.8148 17.7262 23.1148 16.4342 23.1148 14.8422C23.1148 13.2502 21.8148 11.9582 20.2081 11.9582C18.6015 11.9582 17.3015 13.2502 17.3015 14.8422C17.3015 16.4342 18.6015 17.7262 20.2081 17.7262ZM26.3361 20.2262C27.2628 20.1262 28.1881 20.4355 28.8615 21.0715L28.8668 21.0769C29.4561 21.6475 29.7895 22.4289 29.7895 23.2435C29.7895 24.0609 29.4561 24.8422 28.8681 25.4129L25.0201 29.1488C24.7735 29.3875 24.3841 29.3875 24.1401 29.1488L20.2935 25.4142C19.7028 24.8422 19.3695 24.0609 19.3695 23.2449C19.3695 22.4289 19.7028 21.6475 20.2988 21.0715C20.9721 20.4355 21.8975 20.1262 22.8241 20.2262C23.4828 20.2982 24.0948 20.5702 24.5801 20.9982C25.0655 20.5702 25.6775 20.2969 26.3361 20.2262ZM26.4721 21.4809C25.9135 21.5422 25.4121 21.8422 25.1041 22.2982C24.8535 22.6702 24.3068 22.6702 24.0575 22.2982C23.7495 21.8422 23.2481 21.5422 22.6895 21.4809C22.1295 21.4209 21.5708 21.6089 21.1721 21.9835C20.8268 22.3182 20.6335 22.7729 20.6335 23.2449C20.6335 23.7169 20.8281 24.1715 21.1735 24.5062L24.5815 27.8142L27.9895 24.5049C28.3361 24.1702 28.5281 23.7169 28.5281 23.2435C28.5281 22.7715 28.3348 22.3209 27.9921 21.9862C27.5855 21.6075 27.0295 21.4209 26.4721 21.4809Z" fill="#0288D1"/>
</svg>
