<svg width="38" height="15" viewBox="0 0 38 15" fill="none" xmlns="http://www.w3.org/2000/svg">
<path fillRule="evenodd" clipRule="evenodd" d="M1.26455 0.51736C0.81387 0.697096 0.505933 1.00503 0.224019 1.55738C-0.00891126 2.01367 -0.0196266 2.32544 0.0143052 7.69048L0.0500228 13.3428L0.407454 13.8112C1.07486 14.6859 0.884795 14.662 7.16829 14.662H12.8323L13.2627 14.372C13.4995 14.2125 13.8238 13.8883 13.9832 13.6515L14.2733 13.2211V7.51852V1.81595L13.9832 1.38555C13.8238 1.1488 13.4995 0.824532 13.2627 0.665078L12.8323 0.375L7.20656 0.383037C3.81517 0.388012 1.45513 0.441332 1.26455 0.51736ZM4.41076 1.53123C5.29949 1.86698 5.81727 2.77714 5.65756 3.72289C5.5786 4.19002 5.36174 4.46798 3.97233 5.88304L2.37779 7.50704L3.86415 9.07403C5.57554 10.8783 5.76382 11.2596 5.40639 12.1959C5.1366 12.9021 4.54917 13.3525 3.65291 13.5405C2.78306 13.7229 2.2163 13.5811 1.84892 13.0889C1.58652 12.7376 1.58078 12.6161 1.58078 7.45882C1.58078 2.36728 1.58945 2.17797 1.8359 1.9041C1.97622 1.74809 2.20584 1.57358 2.34616 1.51605C2.71749 1.36412 3.99325 1.37344 4.41076 1.53123ZM8.75211 1.7301C9.56367 2.33131 9.86369 3.1944 9.549 4.02228C9.47641 4.21324 8.75887 5.05222 7.95446 5.88648C7.15005 6.72087 6.49195 7.4527 6.49195 7.51278C6.49195 7.57299 7.76261 8.92095 9.31568 10.5082C10.8688 12.0955 12.0983 13.4355 12.048 13.4859C11.9976 13.5364 10.7481 13.5964 9.27129 13.6191L6.58622 13.6604L6.6597 13.364C6.70013 13.2009 6.82489 12.7518 6.93702 12.3659C7.33361 11.0001 6.96202 9.92768 5.59276 8.48609L4.66602 7.51049L4.97918 7.16377C5.15139 6.97294 5.63588 6.44062 6.05581 5.98075C6.51848 5.47407 6.88051 4.94048 6.97452 4.62654C7.21319 3.82979 7.16536 2.57049 6.87158 1.92323L6.61913 1.36667L7.50812 1.41693C8.14836 1.45316 8.4966 1.5408 8.75211 1.7301ZM12.3842 1.89134L12.7425 2.29253L12.7363 7.04221L12.73 11.7919L10.6953 9.70011C9.57617 8.54962 8.66052 7.56776 8.66052 7.5184C8.66052 7.4689 9.1209 6.93646 9.68345 6.33512C10.2461 5.73366 10.7883 5.0461 10.8882 4.80692C11.2826 3.86308 11.2378 2.72165 10.7626 1.6005C10.6677 1.37675 10.7103 1.36387 11.343 1.42471C11.9037 1.47855 12.0899 1.5621 12.3842 1.89134ZM15.804 7.52669V13.5304L18.9008 13.4903L21.9975 13.4502L22.8542 13.0281C24.2265 12.352 24.8124 11.2792 24.7059 9.63773C24.6392 8.61008 24.4221 8.11131 23.7011 7.32909C23.256 6.84614 23.2229 6.76756 23.4023 6.6187C23.8233 6.2693 24.0958 5.50673 24.0928 4.68535C24.0893 3.67773 23.7904 2.99412 23.092 2.39623C22.1985 1.63137 21.6327 1.52307 18.532 1.52307H15.804V7.52669ZM25.6264 7.51852V13.514H26.7107H27.795V11.2816V9.04928H28.4791H29.1631L30.7216 11.2816L32.2802 13.514H33.6245H34.9687L34.6581 13.0994C34.1118 12.3704 31.7494 8.95437 31.7494 8.89327C31.7494 8.861 31.9877 8.76316 32.2788 8.6759C33.0435 8.4468 34.072 7.37884 34.3585 6.51613C34.8672 4.98436 34.4091 3.17105 33.2994 2.3248C32.3757 1.62027 31.7987 1.52307 28.5371 1.52307H25.6264V7.51852ZM35.7039 7.51852V13.514H36.8519H38V7.51852V1.52307H36.8519H35.7039V7.51852ZM21.5096 4.01399C21.916 4.4204 21.9535 4.51684 21.8979 5.01102C21.8639 5.31194 21.7352 5.71223 21.6119 5.90052L21.3875 6.2429H19.68H17.9726V4.90348V3.56407H19.5161H21.0596L21.5096 4.01399ZM31.8233 4.1043C32.1979 4.5134 32.2597 4.67081 32.2597 5.21614C32.2597 5.74412 32.1932 5.92705 31.8654 6.30043C31.3527 6.88428 30.791 7.026 29.1679 6.98085L27.8587 6.94449L27.823 5.24459L27.7874 3.54468L29.5872 3.58627L31.387 3.62785L31.8233 4.1043ZM21.6597 8.44527C22.5489 8.9022 22.7835 10.141 22.1133 10.8405C21.6251 11.3501 21.1054 11.4714 19.4077 11.4722L17.9726 11.473V9.87844V8.2839L19.6628 8.28582C20.7502 8.28696 21.4624 8.34386 21.6597 8.44527Z" fill="#00529C"/>
</svg>
