<svg width="71" height="70" viewBox="0 0 71 70" fill="none" xmlns="http://www.w3.org/2000/svg">
<path d="M35.1468 0.00118662C54.5962 0.162684 70.2259 15.9413 70.1061 35.2933C69.9878 54.4413 54.0163 70.148 34.8155 69.9989C15.4503 69.8485 -0.196703 53.9278 0.00186933 34.5763C0.197677 15.5049 16.1176 -0.156917 35.1468 0.00118662Z" fill="#E6523B"/>
<path d="M21.046 34.7786C21.046 32.468 21.0267 30.1574 21.0537 27.8473C21.0691 26.5258 21.1251 25.0541 22.9683 25.1465C24.7401 25.2352 24.7518 26.6909 24.7539 28.0122C24.7607 32.0344 24.7299 36.0566 24.7628 40.0784C24.8165 46.5979 29.0394 51.0517 35.1008 51.0304C41.1312 51.0093 45.4013 46.462 45.4409 40.0109C45.4531 38.0427 45.4537 36.0744 45.4457 34.1064C45.4406 32.9039 45.9694 32.0328 47.1984 32.0211C48.4087 32.0094 49.0657 32.8722 49.0436 34.0482C48.9811 37.3749 49.3681 40.7193 48.607 44.0213C47.0628 50.7206 40.8721 55.0936 33.631 54.5652C27.2352 54.0986 21.756 48.699 21.2724 42.2124C21.0886 39.7472 21.2425 37.2569 21.2425 34.7784C21.1771 34.7786 21.1115 34.7786 21.046 34.7786Z" fill="#FFFDFD"/>
<path d="M42.9036 30.4979C42.9036 33.6608 42.9302 36.8241 42.8973 39.9867C42.8489 44.6487 39.604 48.1193 35.2045 48.2684C30.8945 48.4147 27.2049 44.9728 27.1101 40.3726C26.9745 33.7928 27.0708 27.2081 27.0733 20.6257C27.0738 19.3333 27.3364 18.1121 28.9265 18.0769C30.6087 18.0398 30.7208 19.3376 30.7219 20.5973C30.7273 26.1539 30.725 31.7104 30.7255 37.267C30.7255 37.8655 30.7171 38.4641 30.7273 39.0624C30.7878 42.6308 32.3345 44.6522 35.0026 44.6573C37.6623 44.6622 39.263 42.5875 39.2712 39.0865C39.2851 33.1022 39.2735 27.1182 39.3 21.1342C39.3059 19.8193 38.9384 18.0744 41.0034 18.0592C43.1793 18.0431 42.8904 19.8355 42.8985 21.2651C42.9159 24.3427 42.9038 27.4202 42.9036 30.4979Z" fill="white"/>
<path d="M33.1614 28.5765C33.1614 25.0688 33.1692 21.5613 33.1571 18.0536C33.1529 16.7859 33.2221 15.5017 34.8708 15.431C36.7238 15.3514 36.7744 16.7214 36.772 18.0897C36.7602 25.0193 36.7484 31.9493 36.782 38.8789C36.7885 40.2413 36.4806 41.4278 34.957 41.4119C33.4436 41.3961 33.131 40.1945 33.1476 38.8429C33.1897 35.4208 33.1615 31.9986 33.1614 28.5765Z" fill="#FFFDFD"/>
</svg>
