<svg width="32" height="32" viewBox="0 0 32 32" fill="none" xmlns="http://www.w3.org/2000/svg">
<path d="M29.3332 10.6667V17.3333C29.3332 22.6667 26.6665 25.3333 21.3332 25.3333H20.6665C20.2532 25.3333 19.8532 25.5333 19.5998 25.8667L17.5998 28.5333C16.7198 29.7067 15.2798 29.7067 14.3998 28.5333L12.3998 25.8667C12.1865 25.5733 11.6932 25.3333 11.3332 25.3333H10.6665C5.33317 25.3333 2.6665 24 2.6665 17.3333V10.6667C2.6665 5.33332 5.33317 2.66666 10.6665 2.66666H15.9998" stroke="#E7513B" strokeWidth="2" strokeMiterlimit="10" strokeLinecap="round" strokeLinejoin="round"/>
<path d="M20.267 6.15997C19.827 4.83997 20.347 3.21331 21.787 2.75997C22.5336 2.53331 23.467 2.71997 24.0003 3.42664C24.507 2.69331 25.467 2.53331 26.2136 2.75997C27.6536 3.19997 28.1736 4.83997 27.7336 6.15997C27.0536 8.25331 24.667 9.33331 24.0003 9.33331C23.3336 9.33331 20.9736 8.26664 20.267 6.15997Z" stroke="#E7513B" strokeWidth="2" strokeLinecap="round" strokeLinejoin="round"/>
<path d="M21.3288 14.6667H21.3408" stroke="#E7513B" strokeWidth="2" strokeLinecap="round" strokeLinejoin="round"/>
<path d="M15.9938 14.6667H16.0058" stroke="#E7513B" strokeWidth="2" strokeLinecap="round" strokeLinejoin="round"/>
<path d="M10.6593 14.6667H10.6713" stroke="#E7513B" strokeWidth="2" strokeLinecap="round" strokeLinejoin="round"/>
</svg>
