<svg width="32" height="32" viewBox="0 0 32 32" fill="none" xmlns="http://www.w3.org/2000/svg">
<path d="M27.8796 14.8267C27.8796 21.3467 23.1463 27.4533 16.6796 29.24C16.2396 29.36 15.7596 29.36 15.3196 29.24C8.85295 27.4533 4.11963 21.3467 4.11963 14.8267V8.97332C4.11963 7.87998 4.94632 6.63999 5.97298 6.22665L13.3996 3.1867C15.0663 2.5067 16.9463 2.5067 18.613 3.1867L26.0396 6.22665C27.053 6.63999 27.893 7.87998 27.893 8.97332L27.8796 14.8267Z" stroke="#E7513B" strokeWidth="2" strokeLinecap="round" strokeLinejoin="round"/>
<path d="M16.0002 16.6666C17.4729 16.6666 18.6668 15.4727 18.6668 14C18.6668 12.5272 17.4729 11.3333 16.0002 11.3333C14.5274 11.3333 13.3335 12.5272 13.3335 14C13.3335 15.4727 14.5274 16.6666 16.0002 16.6666Z" stroke="#E7513B" strokeWidth="2" strokeMiterlimit="10" strokeLinecap="round" strokeLinejoin="round"/>
<path d="M16 16.6667V20.6667" stroke="#E7513B" strokeWidth="2" strokeMiterlimit="10" strokeLinecap="round" strokeLinejoin="round"/>
</svg>
