<svg width="20" height="20" viewBox="0 0 20 20" fill="none" xmlns="http://www.w3.org/2000/svg">
<path d="M8.37499 2.10836L3.35833 5.38336C1.74999 6.43336 1.74999 8.78336 3.35833 9.83336L8.37499 13.1084C9.27499 13.7 10.7583 13.7 11.6583 13.1084L16.65 9.83336C18.25 8.78336 18.25 6.4417 16.65 5.3917L11.6583 2.1167C10.7583 1.5167 9.27499 1.5167 8.37499 2.10836Z" stroke="#0288D1" stroke-width="1.5" stroke-linecap="round" stroke-linejoin="round"/>
<path d="M4.69167 10.9L4.68333 14.8084C4.68333 15.8667 5.5 17 6.5 17.3334L9.15833 18.2167C9.61667 18.3667 10.375 18.3667 10.8417 18.2167L13.5 17.3334C14.5 17 15.3167 15.8667 15.3167 14.8084V10.9417" stroke="#0288D1" stroke-width="1.5" stroke-linecap="round" stroke-linejoin="round"/>
<path d="M17.8333 12.5V7.5" stroke="#0288D1" stroke-width="1.5" stroke-linecap="round" stroke-linejoin="round"/>
</svg>
