<svg width="18" height="18" viewBox="0 0 18 18" fill="none" xmlns="http://www.w3.org/2000/svg">
<path d="M1.5 9.82499L3.375 8.69999C4.53 8.01 5.97 8.01 7.125 8.69999C8.28 9.38999 9.72 9.38999 10.875 8.69999C12.03 8.01 13.47 8.01 14.625 8.69999L16.5 9.82499" stroke="#0288D1" stroke-width="1.5" stroke-miterlimit="10" stroke-linecap="round" stroke-linejoin="round"/>
<path d="M1.5 2.92505L3.375 4.05005C4.53 4.74005 5.97 4.74005 7.125 4.05005C8.28 3.36005 9.72 3.36005 10.875 4.05005C12.03 4.74005 13.47 4.74005 14.625 4.05005L16.5 2.92505" stroke="#0288D1" stroke-width="1.5" stroke-miterlimit="10" stroke-linecap="round" stroke-linejoin="round"/>
<path d="M1.5 15.075L3.375 13.95C4.53 13.26 5.97 13.26 7.125 13.95C8.28 14.64 9.72 14.64 10.875 13.95C12.03 13.26 13.47 13.26 14.625 13.95L16.5 15.075" stroke="#0288D1" stroke-width="1.5" stroke-miterlimit="10" stroke-linecap="round" stroke-linejoin="round"/>
</svg>
