<svg width="24" height="24" viewBox="0 0 24 24" fill="none" xmlns="http://www.w3.org/2000/svg">
<path d="M12.5 22.0001H4.07997C2.91997 22.0001 1.96997 21.0701 1.96997 19.9301V5.09011C1.96997 2.47011 3.91997 1.2801 6.30997 2.4501L10.75 4.63011C11.71 5.10011 12.5 6.3501 12.5 7.4101V22.0001Z" stroke="#0288D1" stroke-width="1.5" stroke-linecap="round" stroke-linejoin="round"/>
<path d="M21.97 15.0602V18.8402C21.97 21.0002 20.97 22.0002 18.81 22.0002H12.5V10.4202L12.97 10.5202L17.47 11.5302L19.5 11.9802C20.82 12.2702 21.9 12.9502 21.96 14.8702C21.97 14.9302 21.97 14.9902 21.97 15.0602Z" stroke="#0288D1" stroke-width="1.5" stroke-linecap="round" stroke-linejoin="round"/>
<path d="M5.5 9.00012H8.97" stroke="#0288D1" stroke-width="1.5" stroke-linecap="round" stroke-linejoin="round"/>
<path d="M5.5 13.0001H8.97" stroke="#0288D1" stroke-width="1.5" stroke-linecap="round" stroke-linejoin="round"/>
<path d="M17.47 11.5301V14.7501C17.47 15.9901 16.46 17.0001 15.22 17.0001C13.98 17.0001 12.97 15.9901 12.97 14.7501V10.5201L17.47 11.5301Z" stroke="#0288D1" stroke-width="1.5" stroke-linecap="round" stroke-linejoin="round"/>
<path d="M21.96 14.8702C21.9 16.0502 20.92 17.0002 19.72 17.0002C18.48 17.0002 17.47 15.9902 17.47 14.7502V11.5302L19.5 11.9802C20.82 12.2702 21.9 12.9502 21.96 14.8702Z" stroke="#0288D1" stroke-width="1.5" stroke-linecap="round" stroke-linejoin="round"/>
</svg>
