<svg width="20" height="20" viewBox="0 0 20 20" fill="none" xmlns="http://www.w3.org/2000/svg">
<path d="M16.6417 8.3335H3.30835V15.0002C3.30835 17.5002 4.14168 18.3335 6.64168 18.3335H13.3083C15.8083 18.3335 16.6417 17.5002 16.6417 15.0002V8.3335Z" stroke="#0288D1" stroke-width="1.5" stroke-miterlimit="10" stroke-linecap="round" stroke-linejoin="round"/>
<path d="M17.9167 5.83341V6.66675C17.9167 7.58341 17.475 8.33341 16.25 8.33341H3.75001C2.47501 8.33341 2.08334 7.58341 2.08334 6.66675V5.83341C2.08334 4.91675 2.47501 4.16675 3.75001 4.16675H16.25C17.475 4.16675 17.9167 4.91675 17.9167 5.83341Z" stroke="#0288D1" stroke-width="1.5" stroke-miterlimit="10" stroke-linecap="round" stroke-linejoin="round"/>
<path d="M9.69998 4.16674H5.09998C4.81665 3.85841 4.82498 3.38341 5.12498 3.08341L6.30832 1.90007C6.61665 1.59174 7.12498 1.59174 7.43332 1.90007L9.69998 4.16674Z" stroke="#0288D1" stroke-width="1.5" stroke-miterlimit="10" stroke-linecap="round" stroke-linejoin="round"/>
<path d="M14.8917 4.16674H10.2917L12.5584 1.90007C12.8667 1.59174 13.375 1.59174 13.6834 1.90007L14.8667 3.08341C15.1667 3.38341 15.175 3.85841 14.8917 4.16674Z" stroke="#0288D1" stroke-width="1.5" stroke-miterlimit="10" stroke-linecap="round" stroke-linejoin="round"/>
<path d="M7.45001 8.3335V12.6168C7.45001 13.2835 8.18335 13.6752 8.74168 13.3168L9.52501 12.8002C9.80835 12.6168 10.1667 12.6168 10.4417 12.8002L11.1833 13.3002C11.7333 13.6668 12.475 13.2752 12.475 12.6085V8.3335H7.45001Z" stroke="#0288D1" stroke-width="1.5" stroke-miterlimit="10" stroke-linecap="round" stroke-linejoin="round"/>
</svg>
