<svg width="18" height="18" viewBox="0 0 18 18" fill="none" xmlns="http://www.w3.org/2000/svg">
<path d="M9.11998 8.1525C9.04498 8.145 8.95498 8.145 8.87248 8.1525C7.08748 8.0925 5.66998 6.63 5.66998 4.83C5.66998 2.9925 7.15498 1.5 8.99998 1.5C10.8375 1.5 12.33 2.9925 12.33 4.83C12.3225 6.63 10.905 8.0925 9.11998 8.1525Z" stroke="#0288D1" stroke-width="1.5" stroke-linecap="round" stroke-linejoin="round"/>
<path d="M5.37001 10.92C3.55501 12.135 3.55501 14.115 5.37001 15.3225C7.43251 16.7025 10.815 16.7025 12.8775 15.3225C14.6925 14.1075 14.6925 12.1275 12.8775 10.92C10.8225 9.5475 7.44001 9.5475 5.37001 10.92Z" stroke="#0288D1" stroke-width="1.5" stroke-linecap="round" stroke-linejoin="round"/>
</svg>
