<svg width="21" height="20" viewBox="0 0 21 20" fill="none" xmlns="http://www.w3.org/2000/svg">
<path d="M2.23944 18.3334H19.2076" stroke="#0288D1" stroke-width="1.5" stroke-miterlimit="10" stroke-linecap="round" stroke-linejoin="round"/>
<path d="M3.04544 18.3334L3.08786 8.30836C3.08786 7.80003 3.3339 7.31674 3.74113 7.00008L9.67998 2.4584C10.2908 1.99173 11.1477 1.99173 11.7671 2.4584L17.7059 6.99173C18.1216 7.3084 18.3592 7.7917 18.3592 8.30836V18.3334" stroke="#0288D1" stroke-width="1.5" stroke-miterlimit="10" stroke-linejoin="round"/>
<path d="M11.5719 14.1666H9.87509C9.17091 14.1666 8.60248 14.725 8.60248 15.4166V18.3333H12.8445V15.4166C12.8445 14.725 12.2761 14.1666 11.5719 14.1666Z" stroke="#0288D1" stroke-width="1.5" stroke-miterlimit="10" stroke-linejoin="round"/>
<path d="M8.6025 11.4583H6.90569C6.43906 11.4583 6.05728 11.0833 6.05728 10.625V9.37496C6.05728 8.91663 6.43906 8.54163 6.90569 8.54163H8.6025C9.06913 8.54163 9.45091 8.91663 9.45091 9.37496V10.625C9.45091 11.0833 9.06913 11.4583 8.6025 11.4583Z" stroke="#0288D1" stroke-width="1.5" stroke-miterlimit="10" stroke-linejoin="round"/>
<path d="M14.5413 11.4583H12.8445C12.3779 11.4583 11.9961 11.0833 11.9961 10.625V9.37496C11.9961 8.91663 12.3779 8.54163 12.8445 8.54163H14.5413C15.008 8.54163 15.3898 8.91663 15.3898 9.37496V10.625C15.3898 11.0833 15.008 11.4583 14.5413 11.4583Z" stroke="#0288D1" stroke-width="1.5" stroke-miterlimit="10" stroke-linejoin="round"/>
<path d="M16.6624 5.83337L16.6369 3.33337H12.9039" stroke="#0288D1" stroke-width="1.5" stroke-miterlimit="10" stroke-linecap="round" stroke-linejoin="round"/>
</svg>
