<?xml version="1.0" encoding="utf-8"?>
<!-- Generator: Adobe Illustrator 16.0.0, SVG Export Plug-In . SVG Version: 6.00 Build 0)  -->
<!DOCTYPE svg PUBLIC "-//W3C//DTD SVG 1.1//EN" "http://www.w3.org/Graphics/SVG/1.1/DTD/svg11.dtd">
<svg version="1.1" id="Layer_1" xmlns="http://www.w3.org/2000/svg" xmlns:xlink="http://www.w3.org/1999/xlink" x="0px" y="0px"
	 width="30px" height="30px" viewBox="0 0 30 30" enable-background="new 0 0 30 30" xml:space="preserve">
<g>
	<circle opacity="0.4" fill="#E7513B" cx="15" cy="15" r="15"/>
	<path fill="#E7513B" d="M16.109,20.645c0.262,0,0.473,0.213,0.473,0.474c0,0.262-0.211,0.474-0.473,0.474H8.131
		c-0.261,0-0.474-0.212-0.474-0.474c0-3.269,2.414-6.366,5.781-6.366c0.262,0,0.474,0.212,0.474,0.474
		c0,0.261-0.212,0.474-0.474,0.474c-2.627,0-4.599,2.339-4.814,4.944H16.109z M15.156,13.838c-1.727,0-3.127-1.392-3.127-3.11
		s1.401-3.11,3.127-3.11s3.127,1.392,3.127,3.11S16.883,13.838,15.156,13.838z M15.156,12.891c1.205,0,2.18-0.969,2.18-2.163
		c0-1.194-0.975-2.163-2.18-2.163s-2.18,0.969-2.18,2.163C12.976,11.922,13.951,12.891,15.156,12.891z M19.752,14.766
		c0.695-0.075,1.389,0.157,1.894,0.634l0.004,0.004c0.442,0.428,0.692,1.014,0.692,1.625c0,0.613-0.25,1.199-0.691,1.627
		l-2.886,2.802c-0.185,0.179-0.477,0.179-0.66,0l-2.885-2.801c-0.443-0.429-0.693-1.015-0.693-1.627s0.25-1.198,0.697-1.63
		c0.505-0.477,1.199-0.709,1.894-0.634c0.494,0.054,0.953,0.258,1.317,0.579C18.799,15.024,19.258,14.819,19.752,14.766z
		 M19.854,15.707c-0.419,0.046-0.795,0.271-1.026,0.613c-0.188,0.279-0.598,0.279-0.785,0c-0.231-0.342-0.607-0.567-1.026-0.613
		c-0.42-0.045-0.839,0.096-1.138,0.377c-0.259,0.251-0.404,0.592-0.404,0.946s0.146,0.695,0.405,0.946l2.556,2.481l2.556-2.482
		c0.26-0.251,0.404-0.591,0.404-0.946c0-0.354-0.145-0.692-0.402-0.943C20.689,15.802,20.272,15.662,19.854,15.707z"/>
</g>
</svg>
