<?xml version="1.0" encoding="utf-8"?>
<!-- Generator: Adobe Illustrator 16.0.0, SVG Export Plug-In . SVG Version: 6.00 Build 0)  -->
<!DOCTYPE svg PUBLIC "-//W3C//DTD SVG 1.1//EN" "http://www.w3.org/Graphics/SVG/1.1/DTD/svg11.dtd">
<svg version="1.1" id="Layer_1" xmlns="http://www.w3.org/2000/svg" xmlns:xlink="http://www.w3.org/1999/xlink" x="0px" y="0px"
	 width="2494.49px" height="595.281px" viewBox="0 0 2494.49 595.281" enable-background="new 0 0 2494.49 595.281"
	 xml:space="preserve">
<g>
	<g>
		<g>
			<path fill="#E6523B" d="M294.667,19.071c154.755,1.285,279.117,126.832,278.164,280.812
				c-0.941,152.357-128.023,277.332-280.8,276.146C137.946,574.832,13.446,448.154,15.026,294.178
				C16.584,142.431,143.256,17.813,294.667,19.071"/>
			<path fill="#222121" d="M2478.928,313.917c0.009,39.523,1.472,79.117-0.401,118.555c-1.896,40.01-8.517,79.15-40.584,108.631
				c-21.384,19.66-47.597,27.287-75.039,32.521c-49.433,9.426-96.761,5.813-139.369-23.791
				c-14.527-10.094-25.33-23.297-20.65-42.635c5.383-22.266,24.353-30.988,49.969-23.25c22.517,6.797,44.086,16.803,68.765,14.371
				c14.985-1.479,29.254-4.891,42.989-10.48c8.854-3.604,15.898-9.953,20.629-18.545c3.261-5.922,7.306-12.969,3.593-18.629
				c-3.949-6.016-9.722,1.068-14.578,2.145c-60.791,13.455-125.604-7.676-153.473-56.186c-11.39-19.822-16.539-41.375-17.433-63.859
				c-2.073-52.263-4.887-104.635,1.648-156.734c3.018-24.066,20.801-37.171,43.449-35.286c22.83,1.901,36.258,17.627,38.358,41.861
				c4.015,46.23-0.043,92.563,2.576,138.741c2.322,40.932,41.246,61.629,77.621,42.395c18.908-10.002,25.996-26.711,26.152-46.801
				c0.334-42.928-0.021-85.863,0.239-128.793c0.103-17.008,5.646-31.488,20.55-41.735c23.614-16.235,64.25-3.936,64.864,42.8
				C2479.351,230.774,2478.92,272.348,2478.928,313.917"/>
			<path fill="#222121" d="M2003.869,300.964c0.016,36.1-0.211,72.199,0.108,108.295c0.162,18.266-5.365,33.164-22.115,42.244
				c-16.799,9.109-33.241,6.66-46.992-5.314c-6.395-5.57-10.425-3.172-15.709-0.977c-49.373,20.525-96.843,14.4-140.533-13.992
				c-33.636-21.857-47.552-56.883-48.798-95.656c-1.573-48.993-0.63-98.07-0.411-147.109c0.126-28.766,16.707-49.464,40.723-47.976
				c28.455,1.76,39.625,11.291,44.305,45.159c2.126,15.379,0.48,31.282,0.496,46.946c0.025,27.927-0.149,55.853,0.056,83.777
				c0.24,32.26,21.763,54.525,52.607,54.832c28.245,0.277,50.626-23.109,50.788-53.652c0.217-40.866-0.332-81.738,0.238-122.598
				c0.256-18.492,4.297-36.505,20.61-48.115c13.029-9.274,28.267-10.111,42.049-2.726c15.411,8.255,22.563,22.731,22.563,40.391
				C2003.854,223.317,2003.854,262.14,2003.869,300.964"/>
			<path fill="#222121" d="M2061.461,234.923c0.022-55.784-0.455-111.573,0.199-167.349c0.409-34.779,20.176-53.047,50.213-48.479
				c21.327,3.243,33.723,19.492,34.739,47.817c0.83,23.101,0.25,46.253,0.252,69.383c0.011,85.715-0.098,171.431,0.127,257.148
				c0.027,11-0.963,21.732-4.194,32.131c-5.359,17.23-19.927,27.125-38.363,27.412c-19.535,0.305-32.08-9.295-38.805-26.867
				c-3.656-9.547-4.354-19.664-4.308-29.969C2061.563,342.408,2061.435,288.667,2061.461,234.923"/>
			<path fill="#FFFDFD" d="M182.473,295.787c0-18.385-0.154-36.77,0.061-55.151c0.123-10.515,0.568-22.225,15.234-21.49
				c14.098,0.706,14.191,12.289,14.208,22.802c0.054,32.004-0.191,64.008,0.071,96.008c0.427,51.875,34.028,87.313,82.257,87.143
				c47.983-0.168,81.959-36.35,82.274-87.68c0.097-15.66,0.102-31.322,0.038-46.981c-0.04-9.568,4.167-16.499,13.946-16.592
				c9.63-0.093,14.858,6.772,14.682,16.129c-0.497,26.47,2.582,53.081-3.474,79.354c-12.287,53.305-61.545,88.1-119.161,83.896
				c-50.89-3.713-94.487-46.676-98.335-98.289c-1.462-19.615-0.238-39.43-0.238-59.151
				C183.516,295.787,182.994,295.787,182.473,295.787"/>
			<path fill="#FFFFFF" d="M356.385,261.727c0,25.167,0.212,50.337-0.05,75.501c-0.385,37.094-26.204,64.709-61.21,65.896
				c-34.294,1.164-63.651-26.223-64.405-62.826c-1.079-52.354-0.313-104.747-0.293-157.122c0.004-10.283,2.093-20,14.745-20.28
				c13.385-0.295,14.277,10.031,14.286,20.054c0.043,44.213,0.025,88.425,0.029,132.638c0,4.762-0.067,9.525,0.014,14.285
				c0.481,28.393,12.788,44.477,34.018,44.518c21.162,0.039,33.899-16.469,33.964-44.326c0.111-47.616,0.018-95.229,0.229-142.843
				c0.047-10.462-2.877-24.346,13.554-24.467c17.313-0.128,15.014,14.134,15.079,25.509
				C356.483,212.752,356.387,237.239,356.385,261.727"/>
			<path fill="#FFFDFD" d="M278.87,246.44c0-27.91,0.062-55.819-0.034-83.729c-0.034-10.087,0.517-20.305,13.635-20.867
				c14.744-0.634,15.147,10.267,15.128,21.154c-0.094,55.138-0.188,110.278,0.079,165.416c0.052,10.84-2.398,20.281-14.521,20.154
				c-12.042-0.125-14.529-9.686-14.397-20.441C279.095,300.898,278.871,273.669,278.87,246.44"/>
			<path fill="#212121" d="M957.592,250.956c-25.098-84.629-118.088-132.595-203.71-104.309
				c-17.325,5.723-33.581,17.302-49.443-2.155c-1.375-1.684-4.939-1.776-7.553-2.244c-30.875-5.536-52.874,14.481-53.076,49.422
				c-0.375,64.727-0.123,129.458-0.125,194.187c0,47.014-0.265,94.029,0.122,141.041c0.26,31.561,13.943,48.072,39.013,48.693
				c29.658,0.734,45.549-13.611,46.315-43.648c0.767-29.93,0.169-59.895,0.169-91.625c66.648,18.576,83.566,20.086,116.81,10.859
				C933.147,427.019,983.166,337.187,957.592,250.956z M802.312,371.791c-34.049,0.445-72.741-27.17-72.633-75.557
				c0.098-42.782,33.107-73.52,76.851-73.077c43.029,0.435,72.124,30.859,71.755,75.038
				C877.917,342.322,847.243,371.207,802.312,371.791z"/>
			<path fill="#212121" d="M1676.071,224.622c-0.002-55.169,0.374-110.344-0.161-165.509c-0.306-31.333-25.83-49.03-55.304-39.499
				c-19.016,6.149-29.315,23.703-29.733,52.329c-0.397,27.165-0.086,54.341-0.086,83.495c-5.308-1.592-7.251-1.961-9.015-2.735
				c-64.491-28.308-124.101-17.348-174.321,29.107c-48.765,45.107-62.938,103.051-42.015,166.809
				c29.207,89.012,131.978,131.891,218.334,92.676c5.998-2.723,12.35-9.582,19.972-1.365c14.248,15.367,31.828,17.709,49.841,8.643
				c18.502-9.316,22.729-26.689,22.614-46.18C1675.853,343.136,1676.073,283.88,1676.071,224.622z M1590.416,296.413
				c0.149,44.243-30.317,75.157-74.075,75.155c-42.279-0.004-72.273-31.539-74.547-73.859
				c-2.021-37.633,34.997-76.272,75.135-75.399C1558.687,223.219,1592.621,257.563,1590.416,296.413z"/>
			<path fill="#222121" d="M1272.616,326.058c30.287-0.107,51.195-23.961,46.156-53.243
				c-19.592-113.845-140.838-172.198-241.806-109.752c-57.244,35.403-80.673,90.62-72.112,156.534
				c8.162,62.834,45.563,105.936,104.596,127.627c60.49,22.23,124.63,5.848,164.152-36.619c13.15-14.131,16.016-32.469,6.262-46.221
				c-11.015-15.527-26.145-16.164-43.412-10.721c-12.375,3.9-23.164,10.684-34.958,15.512
				c-41.817,17.107-88.843,2.912-104.294-43.055C1156.903,326.121,1214.762,326.267,1272.616,326.058z M1168.91,223.945
				c24.265,2.392,44.126,12.833,58.11,37.453h-129.646C1115.333,234.258,1138.151,220.912,1168.91,223.945z"/>
		</g>
	</g>
</g>
</svg>
