<svg width="309" height="243" viewBox="0 0 309 243" fill="none" xmlns="http://www.w3.org/2000/svg">
<path d="M295.347 148.431C295.008 149.062 294.654 149.683 294.289 150.3C280.292 173.932 247.73 188.608 192.818 180.84C161.638 176.22 148.36 193.167 135.502 210.525C135.282 210.825 135.063 211.124 134.839 211.424C121.375 229.627 108.044 247.88 74.712 241.812C39.376 236.398 17.5681 208.594 14.1935 178.909C14.1524 178.548 14.1153 178.184 14.0817 177.823C12.1859 158.577 18.0448 138.649 32.9918 123.604C42.0205 114.519 54.8483 109.693 68.0894 109.845C72.0762 109.917 76.0612 109.631 79.9934 108.99C80.8613 108.842 81.7032 108.679 82.5225 108.495C99.3916 104.759 107.165 93.6528 111.933 80.0991C112.044 79.7778 112.156 79.4566 112.264 79.1317C123.211 46.8086 118.149 1.44068 177.662 8.11467C230.917 11.9191 270 40.5353 289.171 73.5514C289.361 73.8835 289.551 74.2156 289.737 74.5477C295.006 83.7086 298.766 93.6109 300.881 103.897C301.001 104.474 301.109 105.052 301.209 105.629C303.921 120.962 302.144 135.866 295.347 148.431Z" fill="#F2F2F2"/>
<path d="M289.737 74.5476C285.916 78.9481 281.611 82.9314 276.899 86.4265C258.54 100.07 235.286 107.47 212.346 109.022C200.557 109.825 188.71 109.045 177.141 106.705C165.371 104.315 154.144 100.107 143.272 95.1904C132.698 90.4078 122.436 85.0152 111.933 80.099C112.044 79.7778 112.156 79.4565 112.264 79.1317C123.718 84.4737 134.936 90.3609 146.524 95.4503C157.441 100.247 168.741 104.16 180.56 106.254C192.352 108.328 204.386 108.785 216.309 107.611C239.186 105.38 262.458 97.2009 280.046 82.5679C283.348 79.8208 286.401 76.8042 289.171 73.5514C289.361 73.8835 289.551 74.2156 289.737 74.5476Z" fill="white"/>
<path d="M210.252 0.33949C210.226 0.33949 210.199 0.340315 210.172 0.341968C181.942 2.05589 159.829 24.8907 159.829 52.3279C159.829 79.7652 181.942 102.6 210.172 104.314C210.341 104.325 210.51 104.302 210.669 104.246C210.828 104.191 210.974 104.104 211.097 103.992C211.219 103.881 211.317 103.747 211.383 103.598C211.45 103.449 211.484 103.289 211.483 103.126V1.52926C211.482 1.21342 211.352 0.910758 211.122 0.687703C210.891 0.464647 210.578 0.339411 210.252 0.339478L210.252 0.33949Z" fill="#CCCCCC"/>
<path d="M253.414 87.044C252.995 87.0436 252.594 86.8826 252.298 86.5962L215.797 51.224C215.65 51.0825 215.534 50.9142 215.454 50.7289C215.375 50.5435 215.335 50.3447 215.335 50.1441V1.52936C215.334 1.32076 215.378 1.11424 215.464 0.922795C215.549 0.731355 215.675 0.559134 215.832 0.416968C215.99 0.273039 216.177 0.162065 216.381 0.0909203C216.585 0.0197755 216.802 -0.0100227 217.018 0.0033628C245.432 1.72836 267.69 24.7121 267.69 52.3279C267.691 64.8721 263.05 77.0007 254.61 86.5121C254.468 86.6714 254.294 86.8008 254.098 86.8921C253.903 86.9835 253.69 87.0348 253.472 87.043C253.453 87.0437 253.434 87.044 253.414 87.044Z" fill="#CCCCCC"/>
<path d="M216.918 104.656C216.515 104.655 216.127 104.507 215.833 104.24C215.675 104.097 215.549 103.925 215.464 103.733C215.378 103.542 215.334 103.335 215.335 103.126V59.2629C215.335 58.9609 215.428 58.6656 215.601 58.4145C215.774 58.1634 216.02 57.9677 216.308 57.8521C216.596 57.7365 216.913 57.7063 217.218 57.7652C217.524 57.824 217.805 57.9694 218.025 58.183L249.877 89.0496C250.028 89.1964 250.147 89.3715 250.226 89.5642C250.306 89.7569 250.344 89.9632 250.338 90.1707C250.333 90.3781 250.284 90.5822 250.194 90.7707C250.105 90.9592 249.977 91.1281 249.818 91.2671C240.749 99.1788 229.192 103.895 217.015 104.653C216.983 104.655 216.95 104.656 216.918 104.656Z" fill="#E7513B"/>
<path d="M301.209 105.629C296.099 114.411 288.884 122.157 280.623 128.297C262.264 141.941 239.011 149.34 216.071 150.892C204.281 151.696 192.434 150.916 180.865 148.575C169.095 146.186 157.869 141.977 146.997 137.061C135.927 132.054 125.196 126.377 114.175 121.276C103.165 116.18 91.8491 111.834 79.9934 108.99C80.8613 108.842 81.7032 108.679 82.5225 108.495C83.2972 108.69 84.0695 108.892 84.8393 109.101C108.022 115.382 128.481 127.759 150.248 137.321C161.165 142.118 172.466 146.03 184.284 148.124C196.076 150.198 208.11 150.655 220.034 149.481C242.911 147.25 266.182 139.071 283.77 124.438C290.732 118.672 296.533 111.707 300.881 103.897C301.001 104.474 301.109 105.052 301.209 105.629Z" fill="white"/>
<path d="M71.0581 182.735C93.8977 188.922 114.093 201.028 135.502 210.525C135.282 210.825 135.063 211.124 134.839 211.424C134.295 211.182 133.756 210.94 133.215 210.695C122.146 205.688 111.415 200.011 100.394 194.91C89.1487 189.705 77.5873 185.284 65.4561 182.443C48.6874 178.529 31.3652 177.335 14.1935 178.909C14.1524 178.548 14.1153 178.184 14.0817 177.823C33.224 176.072 52.5354 177.737 71.0581 182.735Z" fill="white"/>
<path d="M162.857 217.562H0.426326C0.313257 217.562 0.204819 217.519 0.124868 217.441C0.0449161 217.364 0 217.259 0 217.149C0 217.04 0.0449161 216.935 0.124868 216.857C0.204819 216.78 0.313257 216.736 0.426326 216.736H162.857C162.97 216.736 163.078 216.78 163.158 216.857C163.238 216.935 163.283 217.04 163.283 217.149C163.283 217.259 163.238 217.364 163.158 217.441C163.078 217.519 162.97 217.562 162.857 217.562Z" fill="#CCCCCC"/>
<path d="M66.1314 161.827C71.9144 161.827 76.6024 157.284 76.6024 151.68C76.6024 146.076 71.9144 141.533 66.1314 141.533C60.3484 141.533 55.6604 146.076 55.6604 151.68C55.6604 157.284 60.3484 161.827 66.1314 161.827Z" fill="#A0616A"/>
<path d="M105.311 223.281L105.555 228.341L85.5334 231.662L85.1727 224.195L105.311 223.281Z" fill="#A0616A"/>
<path d="M110.309 221.76L110.865 233.263L110.652 233.272C109.007 233.377 107.369 232.993 105.955 232.171C104.677 231.382 103.941 230.289 103.883 229.093V229.093L103.544 222.068L110.309 221.76Z" fill="#2F2E41"/>
<path d="M104.75 231.606L109.977 231.606L112.464 212.069L104.75 212.07L104.75 231.606Z" fill="#A0616A"/>
<path d="M103.417 229.953L113.71 229.952H113.711C114.572 229.952 115.425 230.117 116.221 230.436C117.017 230.755 117.74 231.224 118.349 231.814C118.958 232.404 119.442 233.105 119.771 233.876C120.101 234.647 120.271 235.474 120.271 236.309V236.515L103.418 236.516L103.417 229.953Z" fill="#2F2E41"/>
<path d="M55.4064 226.874C55.9791 226.538 56.4687 226.084 56.8408 225.544C57.2129 225.005 57.4584 224.393 57.56 223.752C57.6617 223.11 57.617 222.455 57.4291 221.832C57.2412 221.21 56.9147 220.634 56.4726 220.147L60.6443 179.926L50.7087 180.599L49.7322 219.923C48.9368 220.697 48.462 221.727 48.3977 222.818C48.3335 223.909 48.6844 224.984 49.3838 225.841C50.0832 226.698 51.0826 227.276 52.1926 227.466C53.3026 227.657 54.4461 227.446 55.4064 226.874V226.874Z" fill="#A0616A"/>
<path d="M60.5958 186.898L50.3004 185.682C50.0074 185.647 49.7256 185.552 49.4742 185.402C49.2227 185.252 49.0075 185.052 48.8431 184.815C48.6788 184.577 48.5692 184.308 48.5219 184.026C48.4745 183.743 48.4905 183.455 48.5687 183.179L51.3102 173.517C51.5014 172.066 52.2786 170.747 53.4715 169.85C54.6645 168.953 56.1757 168.551 57.674 168.732C59.1722 168.914 60.5352 169.663 61.464 170.817C62.3927 171.97 62.8116 173.434 62.6286 174.886L62.897 184.871C62.9046 185.157 62.8486 185.441 62.7326 185.704C62.6167 185.967 62.4437 186.203 62.2253 186.395C62.0069 186.587 61.7483 186.732 61.4671 186.818C61.1859 186.905 60.8887 186.932 60.5958 186.898Z" fill="#E7513B"/>
<path d="M59.1556 232.571C57.908 232.488 56.705 232.088 55.6683 231.41C54.6315 230.733 53.7978 229.802 53.2512 228.712C52.7047 227.622 52.4647 226.411 52.5557 225.203C52.6466 223.994 53.0652 222.83 53.769 221.829L60.494 215.063L85.0077 193.786L98.1132 183.247C98.8779 182.632 99.7912 182.215 100.768 182.036C101.744 181.857 102.751 181.92 103.695 182.222C104.639 182.523 105.488 183.051 106.164 183.757C106.84 184.463 107.319 185.324 107.558 186.259L114.404 213.1C114.519 213.547 114.459 214.019 114.235 214.425C114.011 214.83 113.639 215.141 113.192 215.296L105.727 217.9C105.478 217.987 105.212 218.023 104.947 218.006C104.682 217.988 104.423 217.917 104.188 217.798C103.952 217.679 103.745 217.513 103.579 217.312C103.413 217.111 103.292 216.879 103.224 216.63L100.385 206.311L84.5858 220.948L89.515 222.706C89.9671 222.869 90.3395 223.191 90.5587 223.607C90.7779 224.024 90.8279 224.505 90.6987 224.955L89.1058 230.424C88.9959 230.806 88.7627 231.143 88.4405 231.387C88.1182 231.63 87.7238 231.767 87.3153 231.777L59.1556 232.571Z" fill="#2F2E41"/>
<path d="M58.486 217.315L57.8375 194.364L53.7473 184.297C52.9121 182.243 52.5503 180.037 52.687 177.834C52.8237 175.63 53.4558 173.482 54.5389 171.54C55.622 169.598 57.13 167.909 58.9573 166.591C60.7847 165.273 62.8872 164.358 65.1177 163.91C65.4544 163.842 65.7901 163.776 66.1249 163.712C68.2645 163.3 70.4694 163.327 72.5976 163.791C74.7258 164.255 76.7303 165.145 78.4821 166.405C80.2338 167.665 81.6941 169.266 82.7688 171.106C83.8436 172.945 84.5091 174.982 84.7225 177.086L86.6446 194.365L86.6368 194.398C83.572 207.609 74.7029 214.88 58.7252 217.279L58.486 217.315Z" fill="#E7513B"/>
<path d="M68.1596 201.372C68.3928 201.338 68.6284 201.321 68.8643 201.322L80.6988 184.343L78.4575 179.864L84.9902 175.703L89.753 183.258C90.1378 183.868 90.3079 184.583 90.2378 185.295C90.1676 186.007 89.8611 186.678 89.3641 187.207L73.167 204.44C73.4214 205.286 73.4041 206.186 73.1175 207.022C72.8309 207.858 72.2885 208.589 71.5625 209.119C70.8365 209.648 69.9613 209.951 69.0533 209.987C68.1453 210.023 67.2475 209.791 66.4793 209.32C65.7112 208.849 65.1091 208.163 64.7531 207.353C64.3971 206.543 64.3042 205.646 64.4866 204.784C64.669 203.921 65.1181 203.132 65.7742 202.523C66.4304 201.914 67.2624 201.512 68.1596 201.372Z" fill="#A0616A"/>
<path d="M79.6631 184.027C79.3975 183.956 79.1511 183.829 78.9406 183.657C78.7301 183.484 78.5605 183.27 78.4433 183.028L74.3504 174.582C73.57 173.443 73.2873 172.051 73.5641 170.711C73.841 169.371 74.6548 168.192 75.8273 167.432C76.9998 166.673 78.4352 166.395 79.8189 166.659C81.2027 166.923 82.4218 167.708 83.209 168.842L89.6757 175.797C89.8602 175.995 89.9985 176.23 90.081 176.485C90.1635 176.74 90.1883 177.009 90.1538 177.274C90.1193 177.539 90.0262 177.794 89.8809 178.021C89.7357 178.248 89.5416 178.442 89.312 178.59L81.2411 183.786C81.0115 183.933 80.7517 184.032 80.4793 184.073C80.207 184.115 79.9286 184.099 79.6631 184.027Z" fill="#E7513B"/>
<path d="M205.013 159.551H170.451C169.953 159.551 169.475 159.359 169.123 159.018C168.77 158.677 168.572 158.214 168.572 157.731C168.572 157.248 168.77 156.785 169.123 156.444C169.475 156.102 169.953 155.911 170.451 155.911H205.013C205.511 155.911 205.989 156.102 206.341 156.444C206.694 156.785 206.891 157.248 206.891 157.731C206.891 158.214 206.694 158.677 206.341 159.018C205.989 159.359 205.511 159.551 205.013 159.551Z" fill="#CCCCCC"/>
<path d="M160.12 161.372C159.34 161.372 158.577 161.147 157.928 160.727C157.28 160.307 156.774 159.71 156.475 159.012C156.177 158.313 156.099 157.545 156.251 156.803C156.403 156.062 156.779 155.381 157.33 154.846C157.882 154.311 158.585 153.947 159.35 153.8C160.115 153.652 160.909 153.728 161.629 154.017C162.35 154.307 162.966 154.797 163.4 155.425C163.833 156.054 164.064 156.793 164.064 157.549C164.063 158.562 163.647 159.534 162.908 160.251C162.168 160.967 161.166 161.37 160.12 161.372Z" fill="#3F3D56"/>
<path d="M205.013 170.473H170.451C169.953 170.473 169.475 170.281 169.123 169.94C168.77 169.599 168.572 169.135 168.572 168.653C168.572 168.17 168.77 167.707 169.123 167.366C169.475 167.024 169.953 166.832 170.451 166.832H205.013C205.511 166.832 205.989 167.024 206.341 167.366C206.694 167.707 206.891 168.17 206.891 168.653C206.891 169.135 206.694 169.599 206.341 169.94C205.989 170.281 205.511 170.473 205.013 170.473Z" fill="#CCCCCC"/>
<path d="M160.12 172.293C159.34 172.293 158.577 172.069 157.928 171.649C157.28 171.229 156.774 170.632 156.475 169.934C156.177 169.235 156.099 168.466 156.251 167.725C156.403 166.983 156.779 166.302 157.331 165.768C157.882 165.233 158.585 164.869 159.35 164.722C160.115 164.574 160.909 164.65 161.629 164.939C162.35 165.228 162.966 165.718 163.4 166.347C163.833 166.976 164.064 167.715 164.064 168.471C164.063 169.484 163.647 170.456 162.908 171.172C162.168 171.889 161.166 172.292 160.12 172.293Z" fill="#3F3D56"/>
<path d="M205.013 181.395H170.451C169.953 181.395 169.475 181.203 169.123 180.862C168.77 180.52 168.572 180.057 168.572 179.574C168.572 179.092 168.77 178.629 169.123 178.287C169.475 177.946 169.953 177.754 170.451 177.754H205.013C205.511 177.754 205.989 177.946 206.341 178.287C206.694 178.629 206.891 179.092 206.891 179.574C206.891 180.057 206.694 180.52 206.341 180.862C205.989 181.203 205.511 181.395 205.013 181.395Z" fill="#CCCCCC"/>
<path d="M160.12 183.215C159.34 183.215 158.577 182.991 157.928 182.571C157.28 182.151 156.774 181.554 156.475 180.855C156.177 180.157 156.099 179.388 156.251 178.647C156.403 177.905 156.779 177.224 157.33 176.689C157.882 176.155 158.585 175.791 159.35 175.643C160.115 175.496 160.909 175.571 161.629 175.861C162.35 176.15 162.966 176.64 163.4 177.269C163.833 177.897 164.064 178.636 164.064 179.392C164.063 180.406 163.647 181.378 162.908 182.094C162.168 182.811 161.166 183.214 160.12 183.215Z" fill="#3F3D56"/>
<path d="M214.943 168.604H229.219C229.319 168.604 229.414 168.565 229.485 168.497C229.555 168.429 229.595 168.336 229.595 168.24V82.714C229.595 82.6175 229.555 82.5249 229.485 82.4566C229.414 82.3883 229.319 82.35 229.219 82.35C229.119 82.35 229.024 82.3883 228.953 82.4566C228.883 82.5249 228.843 82.6175 228.843 82.714V167.875H214.943C214.894 167.875 214.845 167.885 214.799 167.903C214.753 167.921 214.712 167.948 214.677 167.982C214.642 168.016 214.614 168.056 214.595 168.1C214.576 168.144 214.566 168.192 214.566 168.24C214.566 168.287 214.576 168.335 214.595 168.379C214.614 168.423 214.642 168.464 214.677 168.497C214.712 168.531 214.753 168.558 214.799 168.576C214.845 168.594 214.894 168.604 214.943 168.604Z" fill="#3F3D56"/>
<path d="M276.115 26.8155C275.16 26.89 274.205 26.6885 273.368 26.2366C272.532 25.7846 271.852 25.1024 271.416 24.2763C270.98 23.4501 270.806 22.5172 270.917 21.5954C271.027 20.6735 271.418 19.8042 272.038 19.0974C272.659 18.3906 273.482 17.878 274.403 17.6245C275.325 17.3709 276.303 17.3878 277.214 17.6729C278.125 17.9581 278.929 18.4987 279.523 19.2265C280.118 19.9542 280.476 20.8364 280.553 21.7615C280.656 23.002 280.246 24.2313 279.414 25.1791C278.582 26.1269 277.395 26.7156 276.115 26.8155ZM276.055 26.0959C276.863 26.0329 277.633 25.7391 278.269 25.2518C278.904 24.7645 279.376 24.1056 279.625 23.3583C279.874 22.611 279.889 21.8089 279.668 21.0535C279.446 20.2981 278.999 19.6233 278.381 19.1144C277.764 18.6055 277.005 18.2854 276.2 18.1945C275.395 18.1036 274.581 18.2461 273.859 18.6039C273.138 18.9617 272.542 19.5188 272.148 20.2046C271.753 20.8905 271.577 21.6743 271.642 22.4571C271.686 22.9768 271.834 23.4832 272.079 23.9474C272.324 24.4115 272.661 24.8243 273.071 25.1622C273.481 25.5001 273.955 25.7565 274.467 25.9167C274.979 26.0769 275.519 26.1378 276.055 26.0959V26.0959Z" fill="#CCCCCC"/>
<path d="M292.788 14.7753C294.434 14.7753 295.768 13.4825 295.768 11.8877C295.768 10.2929 294.434 9.00012 292.788 9.00012C291.143 9.00012 289.808 10.2929 289.808 11.8877C289.808 13.4825 291.143 14.7753 292.788 14.7753Z" fill="#CCCCCC"/>
<path d="M307.435 4.33249C308.299 4.33249 309 3.65338 309 2.81566C309 1.97794 308.299 1.29883 307.435 1.29883C306.57 1.29883 305.87 1.97794 305.87 2.81566C305.87 3.65338 306.57 4.33249 307.435 4.33249Z" fill="#CCCCCC"/>
<path d="M253.363 119.176C252.836 119.95 252.082 120.555 251.2 120.915C250.317 121.274 249.344 121.372 248.403 121.196C247.463 121.019 246.598 120.577 245.917 119.924C245.237 119.271 244.771 118.437 244.58 117.528C244.388 116.619 244.479 115.675 244.841 114.816C245.203 113.956 245.819 113.22 246.613 112.701C247.406 112.181 248.341 111.901 249.299 111.897C250.256 111.892 251.194 112.162 251.993 112.674C253.063 113.361 253.809 114.431 254.066 115.65C254.323 116.869 254.07 118.137 253.363 119.176ZM245.905 114.4C245.459 115.055 245.222 115.824 245.227 116.609C245.231 117.395 245.475 118.161 245.929 118.812C246.382 119.462 247.025 119.968 247.775 120.265C248.525 120.562 249.35 120.636 250.144 120.479C250.938 120.322 251.666 119.94 252.236 119.382C252.806 118.824 253.192 118.114 253.346 117.344C253.5 116.573 253.415 115.775 253.101 115.051C252.787 114.327 252.258 113.709 251.582 113.276C250.675 112.697 249.568 112.49 248.504 112.701C247.44 112.911 246.505 113.523 245.905 114.4Z" fill="#CCCCCC"/>
<path d="M259.164 136.433C260.81 136.433 262.144 135.14 262.144 133.545C262.144 131.951 260.81 130.658 259.164 130.658C257.519 130.658 256.184 131.951 256.184 133.545C256.184 135.14 257.519 136.433 259.164 136.433Z" fill="#CCCCCC"/>
<path d="M267.476 149.857C268.34 149.857 269.041 149.178 269.041 148.34C269.041 147.502 268.34 146.823 267.476 146.823C266.611 146.823 265.911 147.502 265.911 148.34C265.911 149.178 266.611 149.857 267.476 149.857Z" fill="#CCCCCC"/>
<path d="M133.132 40.3668C132.706 39.5357 132.544 38.6008 132.666 37.6804C132.788 36.7599 133.189 35.8952 133.818 35.1955C134.447 34.4959 135.277 33.9928 136.201 33.7499C137.125 33.507 138.103 33.5351 139.011 33.8308C139.919 34.1264 140.715 34.6763 141.301 35.4108C141.886 36.1454 142.233 37.0316 142.299 37.9575C142.365 38.8834 142.145 39.8073 141.669 40.6124C141.193 41.4176 140.481 42.0678 139.623 42.4808C138.473 43.0332 137.143 43.1208 135.927 42.7245C134.71 42.3282 133.705 41.4803 133.132 40.3668ZM141.137 36.5117C140.777 35.8085 140.209 35.2247 139.506 34.8341C138.803 34.4435 137.996 34.2638 137.188 34.3175C136.379 34.3712 135.606 34.6561 134.964 35.136C134.323 35.616 133.843 36.2695 133.585 37.0138C133.326 37.7582 133.302 38.5601 133.514 39.318C133.726 40.0759 134.165 40.7558 134.776 41.2718C135.387 41.7877 136.142 42.1166 136.946 42.2167C137.75 42.3168 138.566 42.1837 139.292 41.8343C140.264 41.3647 141.004 40.5407 141.35 39.5429C141.696 38.545 141.62 37.4549 141.137 36.5117Z" fill="#CCCCCC"/>
<path d="M117.395 40.9058C119.041 40.9058 120.375 39.613 120.375 38.0182C120.375 36.4234 119.041 35.1306 117.395 35.1306C115.75 35.1306 114.416 36.4234 114.416 38.0182C114.416 39.613 115.75 40.9058 117.395 40.9058Z" fill="#CCCCCC"/>
<path d="M100.019 39.0779C100.884 39.0779 101.584 38.3987 101.584 37.561C101.584 36.7233 100.884 36.0442 100.019 36.0442C99.1546 36.0442 98.4539 36.7233 98.4539 37.561C98.4539 38.3987 99.1546 39.0779 100.019 39.0779Z" fill="#CCCCCC"/>
<path d="M77.1969 152.568L76.7605 151.49C75.5563 148.516 72.677 146.23 69.5956 145.801C68.0582 145.606 66.4953 145.838 65.0887 146.47C63.682 147.102 62.4895 148.108 61.6496 149.372C60.9369 150.57 60.3742 151.846 59.9734 153.174C59.8361 153.569 59.6976 153.855 59.4317 153.941C59.1323 154.046 58.8343 153.867 58.3406 153.57C58.2305 153.504 58.1032 153.47 57.9737 153.471C57.8442 153.473 57.7178 153.51 57.6091 153.578C57.5005 153.646 57.4142 153.743 57.3603 153.857C57.3063 153.971 57.287 154.098 57.3045 154.222L57.8222 157.804L57.389 157.43C54.5699 154.999 53.9907 150.423 56.0272 147.52L51.3925 148.443L51.6013 148.057C53.5261 144.456 56.8438 141.741 60.8288 140.504L56.3894 139.557L56.8381 139.289C60.8137 136.916 66.0585 136.983 70.199 139.455C72.2786 140.747 74.001 142.511 75.2163 144.594C76.4316 146.678 77.103 149.018 77.172 151.41L77.1969 152.568Z" fill="#2F2E41"/>
</svg>
