<svg width="60" height="60" viewBox="0 0 60 60" fill="none" xmlns="http://www.w3.org/2000/svg">
<path opacity="0.4" d="M30 60C46.5685 60 60 46.5685 60 30C60 13.4315 46.5685 0 30 0C13.4315 0 0 13.4315 0 30C0 46.5685 13.4315 60 30 60Z" fill="#E7513B"/>
<path d="M32.218 41.29C32.742 41.29 33.164 41.716 33.164 42.238C33.164 42.762 32.742 43.186 32.218 43.186H16.262C15.74 43.186 15.314 42.762 15.314 42.238C15.314 35.7 20.142 29.506 26.876 29.506C27.4 29.506 27.824 29.93 27.824 30.454C27.824 30.976 27.4 31.402 26.876 31.402C21.622 31.402 17.678 36.08 17.248 41.29H32.218ZM30.312 27.676C26.858 27.676 24.058 24.892 24.058 21.456C24.058 18.02 26.86 15.236 30.312 15.236C33.764 15.236 36.566 18.02 36.566 21.456C36.566 24.892 33.766 27.676 30.312 27.676ZM30.312 25.782C32.722 25.782 34.672 23.844 34.672 21.456C34.672 19.068 32.722 17.13 30.312 17.13C27.902 17.13 25.952 19.068 25.952 21.456C25.952 23.844 27.902 25.782 30.312 25.782ZM39.504 29.532C40.894 29.382 42.282 29.846 43.292 30.8L43.3 30.808C44.184 31.664 44.684 32.836 44.684 34.058C44.684 35.284 44.184 36.456 43.302 37.312L37.53 42.916C37.16 43.274 36.576 43.274 36.21 42.916L30.44 37.314C29.554 36.456 29.054 35.284 29.054 34.06C29.054 32.836 29.554 31.664 30.448 30.8C31.458 29.846 32.846 29.382 34.236 29.532C35.224 29.64 36.142 30.048 36.87 30.69C37.598 30.048 38.516 29.638 39.504 29.532ZM39.708 31.414C38.87 31.506 38.118 31.956 37.656 32.64C37.28 33.198 36.46 33.198 36.086 32.64C35.624 31.956 34.872 31.506 34.034 31.414C33.194 31.324 32.356 31.606 31.758 32.168C31.24 32.67 30.95 33.352 30.95 34.06C30.95 34.768 31.242 35.45 31.76 35.952L36.872 40.914L41.984 35.95C42.504 35.448 42.792 34.768 42.792 34.058C42.792 33.35 42.502 32.674 41.988 32.172C41.378 31.604 40.544 31.324 39.708 31.414Z" fill="#E7513B"/>
</svg>