<svg width="27" height="24" viewBox="0 0 27 24" fill="none" xmlns="http://www.w3.org/2000/svg">
<path d="M19.3777 13.4V16.4C19.3777 20.4 17.6444 22 13.311 22H9.19435C4.86102 22 3.12769 20.4 3.12769 16.4V12.6C3.12769 8.6 4.86102 7 9.19435 7H12.4444" stroke="#212121" strokeWidth="1.5" strokeLinecap="round" strokeLinejoin="round"/>
<path d="M19.3777 13.4H15.911C13.311 13.4 12.4443 12.6 12.4443 10.2V7L19.3777 13.4Z" stroke="#212121" strokeWidth="1.5" strokeLinecap="round" strokeLinejoin="round"/>
<path d="M13.5276 2H17.8609" stroke="#212121" strokeWidth="1.5" strokeLinecap="round" strokeLinejoin="round"/>
<path d="M8.54419 5C8.54419 3.34 9.99586 2 11.7942 2H14.6325" stroke="#212121" strokeWidth="1.5" strokeLinecap="round" strokeLinejoin="round"/>
<path d="M24.7942 8V14.19C24.7942 15.74 23.4292 17 21.75 17" stroke="#212121" strokeWidth="1.5" strokeLinecap="round" strokeLinejoin="round"/>
<path d="M24.7942 8H21.5442C19.1067 8 18.2942 7.25 18.2942 5V2L24.7942 8Z" stroke="#212121" strokeWidth="1.5" strokeLinecap="round" strokeLinejoin="round"/>
</svg>
