<svg width="18" height="18" viewBox="0 0 18 18" fill="none" xmlns="http://www.w3.org/2000/svg">
<path d="M14.625 9.56491C14.625 8.58962 15.465 7.79809 16.5 7.79809V7.09136C16.5 4.26443 15.75 3.5577 12.75 3.5577H5.25C2.25 3.5577 1.5 4.26443 1.5 7.09136V7.44472C2.535 7.44472 3.375 8.23626 3.375 9.21155C3.375 10.1868 2.535 10.9784 1.5 10.9784V11.3317C1.5 14.1587 2.25 14.8654 5.25 14.8654H12.75C15.75 14.8654 16.5 14.1587 16.5 11.3317C15.465 11.3317 14.625 10.5402 14.625 9.56491Z" stroke="#E7513B" strokeLinecap="round" strokeLinejoin="round"/>
<path d="M6.75 11.1551L11.25 6.91467" stroke="#E7513B" strokeLinecap="round" strokeLinejoin="round"/>
<path d="M11.2459 11.1551H11.2526" stroke="#E7513B" strokeLinecap="round" strokeLinejoin="round"/>
<path d="M6.74588 7.26804H6.75262" stroke="#E7513B" strokeLinecap="round" strokeLinejoin="round"/>
</svg>
