<svg
      xmlns="http://www.w3.org/2000/svg"
      width="58"
      height="58"
      fill="none"
      viewBox="0 0 36 32"
    >
      <path
        fill="#003457"
        fillRule="evenodd"
        d="M9.887 16.922c-1.463-.382-2.707-1.253-4.106-1.847-.01.276-.02.536-.112.784-.243.656-.86 1.122-1.565 1.136-.816.015-1.634.02-2.45-.002a1.696 1.696 0 01-1.647-1.677c-.01-3.88-.01-7.76.001-11.64.003-.92.766-1.657 1.69-1.672C2.393 1.992 3.09 2 3.787 2c1.276 0 1.928.618 1.996 1.902.14.02.24-.078.348-.132 2.253-1.123 4.51-2.237 6.752-3.381 1.05-.537 2.051-.516 3.085.042 2.964 1.6 5.94 3.175 8.908 4.766a7.478 7.478 0 013.704 8.565c-.025.093-.044.187-.066.28-.21.63-.503 1.222-.826 1.8l-.865 1.094c-.44.454-.931.844-1.444 1.21-.983.574-2.025.98-3.166 1.105a7.717 7.717 0 01-1.731-.002c-1.14-.123-2.18-.536-3.164-1.105-.238-.18-.526-.322-.706-.548-.49-.619-1.131-.672-1.831-.586h-1.367c-1.175-.05-2.355.063-3.528-.09zm16.326-1.07a4.956 4.956 0 001.049-1.807c.455-1.07.54-2.187.34-3.316-.84-4.737-6.371-6.867-10.16-3.912-1.347 1.05-2.129 2.444-2.376 4.137-.032.219.006.296.244.283.384-.021.77-.019 1.153 0 .234.01.307-.054.362-.3.43-1.902 1.576-3.167 3.489-3.611 1.865-.434 3.466.133 4.65 1.631 1.215 1.54 1.303 3.246.476 5.009-.434.783-1.047 1.394-1.801 1.869-.566.264-1.142.534-1.771.542-.692.009-1.34.102-1.938.471-.107.066-.252.07-.379.103-.573.097-1.155.018-1.77.068.225.201.448.316.672.423 2.248 1.07 4.419.962 6.502-.436a4.599 4.599 0 001.258-1.155zm-2.258-1.8c1.277-1.327 1.105-3.622-.365-4.882-1.934-1.657-4.977-.684-5.595 1.784-.057.225-.025.304.218.281.202-.018.407-.004.611-.004 1.787 0 2.931 1.034 3.111 2.81-.014.299-.03.6-.135.882-.112.297.024.327.262.27.752-.178 1.407-.519 1.893-1.14zm-3.199-.013c-.054-.971-.773-1.649-1.777-1.652-2.26-.005-4.518.002-6.777-.003-1.182-.002-2.09-.897-2.079-2.03.012-1.128.903-1.995 2.069-2.006.745-.007 1.49-.01 2.235.004.21.004.315-.07.418-.246 1.103-1.893 2.723-3.095 4.857-3.597.315-.074.635-.122.994-.19-.073-.056-.098-.082-.128-.098-1.785-.96-3.569-1.92-5.355-2.874-.563-.301-1.125-.267-1.69.017a2412.13 2412.13 0 01-7.496 3.742c-.182.091-.262.188-.261.406.009 2.655.008 5.31 0 7.966 0 .21.062.319.252.411 1.024.5 2.038 1.016 3.06 1.52.498.246 1.022.41 1.585.416 2.847.005 5.694.032 8.541.003.916-.01 1.586-.855 1.552-1.789zM4.617 9.541c0-1.897.002-3.793 0-5.69-.001-.478-.208-.691-.671-.694-.708-.005-1.417-.005-2.125 0-.447.003-.663.215-.663.664-.003 3.782-.002 7.564 0 11.345 0 .467.215.676.687.68.66.004 1.32.001 1.981 0 .61 0 .79-.181.791-.794v-5.51zm9.59-.038c-.715 0-1.397-.011-2.078.003a.851.851 0 00-.847.85c-.005.46.348.85.828.868.526.02 1.054 0 1.58.01.164.003.207-.075.215-.213.03-.503.157-.988.303-1.518z"
        clipRule="evenodd"
      ></path>
      <path
        fill="#E7513B"
        fillOpacity="0.8"
        fillRule="evenodd"
        d="M21.345 22.193c4.661 0 9.323.005 13.984-.01.378-.001.451.108.45.462-.016 2.51-.008 5.022-.01 7.533 0 1.066-.746 1.821-1.803 1.821H8.736c-1.06 0-1.81-.752-1.81-1.815-.001-2.535.006-5.07-.009-7.605-.002-.328.1-.394.407-.393 4.673.01 9.347.007 14.02.007zM9.887 16.922c1.173.152 2.353.04 3.529.09-.281.418-.564.834-.84 1.254-.151.228-.253.469-.104.74.15.273.4.305.678.305 2.317-.005 4.634-.002 6.951-.005.129 0 .266.04.382-.056a7.724 7.724 0 001.731.002c.118.09.255.055.384.055 2.113.002 4.227 0 6.34.004.289 0 .557-.018.712-.31.153-.288.028-.534-.13-.77-.452-.679-.91-1.353-1.357-2.036-.119-.181-.259-.311-.474-.352.323-.578.617-1.17.826-1.8.622.033 1.249-.073 1.866.063.43.095.768.331 1.01.698a2831.15 2831.15 0 013.843 5.831c.069.105.203.228.133.349-.07.122-.242.052-.367.052-9.096.003-18.193.003-27.289.003-.06 0-.12-.003-.18 0-.274.015-.28-.088-.146-.292.644-.97 1.281-1.943 1.92-2.917.196-.3.388-.605.582-.908z"
        clipRule="evenodd"
      ></path>
      <path
        fill="#E7513B"
        fillOpacity="0.8"
        fillRule="evenodd"
        d="M10.663 15.825c.205-.437.477-.835.783-1.2.34-.405.806-.583 1.342-.582 2.656.001 5.312-.002 7.968-.004.034.934-.636 1.78-1.552 1.79-2.846.028-5.694.002-8.54-.004zM24.955 17.005c-2.083 1.399-4.254 1.506-6.502.436a2.635 2.635 0 01-.671-.422c.614-.05 1.196.029 1.77-.068.131.084.279.048.42.048 1.66.004 3.322.005 4.983.006zM26.213 15.851c-.858-.005-1.716-.01-2.574-.017.754-.474 1.367-1.085 1.801-1.868.202.152.433.065.65.073.39.016.781.006 1.172.006a4.956 4.956 0 01-1.049 1.806zM17.32 18.145h-3.223c.173-.428.498-.741.685-1.133.7-.087 1.34-.033 1.831.585.18.227.468.368.706.548zM26.824 16.938c.753.02.82.739 1.178 1.21h-2.621a10.427 10.427 0 001.443-1.21zM21.935 14.04l2.02.013c-.486.621-1.14.962-1.893 1.14-.238.057-.374.027-.262-.27.106-.282.12-.583.135-.882z"
        clipRule="evenodd"
      ></path>
    </svg>