<svg
      xmlns="http://www.w3.org/2000/svg"
      width="58"
      height="58"
      fill="none"
      viewBox="0 0 29 32"
    >
      <path
        fill="#E7513B"
        fillOpacity="0.8"
        fillRule="evenodd"
        d="M15.253 19.674c-.912 0-1.825.002-2.738 0-1.087-.003-1.8-.913-1.548-1.977.15-.635.305-1.27.468-1.901.216-.84.793-1.281 1.655-1.282h4.413c.737.002 1.326.425 1.529 1.14.206.732.398 1.468.56 2.21.192.877-.564 1.786-1.472 1.81h-2.867zM5.955 31.997c-.913 0-1.826.002-2.738 0-1.068-.003-1.789-.917-1.541-1.956.154-.646.308-1.29.475-1.933.218-.836.794-1.27 1.663-1.27 1.46-.001 2.92-.002 4.38 0 .764 0 1.346.416 1.553 1.15.206.732.402 1.467.56 2.21.186.88-.574 1.787-1.485 1.797-.956.01-1.912.002-2.867.002zM15.25 31.997c-.912 0-1.825.002-2.738 0-1.072-.003-1.796-.912-1.55-1.949.154-.645.31-1.29.475-1.933.216-.837.794-1.277 1.658-1.278h4.38c.768.001 1.351.413 1.558 1.145.207.73.4 1.466.561 2.208.19.878-.567 1.784-1.477 1.807h-2.866zM24.543 31.997c-.913 0-1.825.002-2.738 0-1.087-.003-1.8-.913-1.548-1.977.15-.635.305-1.269.468-1.901.216-.839.793-1.281 1.654-1.282h4.414c.737.002 1.326.425 1.528 1.141.207.73.398 1.467.56 2.209.192.877-.563 1.786-1.471 1.81h-2.867zM15.671 24.786c.849-.004 1.698-.014 2.546-.01.644.002 1.156-.234 1.47-.808.32-.585.241-1.154-.123-1.7-.357-.535-.705-1.076-1.056-1.615 1.257-.003 2.514-.025 3.77 0 .634.014 1.132.36 1.329.956.266.801.48 1.625.634 2.455.166.888-.604 1.736-1.515 1.74-1.88.005-3.76-.005-5.641.004-.65.004-1.328-.55-1.414-1.022zM6.383 24.786c1.202-.004 2.403-.012 3.605-.012 1.62.001 3.24.008 4.86.012-.09.474-.734 1.015-1.348 1.017-1.922.004-3.846.004-5.769 0-.617-.001-1.26-.55-1.348-1.017zM6.38 23.726c.12-.74.274-1.479.55-2.17.235-.586.742-.907 1.398-.91 1.512-.005 3.025-.009 4.538.003.684.005 1.213.32 1.455.967.253.68.412 1.393.53 2.11-1.363.005-2.727.014-4.09.014-1.46 0-2.92-.009-4.381-.014z"
        clipRule="evenodd"
      ></path>
      <path
        fill="#E7513B"
        fillOpacity="0.8"
        fillRule="evenodd"
        d="M15.669 23.727c.12-.736.285-1.465.544-2.16.173-.463.547-.78 1.068-.864.479.722.962 1.441 1.434 2.168.279.428.077.86-.413.865-.877.01-1.755-.005-2.633-.01z"
        clipRule="evenodd"
      ></path>
      <path
        fill="#003457"
        fillRule="evenodd"
        d="M17.977 19.615c.098.386.28.73.53 1.038.352.539.7 1.08 1.057 1.615.364.546.444 1.115.123 1.7-.314.574-.826.81-1.47.808-.848-.004-1.697.006-2.545.01h-.824c-1.62-.004-3.24-.011-4.86-.012-1.202 0-2.403.008-3.605.012-1.547-.004-3.094-.017-4.641-.009-.68.004-1.224-.22-1.553-.834-.323-.604-.21-1.178.17-1.723.265-.378.488-.788.775-1.148.876-1.097 1.08-2.332.916-3.697a48.379 48.379 0 01-.283-3.792C1.63 10.177 3.759 6.98 6.946 5.747c.078-.03.155-.063.25-.101-.256-.4-.419-.809-.318-1.284.084-.397.278-.723.61-.95.14-.095.154-.168.077-.31-.16-.291-.307-.59-.448-.89C6.791 1.513 6.994.719 7.6.288c.616-.437 1.407-.372 1.976.164.37.348.37.348.735.004.571-.538 1.36-.606 1.975-.17.608.43.811 1.218.488 1.923-.143.312-.301.616-.455.923-.045.089-.082.145.025.241.818.737.9 1.26.363 2.281.922.34 1.776.804 2.516 1.451 2.133 1.869 3.087 4.223 2.869 7.051-.01.139-.01.278-.014.418-.092 1.196-.188 2.391-.274 3.588-.035.493-.024.985.173 1.453zM6.38 23.726c1.46.005 2.92.013 4.38.014 1.364 0 2.728-.009 4.092-.013h.817c.878.004 1.756.019 2.633.01.49-.006.692-.438.413-.866-.472-.727-.955-1.446-1.434-2.168l-.42-1.101a6.621 6.621 0 01-.082-1.759l.244-3.393c.093-.718.108-1.436-.004-2.152-.608-3.853-3.998-6.445-7.901-6.046-3.643.373-6.503 3.685-6.32 7.346.065 1.276.15 2.553.291 3.823.169 1.518-.096 2.899-1.034 4.133-.33.435-.621.901-.912 1.365-.245.392-.023.816.436.817 1.6.006 3.2-.005 4.801-.01zM9.951 3.1c.343 0 .687-.005 1.03.002.133.003.215-.03.276-.16.181-.387.382-.766.567-1.152.122-.252.091-.49-.145-.657-.236-.168-.466-.115-.666.084l-.547.546c-.412.41-.63.408-1.051-.01-.167-.167-.332-.337-.501-.5-.252-.244-.498-.287-.715-.114-.24.192-.248.433-.117.692.183.364.374.724.544 1.093.065.14.147.183.295.179.343-.01.687-.003 1.03-.003zm-.006 2.064c.482 0 .964.002 1.446-.001.384-.003.608-.191.613-.506.005-.32-.217-.522-.595-.523a414.68 414.68 0 00-2.925 0c-.371 0-.607.211-.602.52.005.31.24.506.616.509.482.003.964 0 1.447 0z"
        clipRule="evenodd"
      ></path>
      <path
        fill="#FEFEFE"
        fillRule="evenodd"
        d="M9.951 3.1c-.343 0-.687-.007-1.03.003-.148.004-.23-.04-.295-.18-.17-.369-.361-.728-.544-1.092-.131-.26-.123-.5.117-.692.216-.173.463-.13.714.113.17.164.335.334.502.5.42.42.639.421 1.05.01.183-.18.365-.363.548-.545.2-.2.43-.252.666-.085.236.168.266.405.145.658-.185.386-.386.765-.567 1.152-.061.13-.143.163-.276.16-.343-.007-.687-.002-1.03-.002zM9.945 5.164c-.483 0-.965.002-1.447-.001-.377-.003-.611-.2-.616-.508-.005-.31.23-.52.602-.521.975-.004 1.95-.004 2.925 0 .378 0 .6.203.595.523-.005.315-.229.503-.613.506-.482.003-.964 0-1.446 0z"
        clipRule="evenodd"
      ></path>
      <path
        fill="#003457"
        d="M7.761 14.024h.293c.287 0 .499-.047.636-.143.136-.096.205-.246.205-.451 0-.203-.07-.348-.211-.434-.139-.086-.355-.129-.648-.129h-.275v1.157zm0 .739v1.643h-.908v-4.283H8.1c.582 0 1.013.107 1.292.32.28.21.419.532.419.963 0 .252-.07.477-.208.674a1.38 1.38 0 01-.59.46c.645.963 1.065 1.585 1.26 1.866H9.268l-1.023-1.643h-.483zm4.781 1.702c-.384 0-.686-.14-.905-.42h-.047c.031.274.047.432.047.475v1.328h-.894V13.13h.727l.126.425h.041c.209-.325.518-.487.929-.487.386 0 .69.15.908.449.219.298.328.713.328 1.245 0 .35-.052.653-.155.91a1.269 1.269 0 01-.437.59c-.19.134-.412.202-.668.202zm-.263-2.68c-.221 0-.382.067-.484.204-.101.135-.154.359-.158.671v.097c0 .351.052.603.155.756.106.152.272.228.498.228.4 0 .6-.33.6-.99 0-.322-.049-.563-.149-.724-.097-.162-.252-.243-.462-.243z"
      ></path>
    </svg>