 <svg
      xmlns="http://www.w3.org/2000/svg"
      width="58"
      height="58"
      fill="none"
      viewBox="0 0 33 32"
    >
      <path
        fill="#003457"
        fillRule="evenodd"
        d="M23.245 19.748c-.01.214.003.432-.032.642-.13.758-.758 1.285-1.536 1.295-.686.009-1.372.008-2.059.011l-7.05-.01c-1.054-.001-1.652-.556-1.735-1.61.004-.29.01-.58.01-.869.005-.89.485-1.478 1.362-1.637.152-.027.193-.07.19-.216a59.398 59.398 0 010-1.64c.003-.157-.027-.23-.208-.227-.707.013-1.414.011-2.122.015-1.914-.004-3.828-.005-5.742-.015-.161-.001-.18.058-.205.198-.15.854-.75 1.35-1.619 1.354-.323.002-.645.006-.968-.001-.845-.02-1.523-.678-1.525-1.52-.008-3.12-.008-6.239 0-9.358.003-.827.678-1.486 1.503-1.509.344-.01.689-.005 1.033-.002.821.008 1.435.518 1.571 1.332.03.177.078.221.252.22 1.506-.006 3.011-.006 4.517 0 .17 0 .247-.03.242-.224a35.37 35.37 0 010-1.613c.003-.181-.047-.238-.232-.236-.342.003-.687.034-1.029-.038-1.05-.225-1.753-1.157-1.659-2.212A2.058 2.058 0 018.238.006c4.324-.007 8.647-.009 12.971 0 1.123.003 2.02.933 2.025 2.048a2.053 2.053 0 01-2.032 2.074c-2.075.013-4.151.01-6.227-.003-.285-.002-.364.068-.348.351.026.461.03.926-.001 1.386-.02.303.09.347.358.342.826-.015 1.651-.031 2.467.178 2.392.614 4.194 2.847 4.227 5.316.026 1.85.01 3.7.004 5.55 0 .21.025.3.273.34.773.129 1.269.756 1.28 1.548l.01.612zm-3.236.896c.543.003 1.085.012 1.628.007.358-.004.55-.199.563-.552.005-.117-.004-.234-.007-.35.003-.193.012-.385.008-.577-.008-.38-.197-.58-.57-.581-1.079-.003-2.157.004-3.236.007-1.987-.003-3.973-.008-5.959-.007-.347 0-.545.195-.556.533-.01.332-.01.666 0 .998.011.324.205.527.53.527 1.545.003 3.09-.004 4.637-.007l2.962.002zm-9.551-6.195c.621.003 1.243.004 1.865.01.676.005 1.098.43 1.102 1.11.004.59.006 1.18-.002 1.77-.003.164.04.221.214.22 1.651-.01 3.302-.01 4.954-.013.59.003 1.182-.007 1.772.016.247.01.298-.064.296-.3-.01-1.785-.007-3.569-.004-5.353 0-.324-.03-.645-.098-.96-.477-2.21-2.331-3.714-4.594-3.717-3.332-.005-6.664-.002-9.995-.002-.538 0-1.075.005-1.613-.002-.152-.002-.227.017-.226.203.006 2.278.005 4.557 0 6.835 0 .16.054.195.203.195 2.042-.008 4.084-.01 6.126-.012zm4.241-11.35h6.292c.74 0 1.215-.409 1.21-1.04-.004-.627-.478-1.023-1.225-1.024h-2c-3.517 0-7.035 0-10.552-.002-.24 0-.472.02-.684.144a1.04 1.04 0 00-.48 1.136c.127.48.526.785 1.05.786 2.13.003 4.26 0 6.39 0zM3.1 10.878c0-1.526.002-3.051-.001-4.577 0-.425-.187-.612-.604-.618-.29-.004-.58-.004-.87 0-.386.007-.587.193-.588.569-.003 3.061-.003 6.123 0 9.185 0 .375.203.563.586.57.269.005.538.002.806 0 .5-.002.67-.173.67-.682.002-1.482.001-2.965.001-4.447zm8.801-6.744c-.515 0-1.03.004-1.546-.003-.15-.002-.208.038-.206.198.009.558.009 1.117 0 1.675-.002.16.056.198.206.197 1.01-.005 2.019-.006 3.028 0 .163.002.225-.04.222-.214-.01-.547-.01-1.095 0-1.642.003-.174-.059-.217-.222-.215-.494.01-.988.004-1.482.004z"
        clipRule="evenodd"
      ></path>
      <path
        fill="#FEFEFE"
        fillRule="evenodd"
        d="M17.047 20.642c.604-.58 1.098-1.231 1.348-2.044 1.079-.003 2.157-.01 3.236-.007.373 0 .562.201.57.58.004.193-.005.385-.008.577-.871-.05-1.639.152-2.184.896l-2.962-.002zM11.901 4.133c.494 0 .988.005 1.482-.004.163-.002.225.04.222.215a44.52 44.52 0 000 1.642c.003.174-.059.216-.222.215-1.01-.007-2.019-.006-3.028 0-.15 0-.208-.039-.206-.198a57.01 57.01 0 000-1.675c-.002-.16.056-.2.206-.198.515.007 1.03.003 1.546.003z"
        clipRule="evenodd"
      ></path>
      <path
        fill="#E7513B"
        fillOpacity="0.8"
        fillRule="evenodd"
        d="M23.245 19.748c1.021.002 2.043.005 3.064.003 1.027-.002 2 .225 2.919.677.8.393 1.593.802 2.395 1.192.277.134.393.327.392.634-.007 2.054-.003 4.108-.004 6.162 0 .45-.175.627-.621.628-.839.002-1.678.015-2.516-.003-1.027-.022-1.987.307-2.962.544-3.164.77-6.325 1.555-9.485 2.342-.689.172-1.296.032-1.904-.325-1.779-1.042-3.578-2.048-5.364-3.079-.88-.508-1.156-1.609-.645-2.492.484-.835 1.544-1.114 2.416-.62 1.41.8 2.816 1.608 4.22 2.419.201.115.397.163.612.073l9.49-3.992c-.155-.015-.228-.028-.3-.028-1.044-.001-2.088-.034-3.13.008-1.234.049-2.275-.944-2.204-2.195.687-.003 1.373-.002 2.06-.011.777-.01 1.406-.536 1.535-1.295.035-.21.022-.428.032-.642zM10.065 15.502c.708-.004 1.415-.002 2.123-.015.18-.003.21.07.208.226a59.398 59.398 0 000 1.64c.002.147-.039.19-.19.217-.878.16-1.357.747-1.362 1.637-.002.29-.007.579-.01.868-.545-.584-.816-1.296-.959-2.067-.158-.852-.021-1.682.19-2.506z"
        clipRule="evenodd"
      ></path>
      <path
        fill="#E7513B"
        fillOpacity="0.8"
        fillRule="evenodd"
        d="M10.458 14.449c.76-1.55 1.881-2.784 3.285-3.77.418-.295.5-.296.92.003 1.62 1.154 2.886 2.594 3.567 4.492.274.763.379 1.56.36 2.372-1.65.003-3.302.004-4.953.013-.174.001-.217-.056-.214-.22.008-.59.006-1.18.002-1.77-.004-.68-.426-1.105-1.102-1.11-.622-.006-1.244-.007-1.865-.01zM17.047 20.642c-1.546.003-3.092.01-4.638.007-.324 0-.518-.203-.529-.527-.01-.332-.01-.665 0-.998.01-.338.209-.533.556-.533 1.986-.002 3.972.004 5.959.007-.25.813-.744 1.464-1.348 2.044zM20.01 20.644c.544-.744 1.312-.945 2.183-.896.003.117.012.234.008.35-.015.354-.206.55-.564.553-.543.005-1.085-.004-1.628-.007z"
        clipRule="evenodd"
      ></path>
    </svg>