<svg width="10" height="12" viewBox="0 0 10 12" fill="none" xmlns="http://www.w3.org/2000/svg">
<path d="M9.18182 5.09091C9.18182 8.27273 5.09091 11 5.09091 11C5.09091 11 1 8.27273 1 5.09091C1 4.00593 1.43101 2.96539 2.1982 2.1982C2.96539 1.43101 4.00593 1 5.09091 1C6.17589 1 7.21642 1.43101 7.98362 2.1982C8.75081 2.96539 9.18182 4.00593 9.18182 5.09091Z" stroke="#212121" strokeLinecap="round" strokeLinejoin="round"/>
<path d="M5.09092 6.45457C5.84403 6.45457 6.45455 5.84405 6.45455 5.09093C6.45455 4.33782 5.84403 3.72729 5.09092 3.72729C4.3378 3.72729 3.72728 4.33782 3.72728 5.09093C3.72728 5.84405 4.3378 6.45457 5.09092 6.45457Z" stroke="#212121" strokeLinecap="round" strokeLinejoin="round"/>
</svg>
