<svg width="24" height="23" viewBox="0 0 24 23" fill="none" xmlns="http://www.w3.org/2000/svg">
<path d="M13.7744 21.0318C14.1936 21.0318 14.5312 21.3726 14.5312 21.7902C14.5312 22.2094 14.1936 22.5486 13.7744 22.5486H1.00962C0.59202 22.5486 0.251221 22.2094 0.251221 21.7902C0.251221 16.5598 4.11362 11.6046 9.50082 11.6046C9.92002 11.6046 10.2592 11.9438 10.2592 12.363C10.2592 12.7806 9.92002 13.1214 9.50082 13.1214C5.29762 13.1214 2.14242 16.8638 1.79842 21.0318H13.7744ZM12.2496 10.1406C9.48642 10.1406 7.24642 7.91344 7.24642 5.16465C7.24642 2.41585 9.48802 0.18866 12.2496 0.18866C15.0112 0.18866 17.2528 2.41585 17.2528 5.16465C17.2528 7.91344 15.0128 10.1406 12.2496 10.1406ZM12.2496 8.62544C14.1776 8.62544 15.7376 7.07504 15.7376 5.16465C15.7376 3.25425 14.1776 1.70386 12.2496 1.70386C10.3216 1.70386 8.76162 3.25425 8.76162 5.16465C8.76162 7.07504 10.3216 8.62544 12.2496 8.62544ZM19.6032 11.6254C20.7152 11.5054 21.8256 11.8766 22.6336 12.6398L22.64 12.6462C23.3472 13.331 23.7472 14.2686 23.7472 15.2462C23.7472 16.227 23.3472 17.1646 22.6416 17.8494L18.024 22.3326C17.728 22.619 17.2608 22.619 16.968 22.3326L12.352 17.851C11.6432 17.1646 11.2432 16.227 11.2432 15.2478C11.2432 14.2686 11.6432 13.331 12.3584 12.6398C13.1664 11.8766 14.2768 11.5054 15.3888 11.6254C16.1792 11.7118 16.9136 12.0382 17.496 12.5518C18.0784 12.0382 18.8128 11.7102 19.6032 11.6254ZM19.7664 13.131C19.096 13.2046 18.4944 13.5646 18.1248 14.1118C17.824 14.5582 17.168 14.5582 16.8688 14.1118C16.4992 13.5646 15.8976 13.2046 15.2272 13.131C14.5552 13.059 13.8848 13.2846 13.4064 13.7342C12.992 14.1358 12.76 14.6814 12.76 15.2478C12.76 15.8142 12.9936 16.3598 13.408 16.7614L17.4976 20.731L21.5872 16.7598C22.0032 16.3582 22.2336 15.8142 22.2336 15.2462C22.2336 14.6798 22.0016 14.139 21.5904 13.7374C21.1024 13.283 20.4352 13.059 19.7664 13.131Z" fill="#212121"/>
</svg>
