<svg width="48" height="48" viewBox="0 0 48 48" fill="none" xmlns="http://www.w3.org/2000/svg">
<path d="M24.064 0.000813679C37.3804 0.111555 48.0815 10.9312 47.9995 24.2011C47.9186 37.3312 36.9834 48.1015 23.8371 47.9993C10.5784 47.8961 -0.134677 36.979 0.00127988 23.7094C0.135343 10.6319 11.0353 -0.1076 24.064 0.000813679Z" fill="#717171"/>
<path d="M14.4096 23.8482C14.4096 22.2638 14.3963 20.6794 14.4148 19.0953C14.4254 18.1891 14.4637 17.18 15.7257 17.2433C16.9388 17.3042 16.9468 18.3024 16.9483 19.2084C16.9529 21.9665 16.9318 24.7246 16.9544 27.4823C16.9911 31.9529 19.8824 35.0069 24.0324 34.9923C28.1613 34.9778 31.0849 31.8596 31.112 27.436C31.1203 26.0865 31.1208 24.7367 31.1153 23.3872C31.1118 22.5627 31.4738 21.9654 32.3153 21.9573C33.1439 21.9493 33.5938 22.541 33.5787 23.3473C33.5359 25.6285 33.8008 27.9218 33.2797 30.186C32.2225 34.7798 27.9839 37.7785 23.0261 37.4162C18.6471 37.0962 14.8957 33.3936 14.5645 28.9457C14.4387 27.2552 14.5441 25.5476 14.5441 23.848C14.4993 23.8482 14.4544 23.8482 14.4096 23.8482Z" fill="white"/>
<path d="M29.3748 20.9128C29.3748 23.0817 29.393 25.2508 29.3705 27.4194C29.3374 30.6162 27.1157 32.996 24.1035 33.0983C21.1525 33.1987 18.6264 30.8385 18.5615 27.684C18.4687 23.1722 18.5346 18.657 18.5363 14.1433C18.5367 13.2571 18.7164 12.4197 19.8051 12.3956C20.9569 12.3701 21.0336 13.26 21.0344 14.1238C21.0381 17.9341 21.0365 21.7443 21.0369 25.5545C21.0369 25.9649 21.0311 26.3754 21.0381 26.7856C21.0795 29.2325 22.1385 30.6186 23.9653 30.6221C25.7862 30.6255 26.8822 29.2028 26.8878 26.8021C26.8974 22.6986 26.8894 18.5953 26.9075 14.492C26.9116 13.5904 26.66 12.3938 28.0738 12.3834C29.5636 12.3724 29.3658 13.6015 29.3714 14.5818C29.3832 16.6921 29.375 18.8024 29.3748 20.9128Z" fill="white"/>
<path d="M22.7046 19.5954C22.7046 17.1902 22.71 14.785 22.7017 12.3797C22.6988 11.5104 22.7462 10.6298 23.875 10.5814C25.1437 10.5267 25.1784 11.4662 25.1767 12.4044C25.1686 17.1562 25.1606 21.9081 25.1835 26.6599C25.188 27.5941 24.9772 28.4077 23.934 28.3968C22.8978 28.386 22.6838 27.562 22.6952 26.6352C22.724 24.2886 22.7047 21.942 22.7046 19.5954Z" fill="white"/>
</svg>
