<svg width="40" height="40" viewBox="0 0 40 40" fill="none" xmlns="http://www.w3.org/2000/svg">
<path opacity="0.4" d="M20 40C31.0457 40 40 31.0457 40 20C40 8.95431 31.0457 0 20 0C8.95431 0 0 8.95431 0 20C0 31.0457 8.95431 40 20 40Z" fill="#E7513B"/>
<path d="M21.4788 27.5265C21.8281 27.5265 22.1095 27.8105 22.1095 28.1585C22.1095 28.5079 21.8281 28.7905 21.4788 28.7905H10.8415C10.4935 28.7905 10.2095 28.5079 10.2095 28.1585C10.2095 23.7999 13.4281 19.6705 17.9175 19.6705C18.2668 19.6705 18.5495 19.9532 18.5495 20.3025C18.5495 20.6505 18.2668 20.9345 17.9175 20.9345C14.4148 20.9345 11.7855 24.0532 11.4988 27.5265H21.4788ZM20.2081 18.4505C17.9055 18.4505 16.0388 16.5945 16.0388 14.3039C16.0388 12.0132 17.9068 10.1572 20.2081 10.1572C22.5095 10.1572 24.3775 12.0132 24.3775 14.3039C24.3775 16.5945 22.5108 18.4505 20.2081 18.4505ZM20.2081 17.1879C21.8148 17.1879 23.1148 15.8959 23.1148 14.3039C23.1148 12.7119 21.8148 11.4199 20.2081 11.4199C18.6015 11.4199 17.3015 12.7119 17.3015 14.3039C17.3015 15.8959 18.6015 17.1879 20.2081 17.1879ZM26.3361 19.6879C27.2628 19.5879 28.1881 19.8972 28.8615 20.5332L28.8668 20.5385C29.4561 21.1092 29.7895 21.8905 29.7895 22.7052C29.7895 23.5225 29.4561 24.3039 28.8681 24.8745L25.0201 28.6105C24.7735 28.8492 24.3841 28.8492 24.1401 28.6105L20.2935 24.8759C19.7028 24.3039 19.3695 23.5225 19.3695 22.7065C19.3695 21.8905 19.7028 21.1092 20.2988 20.5332C20.9721 19.8972 21.8975 19.5879 22.8241 19.6879C23.4828 19.7599 24.0948 20.0319 24.5801 20.4599C25.0655 20.0319 25.6775 19.7585 26.3361 19.6879ZM26.4721 20.9425C25.9135 21.0039 25.4121 21.3039 25.1041 21.7599C24.8535 22.1319 24.3068 22.1319 24.0575 21.7599C23.7495 21.3039 23.2481 21.0039 22.6895 20.9425C22.1295 20.8825 21.5708 21.0705 21.1721 21.4452C20.8268 21.7799 20.6335 22.2345 20.6335 22.7065C20.6335 23.1785 20.8281 23.6332 21.1735 23.9679L24.5815 27.2759L27.9895 23.9665C28.3361 23.6319 28.5281 23.1785 28.5281 22.7052C28.5281 22.2332 28.3348 21.7825 27.9921 21.4479C27.5855 21.0692 27.0295 20.8825 26.4721 20.9425Z" fill="#E7513B"/>
</svg>
