<svg width="80" height="80" viewBox="0 0 80 80" fill="none" xmlns="http://www.w3.org/2000/svg">
<path d="M57.4 6.66666H29.8668C28.5335 6.66666 27.2667 7.13334 26.2334 7.93334L18.9334 13.7667C16.0001 16.1 16.0001 20.5333 18.9334 22.8666L26.2334 28.6999C27.2667 29.5333 28.5668 29.9666 29.8668 29.9666H57.4C60.6333 29.9666 63.2333 27.3666 63.2333 24.1333V12.4666C63.2333 9.26662 60.6333 6.66666 57.4 6.66666Z" stroke="#E7513B" stroke-width="2.5" stroke-linecap="round" stroke-linejoin="round"/>
<path d="M22.6663 40H50.1997C51.533 40 52.7998 40.4667 53.8331 41.2667L61.1331 47.1C64.0665 49.4334 64.0665 53.8666 61.1331 56.2L53.8331 62.0333C52.7998 62.8666 51.4997 63.3 50.1997 63.3H22.6663C19.433 63.3 16.833 60.7 16.833 57.4666V45.8C16.833 42.6 19.433 40 22.6663 40Z" stroke="#E7513B" stroke-width="2.5" stroke-linecap="round" stroke-linejoin="round"/>
<path d="M40 40V30" stroke="#E7513B" stroke-width="2.5" stroke-linecap="round" stroke-linejoin="round"/>
<path d="M40 73.3333V63.3333" stroke="#E7513B" stroke-width="2.5" stroke-linecap="round" stroke-linejoin="round"/>
<path d="M30 73.3333H50" stroke="#E7513B" stroke-width="2.5" stroke-linecap="round" stroke-linejoin="round"/>
</svg>
