<svg width="48" height="46" viewBox="0 0 48 46" fill="none" xmlns="http://www.w3.org/2000/svg">
<path d="M35.6 16.7H37.7C39.9278 16.7 42.0644 17.5849 43.6397 19.1603C45.215 20.7356 46.1 22.8721 46.1 25.1C46.1 27.3278 45.215 29.4643 43.6397 31.0396C42.0644 32.615 39.9278 33.5 37.7 33.5H35.6" stroke="#E7513B" strokeWidth="3" strokeLinecap="round" strokeLinejoin="round"/>
<path d="M2 16.7H35.6V35.6C35.6 37.8278 34.715 39.9643 33.1397 41.5396C31.5644 43.115 29.4278 43.9999 27.2 43.9999H10.4C8.17218 43.9999 6.03561 43.115 4.4603 41.5396C2.885 39.9643 2 37.8278 2 35.6V16.7Z" stroke="#E7513B" strokeWidth="3" strokeLinecap="round" strokeLinejoin="round"/>
<path d="M10.4 2V8.3" stroke="#E7513B" strokeWidth="3" strokeLinecap="round" strokeLinejoin="round"/>
<path d="M18.8 2V8.3" stroke="#E7513B" strokeWidth="3" strokeLinecap="round" strokeLinejoin="round"/>
<path d="M27.2 2V8.3" stroke="#E7513B" strokeWidth="3" strokeLinecap="round" strokeLinejoin="round"/>
</svg>
