<svg width="80" height="80" viewBox="0 0 80 80" fill="none" xmlns="http://www.w3.org/2000/svg">
<path d="M40 80C62.0914 80 80 62.0914 80 40C80 17.9086 62.0914 0 40 0C17.9086 0 0 17.9086 0 40C0 62.0914 17.9086 80 40 80Z" fill="#E7513B"/>
<path d="M36.0362 55.2586C35.1363 55.2601 34.2603 54.969 33.5404 54.4291L33.4957 54.3956L24.0952 47.2045C23.6592 46.871 23.2932 46.4547 23.0181 45.9796C22.743 45.5046 22.5643 44.9799 22.4921 44.4357C22.4199 43.8915 22.4557 43.3384 22.5974 42.808C22.7391 42.2776 22.984 41.7804 23.318 41.3447C23.652 40.9091 24.0686 40.5435 24.544 40.2689C25.0194 39.9943 25.5442 39.8162 26.0885 39.7446C26.6328 39.673 27.1858 39.7094 27.7161 39.8516C28.2463 39.9939 28.7433 40.2393 29.1786 40.5738L35.2675 45.2431L49.6559 26.4717C50.3297 25.5928 51.3251 25.0176 52.423 24.8726C53.521 24.7276 54.6316 25.0246 55.5105 25.6984L55.5117 25.6993L55.4225 25.8233L55.5142 25.6993C56.3922 26.3741 56.9667 27.3697 57.1115 28.4675C57.2563 29.5653 56.9596 30.6758 56.2866 31.5552L39.3627 53.6245C38.9712 54.133 38.4677 54.5444 37.8915 54.827C37.3153 55.1095 36.6817 55.2555 36.0399 55.2536L36.0362 55.2586Z" fill="white"/>
</svg>
