<svg width="17" height="20" viewBox="0 0 17 20" fill="none" xmlns="http://www.w3.org/2000/svg">
<path fillRule="evenodd" clipRule="evenodd" d="M7.99058 0.0598057C7.91536 0.0923932 7.80388 0.166438 7.74289 0.224345C7.52955 0.426825 7.50368 0.518492 7.48262 1.14617L7.46308 1.72829L7.1054 1.80046C6.41536 1.93968 5.67065 2.2561 5.02097 2.68615C4.56338 2.98901 3.77695 3.7797 3.46318 4.25234C3.04908 4.87619 2.75271 5.5726 2.58844 6.30793C2.5185 6.62099 2.50674 6.86555 2.4811 8.53513C2.4493 10.6073 2.42859 10.82 2.18739 11.5494C1.89117 12.4452 1.44745 13.1452 0.71079 13.8789C0.0722083 14.515 0 14.6509 0 15.2167C0 15.5634 0.0120347 15.632 0.106906 15.8252C0.313645 16.2461 0.721614 16.5547 1.18729 16.6424C1.49035 16.6994 15.1245 16.6967 15.4367 16.6395C15.8853 16.5574 16.2934 16.2447 16.4994 15.8252C16.5943 15.632 16.6063 15.5634 16.6063 15.2167C16.6063 14.6549 16.5287 14.5053 15.9306 13.9153C15.4228 13.4142 15.1939 13.132 14.9204 12.6693C14.58 12.0936 14.3472 11.4646 14.2216 10.7819C14.1661 10.4798 14.1481 10.0616 14.125 8.53513C14.0998 6.86301 14.0882 6.62146 14.018 6.30793C13.7579 5.14533 13.2622 4.24808 12.4085 3.39432C11.5655 2.55126 10.6006 2.02232 9.50093 1.80046L9.14325 1.72829L9.12372 1.14617C9.10266 0.518492 9.07679 0.426903 8.86345 0.224267C8.63424 0.00654817 8.2714 -0.0618309 7.99058 0.0598057ZM5.25542 17.56C5.25542 17.6896 5.49959 18.2734 5.66241 18.5333C6.33444 19.6059 7.6377 20.1831 8.85653 19.9479C9.71396 19.7825 10.4286 19.3068 10.9133 18.5786C11.0858 18.3195 11.3469 17.7165 11.3496 17.5709C11.3508 17.5064 11.1802 17.5026 8.30317 17.5026C5.64662 17.5026 5.25542 17.5099 5.25542 17.56Z" fill="#E7513B"/>
</svg>
