<svg width="24" height="26" viewBox="0 0 24 26" fill="none" xmlns="http://www.w3.org/2000/svg">
<rect width="24" height="24" fill="white"/>
<path d="M10.07 4.82003L3.14002 10.37C2.36002 10.99 1.86002 12.3 2.03002 13.28L3.36002 21.24C3.60002 22.66 4.96002 23.81 6.40002 23.81H17.6C19.03 23.81 20.4 22.65 20.64 21.24L21.97 13.28C22.13 12.3 21.63 10.99 20.86 10.37L13.93 4.83004C12.86 3.97004 11.13 3.97003 10.07 4.82003Z" stroke="#E7513B" strokeWidth="1.5" strokeLinecap="round" strokeLinejoin="round"/>
<path d="M12 17.5C13.3807 17.5 14.5 16.3807 14.5 15C14.5 13.6193 13.3807 12.5 12 12.5C10.6193 12.5 9.5 13.6193 9.5 15C9.5 16.3807 10.6193 17.5 12 17.5Z" stroke="#E7513B" strokeWidth="1.5" strokeLinecap="round" strokeLinejoin="round"/>
</svg>
