<svg width="13" height="15" viewBox="0 0 13 15" fill="none" xmlns="http://www.w3.org/2000/svg">
<path d="M10.2938 5C11.305 5 12.1248 4.16053 12.1248 3.125C12.1248 2.08947 11.305 1.25 10.2938 1.25C9.28263 1.25 8.46289 2.08947 8.46289 3.125C8.46289 4.16053 9.28263 5 10.2938 5Z" stroke="#E7513B" strokeWidth="1.5" strokeLinecap="round" strokeLinejoin="round"/>
<path d="M2.9701 9.375C3.9813 9.375 4.80104 8.53553 4.80104 7.5C4.80104 6.46447 3.9813 5.625 2.9701 5.625C1.9589 5.625 1.13916 6.46447 1.13916 7.5C1.13916 8.53553 1.9589 9.375 2.9701 9.375Z" stroke="#E7513B" strokeWidth="1.5" strokeLinecap="round" strokeLinejoin="round"/>
<path d="M10.2938 13.75C11.305 13.75 12.1248 12.9105 12.1248 11.875C12.1248 10.8395 11.305 10 10.2938 10C9.28263 10 8.46289 10.8395 8.46289 11.875C8.46289 12.9105 9.28263 13.75 10.2938 13.75Z" stroke="#E7513B" strokeWidth="1.5" strokeLinecap="round" strokeLinejoin="round"/>
<path d="M4.55054 8.44385L8.71898 10.9313" stroke="#E7513B" strokeWidth="1.5" strokeLinecap="round" strokeLinejoin="round"/>
<path d="M8.71287 4.06885L4.55054 6.55635" stroke="#E7513B" strokeWidth="1.5" strokeLinecap="round" strokeLinejoin="round"/>
</svg>
