<svg width="146" height="146" viewBox="0 0 146 146" fill="none" xmlns="http://www.w3.org/2000/svg">
<path fillRule="evenodd" clipRule="evenodd" d="M66.0696 0.177263C43.2258 2.55272 23.2054 14.9849 11.0435 34.3474C-6.20014 61.8005 -2.98185 98.0589 18.8189 121.944C30.884 135.162 45.973 143.065 64.0677 145.643C67.4459 146.124 78.6724 146.118 82.1994 145.633C98.7254 143.361 113.526 136.031 124.782 124.545C128.477 120.775 129.264 119.873 131.714 116.605C139.016 106.866 143.797 94.9934 145.642 82.0176C146.119 78.6558 146.119 67.3774 145.641 64.0174C144.411 55.3673 142.173 47.9972 138.584 40.7689C134.78 33.1105 130.877 27.6507 124.802 21.4904C113.532 10.0625 99.421 2.96358 83.1987 0.560125C79.6961 0.0409762 69.5583 -0.185312 66.0696 0.177263ZM88.6211 32.6599C89.2467 37.5177 90.7878 41.2866 93.4747 44.5303C96.9719 48.7527 102.156 51.4747 107.803 52.0538L109.611 52.239V58.9922V65.7454L106.917 65.5483C105.435 65.44 103.5 65.2011 102.617 65.0177C98.7248 64.2091 93.7545 62.0968 90.4243 59.8356C89.53 59.2285 88.7362 58.7316 88.6605 58.7316C88.5848 58.7316 88.5457 66.2854 88.5734 75.5175C88.6234 92.1371 88.6174 92.3288 87.9724 94.8749C85.6084 104.203 78.4537 111.456 69.2074 113.898C65.779 114.803 60.8035 114.941 57.3548 114.226C47.0497 112.09 39.0581 104.228 36.9374 94.1397C36.3846 91.5114 36.3963 86.4274 36.9608 83.6485C37.4551 81.2167 38.8114 77.8344 40.2736 75.3867C41.5266 73.2895 45.0258 69.5723 47.1985 68.0303C52.1714 64.5008 58.9226 62.6002 64.496 63.1602L66.4948 63.3611V70.3092V77.2572L65.4309 76.9632C64.8458 76.8015 63.2074 76.7227 61.7903 76.7878C58.5249 76.9378 56.0721 78.019 53.8344 80.2941C46.7231 87.5245 50.7703 99.5444 60.8412 101.104C67.418 102.123 73.8186 97.2898 74.7665 90.5891C74.9381 89.3774 75.0518 77.299 75.0552 59.9459L75.0609 31.3027H81.7536H88.4461L88.6211 32.6599Z" fill="#717171"/>
</svg>
