<svg width="22" height="21" viewBox="0 0 22 21" fill="none" xmlns="http://www.w3.org/2000/svg">
<path d="M16.54 12.5043C16.12 12.9143 15.88 13.5043 15.94 14.1343C16.03 15.2143 17.02 16.0043 18.1 16.0043H20V17.1943C20 19.2643 18.31 20.9543 16.24 20.9543H4.76C2.69 20.9543 1 19.2643 1 17.1943V10.4644C1 8.39436 2.69 6.70435 4.76 6.70435H16.24C18.31 6.70435 20 8.39436 20 10.4644V11.9044H17.98C17.42 11.9044 16.91 12.1243 16.54 12.5043Z" fill="#E7513B"/>
<path d="M1 11.3644V6.79445C1 5.60445 1.73 4.54441 2.84 4.12441L10.78 1.12441C12.02 0.654406 13.35 1.57444 13.35 2.90444V6.70442" stroke="#E7513B" strokeWidth="1.5" strokeLinecap="round" strokeLinejoin="round"/>
<path d="M21.0588 12.9245V14.9846C21.0588 15.5346 20.6188 15.9845 20.0588 16.0045H18.0988C17.0188 16.0045 16.0288 15.2145 15.9388 14.1345C15.8788 13.5045 16.1188 12.9145 16.5388 12.5045C16.9088 12.1245 17.4188 11.9045 17.9788 11.9045H20.0588C20.6188 11.9245 21.0588 12.3745 21.0588 12.9245Z" stroke="#E7513B" strokeWidth="1.5" strokeLinecap="round" strokeLinejoin="round"/>
<path d="M5.5 10.9543H12.5" stroke="white" strokeWidth="1.5" strokeLinecap="round" strokeLinejoin="round"/>
</svg>
