<svg width="46" height="46" viewBox="0 0 46 46" fill="none" xmlns="http://www.w3.org/2000/svg">
<path d="M39.8 23V44H6.20001V23" stroke="#E7513B" strokeWidth="3" strokeLinecap="round" strokeLinejoin="round"/>
<path d="M44 12.5H2V23H44V12.5Z" stroke="#E7513B" strokeWidth="3" strokeLinecap="round" strokeLinejoin="round"/>
<path d="M23 44V12.5" stroke="#E7513B" strokeWidth="3" strokeLinecap="round" strokeLinejoin="round"/>
<path d="M23 12.5H13.55C12.1576 12.5 10.8222 11.9469 9.83768 10.9623C8.85311 9.97774 8.29999 8.64239 8.29999 7.25C8.29999 5.85761 8.85311 4.52226 9.83768 3.53769C10.8222 2.55312 12.1576 2 13.55 2C20.9 2 23 12.5 23 12.5Z" stroke="#E7513B" strokeWidth="3" strokeLinecap="round" strokeLinejoin="round"/>
<path d="M23 12.5H32.45C33.8424 12.5 35.1777 11.9469 36.1623 10.9623C37.1469 9.97774 37.7 8.64239 37.7 7.25C37.7 5.85761 37.1469 4.52226 36.1623 3.53769C35.1777 2.55312 33.8424 2 32.45 2C25.1 2 23 12.5 23 12.5Z" stroke="#E7513B" strokeWidth="3" strokeLinecap="round" strokeLinejoin="round"/>
</svg>
