<svg width="54" height="27" viewBox="0 0 54 27" fill="none" xmlns="http://www.w3.org/2000/svg">
<path fillRule="evenodd" clipRule="evenodd" d="M1.79699 3.5773C1.15655 3.83272 0.718957 4.27031 0.318342 5.05523C-0.0126634 5.70364 -0.0278904 6.14668 0.0203284 13.7707L0.071085 21.8029L0.579014 22.4686C1.52744 23.7115 1.25734 23.6776 10.1865 23.6776H18.2354L18.847 23.2654C19.1835 23.0388 19.6443 22.578 19.8709 22.2416L20.2831 21.63V13.5263V5.42267L19.8709 4.81105C19.6443 4.47461 19.1835 4.01381 18.847 3.78722L18.2354 3.375L10.2409 3.38642C5.42156 3.39349 2.06781 3.46926 1.79699 3.5773ZM6.26793 5.01806C7.53086 5.49518 8.26665 6.78856 8.03969 8.13253C7.92749 8.79635 7.61932 9.19135 5.64489 11.2022L3.37897 13.51L5.49117 15.7368C7.92313 18.3007 8.19069 18.8425 7.68277 20.1731C7.29937 21.1766 6.46461 21.8167 5.19098 22.0839C3.95487 22.3431 3.14947 22.1415 2.62741 21.4422C2.25453 20.943 2.24637 20.7702 2.24637 13.4415C2.24637 6.20613 2.2587 5.93712 2.60892 5.54793C2.80832 5.32623 3.13461 5.07825 3.33401 4.99649C3.8617 4.7806 5.67462 4.79383 6.26793 5.01806ZM12.4372 5.30067C13.5905 6.15501 14.0168 7.38151 13.5696 8.55798C13.4665 8.82934 12.4468 10.0216 11.3037 11.2071C10.1606 12.3928 9.2254 13.4328 9.2254 13.5182C9.2254 13.6037 11.0311 15.5192 13.2381 17.7748C15.4451 20.0304 17.1924 21.9347 17.1208 22.0063C17.0492 22.0781 15.2736 22.1633 13.175 22.1956L9.35937 22.2543L9.46378 21.833C9.52124 21.6013 9.69853 20.9631 9.85787 20.4147C10.4214 18.4738 9.8934 16.9499 7.94761 14.9013L6.63065 13.5149L7.07568 13.0222C7.3204 12.751 8.00888 11.9946 8.60563 11.3411C9.26311 10.6211 9.77756 9.86278 9.91116 9.41667C10.2503 8.28443 10.1823 6.4949 9.76487 5.57512L9.40613 4.78422L10.6694 4.85564C11.5792 4.90712 12.0741 5.03166 12.4372 5.30067ZM17.5986 5.5298L18.1078 6.09991L18.0989 12.8495L18.09 19.599L15.1986 16.6265C13.6082 14.9916 12.3071 13.5963 12.3071 13.5261C12.3071 13.4558 12.9613 12.6992 13.7607 11.8447C14.5603 10.9899 15.3307 10.0129 15.4726 9.67299C16.0331 8.33175 15.9695 6.70971 15.2943 5.1165C15.1594 4.79854 15.2199 4.78023 16.1191 4.8667C16.9158 4.9432 17.1804 5.06193 17.5986 5.5298ZM22.4584 13.5379V22.0696L26.859 22.0125L31.2596 21.9555L32.477 21.3557C34.4272 20.395 35.2597 18.8705 35.1084 16.5378C35.0136 15.0775 34.705 14.3687 33.6805 13.2571C33.048 12.5708 33.0009 12.4592 33.2559 12.2476C33.8541 11.7511 34.2413 10.6675 34.2372 9.50024C34.2321 8.06836 33.8074 7.09691 32.8149 6.24728C31.5453 5.16036 30.7411 5.00646 26.3349 5.00646H22.4584V13.5379ZM36.4165 13.5263V22.0462H37.9573H39.4981V18.8739V15.7016H40.4703H41.4423L43.6571 18.8739L45.8719 22.0462H47.7821H49.6924L49.251 21.457C48.4746 20.4211 45.1176 15.5667 45.1176 15.4799C45.1176 15.434 45.4562 15.295 45.8699 15.171C46.9566 14.8455 48.418 13.3278 48.8252 12.1019C49.5481 9.92514 48.8971 7.34834 47.3202 6.14577C46.0076 5.14459 45.1876 5.00646 40.5528 5.00646H36.4165V13.5263ZM50.7371 13.5263V22.0462H52.3685H54V13.5263V5.00646H52.3685H50.7371V13.5263ZM30.5662 8.54619C31.1437 9.12373 31.197 9.26077 31.118 9.96303C31.0698 10.3907 30.8869 10.9595 30.7116 11.227L30.3927 11.7136H27.9664H25.54V9.81021V7.90684H27.7334H29.9269L30.5662 8.54619ZM45.2225 8.67454C45.7549 9.25588 45.8427 9.47957 45.8427 10.2545C45.8427 11.0048 45.7482 11.2648 45.2824 11.7953C44.5538 12.625 43.7557 12.8264 41.4492 12.7623L39.5887 12.7106L39.538 10.2949L39.4874 7.87929L42.045 7.93838L44.6026 7.99748L45.2225 8.67454ZM30.7796 14.8433C32.0432 15.4926 32.3766 17.2529 31.4242 18.2471C30.7304 18.9712 29.9919 19.1436 27.5794 19.1447L25.54 19.1458V16.8799V14.614L27.9419 14.6167C29.4871 14.6183 30.4991 14.6992 30.7796 14.8433Z" fill="#00529C"/>
</svg>
