<svg width="54" height="14" viewBox="0 0 54 14" fill="none" xmlns="http://www.w3.org/2000/svg">
<path fillRule="evenodd" clipRule="evenodd" d="M45.5823 0.0448105L47.3732 0.761038L49.7015 0L45.5823 0.0448105Z" fill="#D7042F"/>
<path fillRule="evenodd" clipRule="evenodd" d="M45.3582 0.313291C45.7474 0.519197 46.8254 0.962117 47.0598 1.20876L47.3731 0.805836V0.761026L45.5822 0.0447982L45.4407 0.0422058L45.3582 0.313291Z" fill="#AD222D"/>
<path fillRule="evenodd" clipRule="evenodd" d="M47.3733 0.761038V0.805849L47.8658 1.16396L50.1045 0.358114L49.836 0H49.7016L47.3733 0.761038Z" fill="#DC4958"/>
<path fillRule="evenodd" clipRule="evenodd" d="M51.5821 4.29848L53.9104 4.25367L50.6418 2.77603L51.5821 4.29848Z" fill="#7EB033"/>
<path fillRule="evenodd" clipRule="evenodd" d="M42.1345 4.34328L43.657 4.4329L44.8657 2.95526L42.1345 4.34328Z" fill="#0096B7"/>
<path fillRule="evenodd" clipRule="evenodd" d="M50.2837 2.91046L51.0447 4.65659L51.5821 4.34329V4.29848L50.6418 2.77603L50.2837 2.91046Z" fill="#5A891D"/>
<path fillRule="evenodd" clipRule="evenodd" d="M44.8658 2.95526L43.657 4.43289V4.47733L44.2388 4.70139L45.4031 3.13413L44.9983 2.8623L44.8658 2.95526Z" fill="#29B5E4"/>
<path fillRule="evenodd" clipRule="evenodd" d="M51.582 4.29847V4.34328L51.7165 4.92545L53.9999 4.74621L53.9977 4.30218L53.9103 4.25366L51.582 4.29847Z" fill="#A1C24A"/>
<path fillRule="evenodd" clipRule="evenodd" d="M42.0897 4.6566L43.6569 4.92546V4.43291L42.1345 4.34329L42.0393 4.38847L42.0897 4.6566Z" fill="#00738F"/>
<path fillRule="evenodd" clipRule="evenodd" d="M48.0895 13.2984L48.1792 13.0747L51.0448 4.65659L50.2838 2.91046C50.2012 3.04045 49.1972 7.58964 49.1157 8.10033C48.9843 8.921 48.7002 9.84868 48.534 10.6979C48.444 11.1567 47.9033 13.0302 48.0895 13.2984Z" fill="#39772F"/>
<path fillRule="evenodd" clipRule="evenodd" d="M47.0598 1.20877L47.8657 7.11932V1.16396L47.3731 0.805847L47.0598 1.20877Z" fill="#D2072E"/>
<path fillRule="evenodd" clipRule="evenodd" d="M47.8657 7.34336V7.11931L47.0598 1.20876C46.8254 0.96212 45.7474 0.5192 45.3582 0.313293L47.7346 7.29003L47.8657 7.34336Z" fill="#731C18"/>
<path fillRule="evenodd" clipRule="evenodd" d="M47.8657 1.16397V7.34338C48.0883 7.473 48.1764 6.87898 48.2416 6.64456C48.3305 6.32755 48.4194 6.07572 48.5105 5.74909C48.6827 5.13285 48.873 4.58327 49.0478 3.95815C49.2197 3.34191 49.4093 2.79159 49.5852 2.16721C49.7122 1.71577 50.0714 0.754752 50.1044 0.358124L47.8657 1.16397Z" fill="#B12130"/>
<path fillRule="evenodd" clipRule="evenodd" d="M43.657 4.92546L47.3733 10.5671L44.2388 4.70141L43.657 4.47736V4.92546Z" fill="#0094B5"/>
<path fillRule="evenodd" clipRule="evenodd" d="M8.01514 12.4029L7.96329 12.9843L7.49037 13.1973L7.47778 13.3432H9.44796V13.1639C9.04948 13.1639 8.8658 13.0232 8.8658 12.6269V11.0597C8.8658 10.6427 9.09244 9.98498 9.49277 9.98498C9.74275 9.98498 9.61165 10.4327 9.8957 10.4327H10.1194C10.3408 10.4327 10.5227 10.2512 10.5227 10.0298V9.98498C10.5227 9.72352 10.2916 9.49243 10.0301 9.49243H9.85089C9.28835 9.49243 9.10948 9.9735 8.8658 10.2535V9.49243L7.47778 9.58205V9.76129H7.65665C7.88774 9.76129 8.01514 9.94757 8.01514 10.1642V12.4029Z" fill="#343434"/>
<path fillRule="evenodd" clipRule="evenodd" d="M47.5076 10.8804L47.3732 10.5671L43.6569 4.92545L42.0896 4.65659C42.7895 5.70167 43.9839 6.76416 44.7582 7.80888C45.0608 8.21698 47.2269 10.8153 47.5076 10.8804Z" fill="#005471"/>
<path fillRule="evenodd" clipRule="evenodd" d="M44.2388 4.70141L47.3733 10.5671L47.5077 10.8804C47.5877 10.8516 47.6418 10.8479 47.6418 10.7016C47.6418 10.559 45.5472 3.4345 45.4031 3.13416L44.2388 4.70141Z" fill="#00738F"/>
<path fillRule="evenodd" clipRule="evenodd" d="M21.1343 9.80574H21.5376V12.4477C21.5376 13.0821 21.802 13.4328 22.433 13.4328C22.7178 13.4328 23.4181 13.2617 23.4181 13.0747C23.4181 12.9799 23.4018 13.0154 23.3733 12.8954C23.2352 12.9684 23.0608 13.1195 22.8808 13.1195C22.5901 13.1195 22.433 12.8317 22.433 12.5373V9.80574H23.2837V9.58206H22.433V8.41772H22.209C21.9923 8.41772 21.9879 9.58206 21.2687 9.58206H21.1343V9.80574Z" fill="#343434"/>
<path fillRule="evenodd" clipRule="evenodd" d="M51.0448 4.6566L48.1792 13.0747L51.7166 4.92546L51.5822 4.34329L51.0448 4.6566Z" fill="#7CAD31"/>
<path fillRule="evenodd" clipRule="evenodd" d="M1.47764 8.19402H2.14942C2.6453 8.19402 3.04489 8.76878 3.04489 9.31318V9.80572C3.04489 10.4386 2.53235 10.8804 1.88056 10.8804H1.47764V8.19402ZM3.98517 9.44761C3.98517 8.46844 3.28413 7.96997 2.32867 7.96997H0.0448105V8.14921C0.381815 8.14921 0.626977 8.26735 0.626977 8.59695V12.7162C0.626977 13.0062 0.425885 13.1195 0.134432 13.1195H0V13.3432H2.10461V13.1195H1.97018C1.61577 13.1195 1.47764 12.9813 1.47764 12.6269V11.0597H2.19423C3.28376 11.0597 3.98517 10.5556 3.98517 9.44761Z" fill="#343434"/>
<path fillRule="evenodd" clipRule="evenodd" d="M15.3138 9.80573H15.3583C15.8134 9.80573 15.8956 10.2827 15.8956 10.746V12.8058C15.8956 13.0947 15.6945 13.1639 15.4031 13.1639V13.3432H17.3284V13.1639H17.1944C16.1397 13.1639 17.5651 9.49243 15.8956 9.49243H15.5375C15.0898 9.49243 14.5446 9.85795 14.4628 10.1642H14.3732C14.3002 9.85092 14.0113 9.49243 13.6569 9.49243H13.1196C12.6326 9.49243 12.3682 9.99275 12.1345 10.1642V9.49243L10.7465 9.58205V9.76129H10.8809C11.1709 9.76129 11.2838 9.96239 11.2838 10.2535V12.5821C11.2838 12.8125 11.2331 13.1195 11.015 13.1195H10.7017V13.3432H12.6718V13.1639H12.5374C12.14 13.1639 12.1345 12.7988 12.1345 12.4029V11.1045C12.1345 10.4583 12.4074 9.80573 13.03 9.80573C13.3521 9.80573 13.5673 10.152 13.5673 10.4775V12.8058C13.5673 13.0947 13.3662 13.1639 13.0748 13.1639V13.3432H15.0001V13.1195H14.7765C14.562 13.1195 14.4628 12.9677 14.4628 12.761V10.7908C14.4628 10.3579 14.849 9.80573 15.3138 9.80573Z" fill="#343434"/>
<path fillRule="evenodd" clipRule="evenodd" d="M28.8805 10.5671H29.9552C30.6403 10.5671 31.2088 11.0626 31.2088 11.7311V11.9103C31.2088 12.6836 30.63 13.1639 29.8656 13.1639H28.8805V10.5671ZM28.8805 8.14921H29.776C30.4774 8.14921 31.0299 8.47511 31.0299 9.17911V9.31318C31.0299 10.0809 30.3722 10.3879 29.5971 10.3879H28.8805V8.14921ZM29.9552 7.96997H27.7166V8.1044H27.8954C28.1121 8.1044 28.2539 8.24587 28.2539 8.46252V12.8954C28.2539 13.1217 27.9673 13.2087 27.7166 13.2087V13.2983H30.2241C31.1081 13.2983 31.8806 12.8776 31.8806 12V11.7759C31.8806 10.9656 31.0751 10.4775 30.2685 10.4775C30.6022 10.1875 31.7014 10.4234 31.7014 9.17911V9.04468C31.7014 8.30364 30.7381 7.96997 29.9552 7.96997Z" fill="#343434"/>
<path fillRule="evenodd" clipRule="evenodd" d="M51.7164 4.92546L48.179 13.0747L48.0894 13.2984C48.3756 13.465 48.8089 12.6221 48.9493 12.4118C49.2015 12.0333 49.4174 11.6844 49.6744 11.3015C50.1732 10.5586 50.6184 9.8635 51.1161 9.11617C52.0919 7.65075 53.0274 6.19867 53.9999 4.74622L51.7164 4.92546Z" fill="#6B8F16"/>
<path fillRule="evenodd" clipRule="evenodd" d="M18.4032 12.1344C18.4032 11.5967 18.9831 11.2834 19.5227 11.2834H19.7912V12.1788C19.7912 12.6566 19.4283 13.1195 18.9405 13.1195C18.6476 13.1195 18.4032 12.7262 18.4032 12.4029V12.1344ZM18.3135 10.746C18.9239 10.746 18.3447 9.62686 19.2538 9.62686H19.2986C19.6208 9.62686 19.7912 9.93054 19.7912 10.2535V11.1045C18.7698 11.1045 17.4629 11.326 17.4629 12.3133V12.4029C17.4629 13.0347 17.8566 13.3061 18.4376 13.3987C19.2886 13.5339 19.4697 12.9932 19.836 12.8954C19.8438 13.2454 20.1549 13.3432 20.5078 13.3432H21.1344V13.1639C20.6133 13.1639 20.6411 12.8691 20.6418 12.3581C20.643 11.9252 20.6418 11.4926 20.6418 11.0597C20.6418 10.0735 20.6 9.49243 19.6123 9.49243H19.1198C18.5098 9.49243 17.7318 9.80277 17.7318 10.3879V10.4775C17.7318 10.6616 17.9777 10.746 18.1795 10.746H18.3135Z" fill="#343434"/>
<path fillRule="evenodd" clipRule="evenodd" d="M24.5821 12.1344C24.5821 11.5537 25.1998 11.2834 25.7913 11.2834H25.9701V12C25.9701 12.5866 25.692 13.1195 25.1195 13.1195C24.8688 13.1195 24.5821 12.7492 24.5821 12.4925V12.1344ZM24.5373 10.746C25.0373 10.746 24.5518 9.62686 25.4328 9.62686H25.4776C25.8613 9.62686 25.9701 10.0357 25.9701 10.4327V11.1045H25.7016C24.5899 11.1045 23.6418 11.3993 23.6418 12.5373C23.6418 12.9362 24.1725 13.4328 24.5821 13.4328H24.7166C25.3817 13.4328 25.5835 13.1543 25.9701 12.8954C25.9975 13.225 26.3297 13.3432 26.6867 13.3432H27.3137V13.1639C26.7634 13.1639 26.8204 12.8832 26.8212 12.3581C26.8215 11.9403 26.8212 11.5222 26.8212 11.1045C26.8212 10.5827 26.8867 10.2887 26.6864 9.94054C26.5519 9.70649 26.239 9.49243 25.8809 9.49243H25.2987C24.6903 9.49243 23.8659 9.83795 23.8659 10.3879C23.8659 10.6949 24.1436 10.746 24.4481 10.746H24.5373Z" fill="#343434"/>
<path fillRule="evenodd" clipRule="evenodd" d="M32.8656 12.4029C32.8656 11.4652 33.7718 11.1941 34.7014 11.1941V11.7759C34.7014 12.5132 34.2847 13.1639 33.5822 13.1639H33.4926C33.1474 13.1639 32.8656 12.7632 32.8656 12.4029ZM43.1898 9.87646C43.4342 9.73277 43.6027 9.82868 43.6568 9.62685H42.0447V9.71647C42.2573 9.71647 42.5373 9.79906 42.5373 9.98497C42.5373 10.2323 41.1611 11.737 41.0148 11.7759V9.31318L41.0689 7.9259L39.9849 7.96997V8.1044H40.2538C40.3986 8.1044 40.4775 8.26698 40.4775 8.41771V12.8506C40.4775 13.0673 40.336 13.2087 40.1194 13.2087H39.7612C38.7436 13.2087 40.3397 9.49242 38.3284 9.49242C37.2148 9.49242 37.3341 10.0216 36.8956 10.3431V9.53723L35.8664 9.59426L35.8657 9.71647C36.2042 9.72388 36.3582 9.86461 36.3582 10.209V12.8058C36.3582 13.0495 36.199 13.2087 35.9553 13.2087H35.5968C35.398 13.2087 35.318 13.1036 35.2387 12.985C35.2387 12.224 35.235 11.4622 35.2391 10.7012C35.2432 9.88942 35.0213 9.49242 34.2088 9.49242H33.8955C33.3096 9.49242 32.5075 9.78498 32.5075 10.2983V10.4327C32.5075 10.536 32.5386 10.5671 32.6416 10.5671H32.9552C33.0556 10.5671 33.0534 10.5316 33.1341 10.4775C33.1341 9.93904 33.3304 9.58204 33.8507 9.58204C34.4436 9.58204 34.7014 9.84202 34.7014 10.4327V10.7016L34.6514 11.1037L34.4329 11.1045C33.6044 11.1045 32.2834 11.4167 32.2834 12.1788V12.5821C32.2834 12.9102 32.7164 13.3432 33.0449 13.3432H33.6267C34.0581 13.3432 34.4503 12.8399 34.7014 12.6714C34.7014 13.1139 34.7525 13.3432 35.1939 13.3432H37.4774V13.2087H37.2985C37.0145 13.2087 36.8956 12.9528 36.8956 12.6714V11.1493C36.8956 10.5231 37.3152 9.71647 37.9255 9.71647H38.194C38.6754 9.71647 38.8658 10.3312 38.8658 10.8356V12.3133C38.8658 12.724 38.8684 13.2087 38.4625 13.2087H38.2836V13.3432H41.597V13.2087H41.4178C41.1337 13.2087 41.0148 12.9528 41.0148 12.6714V12.134C41.0148 11.997 41.5618 11.4063 41.6866 11.373L42.8365 13.325L43.7909 13.3432V13.2087C43.2579 13.1643 43.0439 12.5777 42.788 12.197C42.6847 12.0429 42.0447 11.0682 42.0447 10.9701C42.0447 10.9697 42.6817 10.2635 42.7491 10.1968C42.8813 10.0668 43.0206 9.97571 43.1898 9.87646Z" fill="#343434"/>
<path fillRule="evenodd" clipRule="evenodd" d="M4.92546 10.9701C4.92546 10.4227 5.22581 9.62686 5.73131 9.62686C6.28385 9.62686 6.44791 10.5012 6.44791 11.1045H4.92546V10.9701ZM5.86574 13.1195C5.19396 13.1195 4.88065 12.0174 4.88065 11.2834H7.34338V11.1493C7.34338 10.1783 6.78825 9.49243 5.82093 9.49243H5.68687C3.36154 9.49243 3.33228 13.388 5.68687 13.388H6.00018C6.54457 13.388 7.29857 12.8436 7.29857 12.4477C7.29857 12.3559 7.20636 12.3655 7.1197 12.3581C7.03378 12.6788 6.55716 13.1195 6.13461 13.1195H5.86574Z" fill="#343434"/>
</svg>
