<svg width="54" height="17" viewBox="0 0 54 17" fill="none" xmlns="http://www.w3.org/2000/svg">
<g clip-path="url(#clip0_5401_20089)">
<path fillRule="evenodd" clipRule="evenodd" d="M0 6.3896L4.55542 12.1363L0 15.9113V6.3896ZM1.83317 15.9113L5.26119 13.0437L7.63039 15.9113H1.83317ZM0 3.31462L1.1884 4.81845L6.07663 10.9264L7.66074 9.66527C7.66074 9.66527 6.34591 8.1172 5.46283 6.3896C3.7365 3.01215 4.95871 0.909062 4.95871 0.909062H0V3.31462ZM6.77323 11.8695L8.38673 10.537C8.38673 10.537 9.92722 12.5648 11.7136 13.0437C14.0547 13.6711 15.0911 12.1366 15.0911 12.1366V15.9113H9.94935L11.1087 14.9088C11.1087 14.9088 10.5037 15.3121 9.02423 14.2874C8.15127 13.6824 6.77355 11.8695 6.77355 11.8695H6.77323ZM6.92178 0.898315C6.92178 0.898315 6.40723 1.59934 6.77323 3.31462C7.16515 5.14778 8.72208 7.08841 8.7186 7.04479C8.7186 7.04479 8.81847 5.11807 9.94935 3.98752C12.3593 1.57753 15.0911 3.01215 15.0911 3.01215V0.909378L6.92178 0.898315Z" fill="#F15A23"/>
<path fillRule="evenodd" clipRule="evenodd" d="M15.0911 5.55296C15.0911 5.55296 13.567 4.24762 12.2417 4.24762C10.5467 4.24762 9.62158 5.71099 9.62158 6.77233C9.62158 8.31851 10.3637 9.17757 11.1087 9.92253C12.1792 10.993 13.4817 12.1476 15.0911 11.2184V5.55296Z" fill="#F15A23"/>
<path fillRule="evenodd" clipRule="evenodd" d="M32.4482 1.05574H36.045C36.045 1.05574 39.2309 5.87981 40.7967 7.87322C42.3625 9.86599 44.0477 12.1363 44.0477 12.1363V2.13604C44.0477 1.70398 42.9137 1.05574 42.9137 1.05574H47.0611C47.0611 1.05574 45.7004 1.61485 45.7004 2.13604V16.6841C45.7004 16.6841 44.3944 15.96 42.9137 14.2394C41.2502 12.3063 35.332 4.50146 35.332 4.50146V14.6104C35.332 15.1281 36.466 15.9113 36.466 15.9113H32.4482C32.4482 15.9113 33.55 15.1218 33.55 14.6104V2.13604C33.55 1.6768 32.4482 1.05574 32.4482 1.05574ZM49.3838 1.05574H53.9999C53.9999 1.05574 52.7603 1.64267 52.7603 2.13604V14.6104C52.7603 15.1493 53.9999 15.9113 53.9999 15.9113H49.3838C49.3838 15.9113 50.5381 15.1322 50.5381 14.6104V2.13604C50.5381 1.66194 49.3838 1.05574 49.3838 1.05574ZM18.8679 1.05574C18.8679 1.05574 20.0645 1.65246 20.0645 2.13604V14.6104C20.0645 15.1408 18.8679 15.9113 18.8679 15.9113H25.7063C26.1336 15.9113 30.9204 15.1284 30.9204 11.4381C30.9204 7.74774 27.2022 7.40197 27.2022 7.40197C27.2022 7.40197 29.4674 6.77237 29.4674 4.24766C29.4674 1.52572 26.1336 1.05542 25.7063 1.05542H18.8679V1.05574ZM22.5004 7.15733V2.5131H25.2786C25.7059 2.5131 27.2019 3.01217 27.2019 4.86366C27.2019 6.38962 25.7059 7.15733 25.2783 7.15733H22.5001H22.5004ZM22.5004 8.37544H25.7059C26.1333 8.37544 28.6548 9.03064 28.6548 11.2184C28.6548 13.4489 26.1333 14.2394 25.7059 14.2394H22.5004V8.37544Z" fill="#005E6A"/>
</g>
<defs>
<clipPath id="clip0_5401_20089">
<rect width="54" height="16.9344" fill="white"/>
</clipPath>
</defs>
</svg>
