<svg width="54" height="17" viewBox="0 0 54 17" fill="none" xmlns="http://www.w3.org/2000/svg">
<g clip-path="url(#clip0_147_1287)">
<path d="M29.3151 8.07326C32.7312 6.52381 33.2365 1.46751 28.3773 1.46751H22.7501L20.6705 5.54517H21.6491L19.1617 15.2907H25.686C30.4458 15.3314 32.5864 9.72665 29.3151 8.07326ZM25.686 11.7432H24.0549L24.6665 9.54133H26.216C28.051 9.90823 26.9093 11.8247 25.686 11.7432ZM26.6646 7.05381H25.2783L25.686 5.13734H27.2354C28.7326 5.50436 27.4395 7.13542 26.6646 7.05381Z" fill="#005FAF"/>
<path d="M42.6734 6.67521L44.8097 2.904L41.919 1.39618L41.5419 1.86153C39.9826 1.03606 31.8168 2.17582 31.3055 10.2309C31.6112 16.9882 39.1829 15.7727 39.9256 15.3439L42.0081 11.039C39.9685 12.3824 35.7923 13.0273 35.6156 8.99178C35.982 5.66395 39.911 4.42118 42.6734 6.67521ZM53.3336 1.4675H46.7663L44.6787 5.42309H45.7511L40.8018 15.2907H45.5925L46.576 12.9107H49.5167L49.59 15.2907H54L53.3336 1.4675ZM47.9083 9.70617L49.5166 5.86727L49.5899 9.70617H47.9083Z" fill="#005FAF"/>
<path d="M12.3214 14.6308L12.5765 14.5568L12.2967 14.1701L12.3214 14.6308ZM8.133 14.565L8.08366 14.9106C8.21064 14.8982 8.36697 15.0076 8.42928 14.7624C8.42461 14.5714 8.27916 14.5609 8.133 14.565ZM10.1656 14.5568C10.1444 14.4626 10.0658 14.3933 9.86929 14.4581L9.93512 14.8118C10.0966 14.776 10.1796 14.6805 10.1656 14.5568ZM5.57393 14.2673L5.49536 14.5816C5.62164 14.5868 5.76954 14.6892 5.85338 14.503C5.85899 14.3863 5.86378 14.2701 5.57393 14.2673ZM9.99276 15.0752L10.0504 15.4373C10.1852 15.4407 10.3082 15.3597 10.2726 15.1905C10.2382 15.0277 10.1015 15.0535 9.99276 15.0752Z" fill="#005FAF"/>
<path d="M15.3441 1.65386C10.9868 -0.565902 5.78296 -0.504167 1.63129 1.55705C-0.509548 5.3258 -0.577714 10.5989 1.63129 15.2692C6.20516 17.5838 11.2639 17.4313 15.3763 15.366C17.309 11.4008 17.6282 6.62948 15.3441 1.65386ZM7.98507 12.9074L7.72679 12.9103C7.66283 12.1966 7.49224 11.5968 7.12627 11.1378C5.44809 9.03327 2.0176 10.6177 2.89908 7.04116C3.35741 5.21273 8.58534 4.13436 7.98507 12.9074ZM2.90527 9.37492C3.27171 10.1208 5.56747 10.2429 6.36441 10.8139C7.62857 11.7194 7.44711 12.9106 7.44711 12.9106H7.14896C6.56201 11.1116 4.9147 12.536 3.59523 12.0515C2.76684 11.7569 2.16539 10.4797 2.90527 9.37492ZM7.08804 15.2398L7.21151 14.2606L7.43366 14.2771L7.33486 15.355C7.23525 15.8298 6.52728 15.7663 6.43795 15.3139L6.55312 14.1948L6.81643 14.2361L6.70126 15.174C6.71588 15.4844 7.02724 15.4659 7.08804 15.2398ZM5.90584 15.5072L5.65259 15.4461C5.68229 15.2368 5.93051 14.811 5.43991 14.811L5.30334 15.3675L5.0239 15.3151L5.32077 13.9791C6.04638 14.0581 6.10987 14.26 6.12425 14.4768C6.09561 14.6449 6.05083 14.7623 5.90596 14.7911C6.0755 14.945 5.90795 15.2674 5.90584 15.5072ZM4.29735 14.0108C4.22755 14.1034 4.08782 14.4269 4.0676 14.6847C4.04608 14.9579 4.30857 14.9004 4.37393 14.8685C4.42666 14.8429 4.46583 14.6234 4.46583 14.6234L4.28203 14.5622L4.3433 14.3785L4.75697 14.5163L4.55785 15.2057L4.38937 15.1596L4.40468 15.0524C4.19843 15.1464 3.82089 15.0759 3.77658 14.838C3.73226 14.6468 3.86649 14.0672 4.08291 13.7964C4.29325 13.5331 4.80572 13.7905 4.81823 13.9496C4.83063 14.1082 4.76807 14.2866 4.76807 14.2866L4.57515 14.2502C4.57515 14.2502 4.58696 14.1929 4.6038 14.1027C4.62157 14.007 4.37218 13.9113 4.29735 14.0108ZM8.05908 15.1327L8.00974 15.7253L7.80407 15.7171L7.87808 14.31C8.39172 14.3206 8.68613 14.3917 8.67631 14.7544C8.64568 15.2499 8.2444 15.1385 8.05908 15.1327ZM8.57108 12.9105H8.22698C8.19646 11.692 8.43077 9.46308 7.79051 7.82278C7.3054 6.57932 6.07772 6.01996 5.80564 5.01548C5.3749 3.42558 6.108 1.70531 8.57108 1.57283C10.7064 1.79206 11.3625 3.44055 10.9983 4.97538C10.372 6.50998 9.74568 6.28947 8.96593 7.8181C8.32905 9.45677 8.57155 11.6036 8.57108 12.9105ZM12.3873 15.1657L12.1487 15.248L12.0745 13.8327L12.3543 13.7587L13.0456 14.9271L12.8563 15.0505L12.6258 14.7215L12.3625 14.8202L12.3873 15.1657ZM9.60327 12.9105H9.32803C9.55486 9.78099 13.4875 10.4609 13.8469 9.37492C14.4685 10.4515 14.2451 11.3593 13.596 11.8247C11.9832 12.9815 10.4367 10.9686 9.60327 12.9105ZM11.0626 14.4911L11.186 15.1412C11.2629 15.2909 11.315 15.2632 11.4329 15.2481C11.5695 15.1492 11.541 15.0529 11.5152 14.9272L11.7538 14.8943C11.816 15.3653 11.5921 15.4134 11.4247 15.4456C11.0656 15.4713 10.9952 15.4014 10.8981 14.9355C10.8415 14.5367 10.7437 14.1155 11.0791 14.0386C11.6295 13.9545 11.597 14.2023 11.6468 14.3759L11.4082 14.4172C11.3701 14.268 11.3152 14.2088 11.1942 14.2198C11.084 14.2704 11.0387 14.3524 11.0626 14.4911ZM10.5606 15.1657C10.5721 15.3707 10.5025 15.5068 10.3713 15.5525L9.81174 15.6677L9.58959 14.31C9.7044 14.2913 10.2674 14.085 10.4042 14.4582C10.4716 14.6861 10.4017 14.7678 10.3219 14.8696C10.4733 14.9182 10.5244 15.036 10.5606 15.1657ZM9.12365 8.35232C10.3703 4.84232 13.2228 5.46259 13.8555 7.04127C14.7222 10.209 11.9313 9.34031 10.1436 10.6393C9.46787 11.227 9.11231 11.9011 9.10705 12.9232H8.80071C8.78236 10.8646 8.74903 9.40696 9.12365 8.35232Z" fill="#005FAF"/>
</g>
<defs>
<clipPath id="clip0_147_1287">
<rect width="54" height="16.9344" fill="white"/>
</clipPath>
</defs>
</svg>
