<svg width="54" height="17" viewBox="0 0 54 17" fill="none" xmlns="http://www.w3.org/2000/svg">
<g clip-path="url(#clip0_147_1297)">
<path fill-rule="evenodd" clip-rule="evenodd" d="M0 6.38962L4.55542 12.1363L0 15.9113V6.38962ZM1.83317 15.9113L5.26119 13.0437L7.63039 15.9113H1.83317ZM0 3.31464L1.1884 4.81847L6.07663 10.9264L7.66074 9.66529C7.66074 9.66529 6.34591 8.11722 5.46283 6.38962C3.7365 3.01217 4.95871 0.909084 4.95871 0.909084H0V3.31464ZM6.77323 11.8695L8.38673 10.537C8.38673 10.537 9.92722 12.5649 11.7136 13.0437C14.0547 13.6711 15.0911 12.1366 15.0911 12.1366V15.9113H9.94935L11.1087 14.9088C11.1087 14.9088 10.5037 15.3121 9.02423 14.2874C8.15127 13.6825 6.77355 11.8695 6.77355 11.8695H6.77323ZM6.92178 0.898338C6.92178 0.898338 6.40723 1.59937 6.77323 3.31464C7.16515 5.14781 8.72208 7.08843 8.7186 7.04482C8.7186 7.04482 8.81847 5.1181 9.94935 3.98754C12.3593 1.57756 15.0911 3.01217 15.0911 3.01217V0.9094L6.92178 0.898338Z" fill="#F15A23"/>
<path fill-rule="evenodd" clip-rule="evenodd" d="M15.0911 5.553C15.0911 5.553 13.567 4.24766 12.2417 4.24766C10.5467 4.24766 9.62158 5.71103 9.62158 6.77237C9.62158 8.31855 10.3637 9.17761 11.1087 9.92257C12.1792 10.9931 13.4817 12.1477 15.0911 11.2184V5.553Z" fill="#F15A23"/>
<path fill-rule="evenodd" clip-rule="evenodd" d="M32.4483 1.05574H36.0451C36.0451 1.05574 39.231 5.87981 40.7968 7.87322C42.3626 9.86599 44.0478 12.1363 44.0478 12.1363V2.13604C44.0478 1.70398 42.9138 1.05574 42.9138 1.05574H47.0612C47.0612 1.05574 45.7005 1.61485 45.7005 2.13604V16.6841C45.7005 16.6841 44.3946 15.96 42.9138 14.2394C41.2504 12.3063 35.3321 4.50146 35.3321 4.50146V14.6104C35.3321 15.1281 36.4661 15.9113 36.4661 15.9113H32.4483C32.4483 15.9113 33.5501 15.1218 33.5501 14.6104V2.13604C33.5501 1.6768 32.4483 1.05574 32.4483 1.05574ZM49.3839 1.05574H54C54 1.05574 52.7604 1.64267 52.7604 2.13604V14.6104C52.7604 15.1493 54 15.9113 54 15.9113H49.3839C49.3839 15.9113 50.5382 15.1322 50.5382 14.6104V2.13604C50.5382 1.66194 49.3839 1.05574 49.3839 1.05574ZM18.868 1.05574C18.868 1.05574 20.0647 1.65246 20.0647 2.13604V14.6104C20.0647 15.1408 18.868 15.9113 18.868 15.9113H25.7064C26.1337 15.9113 30.9205 15.1284 30.9205 11.4381C30.9205 7.74774 27.2023 7.40197 27.2023 7.40197C27.2023 7.40197 29.4675 6.77237 29.4675 4.24766C29.4675 1.52572 26.1337 1.05542 25.7064 1.05542H18.868V1.05574ZM22.5006 7.15733V2.5131H25.2787C25.7061 2.5131 27.202 3.01217 27.202 4.86366C27.202 6.38962 25.7061 7.15733 25.2784 7.15733H22.5002H22.5006ZM22.5006 8.37544H25.7061C26.1334 8.37544 28.6549 9.03064 28.6549 11.2184C28.6549 13.4489 26.1334 14.2394 25.7061 14.2394H22.5006V8.37544Z" fill="#005E6A"/>
</g>
<defs>
<clipPath id="clip0_147_1297">
<rect width="54" height="16.9344" fill="white"/>
</clipPath>
</defs>
</svg>
