<svg width="54" height="20" viewBox="0 0 54 20" fill="none" xmlns="http://www.w3.org/2000/svg">
<path fillRule="evenodd" clipRule="evenodd" d="M5.74771 3.10829C3.49129 3.51651 1.61864 4.94808 0.640714 7.01251C0.151786 8.04479 0 8.75208 0 9.99872C0 11.2454 0.151786 11.9527 0.640714 12.9849C1.46143 14.7175 2.89807 16 4.71086 16.6184C8.53593 17.9234 12.6768 15.6854 13.7211 11.7487C13.8845 11.1325 13.9106 10.8922 13.9106 9.99872C13.9106 9.10522 13.8845 8.86494 13.7211 8.24872C12.7866 4.72579 9.28514 2.46843 5.74771 3.10829ZM26.8791 6.58851C26.0249 6.88729 25.5556 7.32808 25.2293 8.13815C25.0761 8.51822 25.0687 8.63879 25.0469 11.088L25.0241 13.6416H25.671H26.318V12.5701V11.4987H28.068H29.818V12.5701V13.6416H30.4966H31.1751L31.1739 11.3737C31.1726 8.88408 31.1205 8.41858 30.7721 7.77843C30.517 7.30972 30.1253 6.96329 29.5411 6.68986C29.1085 6.48736 28.9946 6.46643 28.2109 6.44544C27.461 6.42544 27.2943 6.44329 26.8791 6.58851ZM35.592 6.56015C34.8501 6.80515 34.3947 7.18615 34.0723 7.83186C33.7824 8.41222 33.7466 8.79365 33.7466 11.2941V13.6416H34.4251H35.1037L35.1041 11.3023C35.1044 9.87351 35.134 8.85679 35.1803 8.69008C35.3689 8.01093 36.1237 7.57386 36.9421 7.67008C37.6953 7.75858 38.1531 8.15465 38.3127 8.85586C38.3541 9.03729 38.3867 10.1493 38.3877 11.4094L38.3894 13.6416H39.068H39.7466L39.7451 11.4809C39.7436 9.06315 39.6904 8.51394 39.3966 7.88522C39.1345 7.32415 38.768 6.96322 38.1815 6.68872C37.7504 6.48694 37.6388 6.46665 36.8537 6.44751C36.1671 6.43072 35.9161 6.45315 35.592 6.56015ZM44.1239 6.58994C43.2479 6.90315 42.7276 7.42715 42.4472 8.27836C42.3033 8.71536 42.2902 8.92222 42.2631 11.1952L42.2338 13.6416H42.9188H43.6037V12.5701V11.4987H45.3537H47.1037V12.5701V13.6416H47.7506H48.3976L48.3756 11.0523L48.3537 8.46301L48.1286 7.98794C47.6137 6.90115 46.749 6.42786 45.2823 6.43001C44.7268 6.43086 44.4693 6.46636 44.1239 6.58994ZM16.3894 10.1059V13.6416L17.8359 13.6391C18.7376 13.6375 19.4898 13.5996 19.8334 13.5384C21.1796 13.2983 22.0535 12.5739 22.4661 11.3559C22.5874 10.9979 22.6242 10.7198 22.6268 10.1416C22.6335 8.63165 22.0598 7.55351 20.9521 6.99429C20.207 6.61822 19.8786 6.57015 18.053 6.57015H16.3894V10.1059ZM10.3894 7.54815L10.9251 7.82015L10.944 10.0417L10.9629 12.2634L10.567 12.0637C9.77414 11.6637 9.25129 11.7005 7.4165 12.285C5.616 12.8586 4.68543 12.9126 3.49657 12.5125L2.92514 12.3201L2.90621 10.1174C2.89121 8.36365 2.90579 7.92244 2.97764 7.95251C3.61529 8.21944 4.07864 8.30101 4.77136 8.26844C5.41814 8.23801 5.62657 8.19008 6.69943 7.82501C8.24771 7.29815 8.655 7.20808 9.318 7.24572C9.7615 7.27086 9.94593 7.32293 10.3894 7.54815ZM28.998 7.85658C29.5643 8.13072 29.8169 8.69786 29.8176 9.69644L29.818 10.287L28.0859 10.2679L26.3537 10.2487L26.3546 9.60586C26.356 8.54801 26.7059 7.94565 27.4389 7.73915C27.8861 7.61308 28.6073 7.66744 28.998 7.85658ZM46.2346 7.84979C46.8329 8.15501 47.0443 8.60322 47.0586 9.59686L47.068 10.2487L45.3279 10.2679L43.5879 10.287L43.6142 9.51786C43.6377 8.83115 43.6619 8.71229 43.8397 8.40894C43.9493 8.22201 44.1209 8.01536 44.2212 7.94965C44.7176 7.62443 45.6976 7.57579 46.2346 7.84979ZM19.9649 7.95736C20.4132 8.11829 20.7491 8.41415 20.9964 8.86615C21.1775 9.19736 21.2094 9.34129 21.2341 9.93822C21.2692 10.7867 21.1383 11.2441 20.7351 11.6814C20.275 12.1806 19.8802 12.3106 18.7287 12.3424L17.7466 12.3696V10.0676V7.76579L18.693 7.80322C19.3015 7.82722 19.7556 7.88229 19.9649 7.95736Z" fill="#108EE9"/>
</svg>
