<svg width="55" height="13" viewBox="0 0 55 13" fill="none" xmlns="http://www.w3.org/2000/svg">
  <path d="M10.157 7.77901C9.90956 8.0206 9.76814 8.36827 9.80349 8.7395C9.85653 9.3759 10.4399 9.84141 11.0763 9.84141H12.1959V10.5426C12.1959 11.7624 11.2 12.7582 9.98027 12.7582H3.2156C1.99584 12.7582 1 11.7624 1 10.5426V6.57694C1 5.35718 1.99584 4.36133 3.2156 4.36133H9.98027C11.2 4.36133 12.1959 5.35718 12.1959 6.57694V7.42547H11.0056C10.6756 7.42547 10.3751 7.55509 10.157 7.77901Z" fill="#E7513B" />
  <path d="M1 7.10729V4.41442C1 3.7132 1.43016 3.08856 2.08423 2.84108L6.76293 1.07331C7.49361 0.796356 8.27732 1.33849 8.27732 2.1222V4.36137" stroke="#E7513B" stroke-width="1.5" stroke-linecap="round" stroke-linejoin="round" />
  <path d="M12.8197 8.02655V9.24046C12.8197 9.56455 12.5605 9.82969 12.2305 9.84147H11.0755C10.4391 9.84147 9.85577 9.37596 9.80274 8.73957C9.76738 8.36834 9.90881 8.02067 10.1563 7.77908C10.3743 7.55516 10.6748 7.42554 11.0048 7.42554H12.2305C12.5605 7.43732 12.8197 7.70246 12.8197 8.02655Z" stroke="#E7513B" stroke-width="1.5" stroke-linecap="round" stroke-linejoin="round" />
  <path d="M3.65161 6.8656H7.77641" stroke="white" stroke-width="1.5" stroke-linecap="round" stroke-linejoin="round" />
  <path fill-rule="evenodd" clip-rule="evenodd" d="M37.0176 1.02423C36.7041 1.11441 36.5145 1.31156 36.3965 1.66989C36.3615 1.77653 36.3557 1.9059 36.3451 2.83666C36.3335 3.84469 36.3315 3.88323 36.2921 3.87644C36.2696 3.87258 36.1358 3.82624 35.9948 3.77348C35.4895 3.58447 35.1763 3.52364 34.7083 3.52364C34.3309 3.52364 34.092 3.56015 33.7743 3.66634C33.0069 3.92288 32.2467 4.54582 31.8202 5.26763C31.5171 5.78043 31.3993 6.2701 31.4217 6.92328C31.4355 7.32578 31.4777 7.56673 31.6 7.93999C31.9859 9.11802 33.0052 9.97378 34.2503 10.1651C34.5271 10.2076 35.0497 10.2062 35.3266 10.1622C35.6247 10.1148 35.9375 10.0189 36.2157 9.88964C36.3696 9.81813 36.4611 9.78711 36.4883 9.79721C36.5108 9.80559 36.5814 9.85847 36.645 9.91474C36.9456 10.1806 37.2713 10.2325 37.6187 10.07C37.8916 9.94228 38.0624 9.71342 38.1097 9.41205C38.1416 9.20844 38.1405 1.85349 38.1085 1.68035C38.0587 1.41064 37.8886 1.1794 37.6568 1.06595C37.5527 1.01505 37.5022 1.00506 37.326 1.00059C37.2023 0.997451 37.0775 1.00703 37.0176 1.02423ZM46.8825 1.03734C46.5636 1.10514 46.3239 1.38753 46.2543 1.77742C46.2091 2.03076 46.2095 9.13961 46.2547 9.37595C46.3577 9.91382 46.7527 10.2138 47.2551 10.1355C47.6577 10.0729 47.8941 9.82655 47.9793 9.38105C48.0278 9.12755 48.0273 1.97639 47.9787 1.74622C47.9092 1.41666 47.7255 1.17576 47.4709 1.08046C47.3299 1.0277 47.0309 1.00578 46.8825 1.03734ZM27.0097 3.53729C26.2939 3.62802 25.5932 3.94434 25.0441 4.42463C24.3526 5.0295 24.0001 5.83224 24.0001 6.80211C24.0001 7.99024 24.4485 8.93005 25.3105 9.54844C25.7174 9.84037 26.3369 10.1018 26.8243 10.1873C27.1208 10.2393 27.6442 10.2395 27.9366 10.1878C28.5681 10.0761 29.1402 9.78635 29.573 9.35907C29.8443 9.09119 29.9216 8.93812 29.9203 8.671C29.9196 8.51415 29.9106 8.46816 29.8625 8.37612C29.7944 8.24573 29.6701 8.11666 29.5505 8.0523C29.4783 8.01348 29.4274 8.00548 29.256 8.00605C29.0075 8.00685 28.8806 8.04508 28.451 8.24874C27.8424 8.5372 27.4715 8.59504 27.0143 8.4728C26.7113 8.39178 26.4488 8.22468 26.251 7.98694C26.1588 7.87613 25.9847 7.55916 25.9847 7.50217C25.9847 7.4779 26.2176 7.47491 27.3532 7.48451C28.1059 7.49088 28.9974 7.48782 29.3343 7.47773L29.9469 7.45936L30.1085 7.37945C30.3082 7.28073 30.4576 7.13489 30.5488 6.94958C30.8457 6.34641 30.2951 4.98181 29.4813 4.30407C29.0396 3.93622 28.5727 3.70588 28.0281 3.58704C27.8315 3.54416 27.1992 3.51328 27.0097 3.53729ZM19.4311 3.5591C19.1437 3.60242 18.9427 3.65284 18.6111 3.7648C18.3972 3.83699 18.1895 3.89417 18.1422 3.89391C18.0256 3.89326 17.8791 3.82269 17.7673 3.71331L17.6737 3.62178H17.3854C17.1035 3.62178 17.0938 3.6234 16.9513 3.69347C16.7165 3.80886 16.5554 4.02424 16.4871 4.3138C16.4385 4.51965 16.4385 11.8618 16.4871 12.0677C16.5252 12.2292 16.6037 12.3917 16.6926 12.4929C16.8368 12.6573 17.1242 12.7454 17.4263 12.7181C17.8327 12.6812 18.0564 12.5244 18.1828 12.1877C18.2285 12.0659 18.2303 12.0267 18.2376 10.9768C18.2417 10.3801 18.2481 9.89184 18.2517 9.89184C18.2554 9.89184 18.4879 9.95009 18.7684 10.0213C19.429 10.189 19.6941 10.228 20.0636 10.2123C20.4999 10.1936 20.8965 10.083 21.3443 9.85509C21.6704 9.68911 21.9227 9.50486 22.1899 9.23757C22.6916 8.73588 23.0116 8.11895 23.1302 7.42462C23.1697 7.19343 23.1747 7.09864 23.1646 6.76226C23.1483 6.21512 23.0714 5.88441 22.8535 5.4232C22.4231 4.51217 21.5452 3.83126 20.515 3.60937C20.3549 3.57491 20.2053 3.56205 19.9 3.55653C19.6781 3.55252 19.4671 3.55367 19.4311 3.5591ZM43.9848 3.56702C43.7526 3.61578 43.489 3.82029 43.3697 4.04422C43.2297 4.30686 43.2307 4.29365 43.2151 6.00986C43.2011 7.54789 43.2003 7.57096 43.1527 7.69828C43.0077 8.08657 42.6789 8.35929 42.2879 8.41562C42.1588 8.4342 42.0944 8.43184 41.9488 8.40314C41.5408 8.32278 41.2556 8.07817 41.1163 7.68914L41.0656 7.54738L41.0544 6.00986C41.0442 4.61332 41.0395 4.45732 41.003 4.30876C40.9153 3.95162 40.7667 3.75061 40.5186 3.65347C40.4081 3.61022 40.3485 3.60272 40.106 3.60146C39.8496 3.6001 39.8134 3.60481 39.7277 3.65055C39.5234 3.75957 39.3537 3.99548 39.2857 4.26514C39.2434 4.43281 39.2412 7.73442 39.2832 8.01968C39.3788 8.66888 39.6443 9.18316 40.0613 9.52715C40.1384 9.59075 40.3027 9.70282 40.4263 9.77623C41.3035 10.2968 42.2298 10.3761 43.1743 10.0114C43.2823 9.96961 43.3925 9.93546 43.4192 9.93546C43.4458 9.93546 43.5209 9.97587 43.586 10.0252C43.8902 10.2559 44.1804 10.2898 44.5139 10.1337C44.7919 10.0037 44.9607 9.76365 45.0039 9.43689C45.0179 9.3305 45.0236 8.37187 45.0194 6.78407L45.013 4.29786L44.9638 4.1561C44.8464 3.81765 44.5556 3.58931 44.2035 3.55908C44.133 3.553 44.0345 3.55659 43.9848 3.56702ZM53.82 3.60819C53.5643 3.70309 53.3781 3.88696 53.2635 4.15789L53.2135 4.27605L53.2004 5.88991C53.1863 7.63004 53.1874 7.61434 53.0675 7.84942C52.8704 8.23563 52.3006 8.49483 51.8552 8.40085C51.4614 8.31778 51.1658 8.03435 51.0506 7.62954C51.0199 7.52171 51.0125 7.30001 50.9985 6.07528C50.9892 5.26414 50.9717 4.56445 50.9579 4.45626C50.9001 4.00147 50.7096 3.73857 50.3592 3.62981C50.1495 3.56471 49.8648 3.57882 49.6868 3.66309C49.5269 3.73881 49.3606 3.91867 49.2995 4.08182C49.1549 4.46825 49.1121 6.21802 49.2115 7.67985C49.2432 8.14597 49.331 8.49734 49.4999 8.83411C49.8333 9.49873 50.4888 9.97526 51.3157 10.154C51.807 10.2601 52.6336 10.2287 52.9095 10.0934L53.0281 10.0352L53.0766 10.0837C53.1462 10.1532 53.137 10.2697 53.0489 10.435C53.0093 10.5092 52.9383 10.6138 52.8911 10.6675C52.6626 10.9271 51.8198 11.1562 51.3298 11.0919C51.0917 11.0606 50.9873 11.0337 50.5181 10.8822C49.9185 10.6887 49.6476 10.6942 49.4134 10.9047C49.252 11.0499 49.1797 11.2227 49.1802 11.4621C49.1806 11.6116 49.1906 11.6679 49.2319 11.7528C49.4188 12.1375 50.1175 12.5497 50.8537 12.7095C51.0479 12.7517 51.1417 12.7578 51.5993 12.7582C52.0452 12.7587 52.1646 12.7515 52.4062 12.7096C52.7659 12.6473 53.2094 12.531 53.4203 12.4437C54.1996 12.1213 54.6896 11.5122 54.8777 10.6321C54.9939 10.0884 55.0082 9.62547 54.9968 6.76226C54.9881 4.56687 54.9855 4.44177 54.9454 4.27694C54.8723 3.97679 54.7082 3.76592 54.4492 3.63919C54.2859 3.55932 53.9909 3.54477 53.82 3.60819ZM35.1444 5.34942C35.587 5.45395 35.9776 5.76209 36.1799 6.16631C36.3077 6.42156 36.3294 6.54125 36.3172 6.92526C36.3087 7.19691 36.2988 7.26692 36.2477 7.41653C36.1615 7.66873 36.0741 7.80927 35.8874 7.99597C35.595 8.28843 35.307 8.40875 34.8609 8.42491C34.5175 8.43736 34.3316 8.40098 34.0649 8.26926C33.6163 8.04768 33.3291 7.64227 33.2341 7.09679C33.1901 6.84433 33.2042 6.63651 33.281 6.40682C33.4127 6.0128 33.7388 5.64499 34.1303 5.44889C34.4249 5.30131 34.7894 5.26556 35.1444 5.34942ZM20.0893 5.33533C20.5962 5.40475 20.986 5.67465 21.1973 6.10276C21.3238 6.35904 21.3659 6.55739 21.3649 6.89312C21.3631 7.54937 21.0791 8.01614 20.5216 8.27931C20.2983 8.38469 20.0715 8.43064 19.7747 8.43064C19.4913 8.43064 19.3439 8.39677 19.0931 8.2741C18.942 8.20023 18.8712 8.14676 18.7104 7.98535C18.3866 7.66031 18.2594 7.34375 18.2584 6.8604C18.2574 6.40761 18.3871 6.08248 18.6891 5.78014C19.0516 5.41724 19.5443 5.26072 20.0893 5.33533ZM27.7839 5.38651C28.1063 5.47635 28.3948 5.6795 28.5914 5.95501C28.6451 6.0302 28.689 6.09783 28.689 6.10531C28.689 6.11279 28.0805 6.1189 27.3368 6.1189C26.5932 6.1189 25.9847 6.11295 25.9847 6.10568C25.9847 6.08285 26.1183 5.91656 26.2337 5.79567C26.4369 5.5829 26.6889 5.42954 26.9385 5.36669C27.1068 5.32432 27.6024 5.33594 27.7839 5.38651Z" fill="#1D1819" />
</svg>