<svg width="54" height="13" viewBox="0 0 54 13" fill="none" xmlns="http://www.w3.org/2000/svg">
  <path d="M6.22895 12.4579C9.6691 12.4579 12.4579 9.6691 12.4579 6.22895C12.4579 2.78879 9.6691 0 6.22895 0C2.78879 0 0 2.78879 0 6.22895C0 9.6691 2.78879 12.4579 6.22895 12.4579Z" fill="#02AFD9" />
  <path fill-rule="evenodd" clip-rule="evenodd" d="M2.62897 7.62632C2.70003 8.64474 3.3395 9.42632 4.52371 9.49737C5.66055 9.54474 6.77371 9.54474 7.91055 9.49737C8.95266 9.42632 9.73424 8.64474 9.80529 7.62632C9.85266 7.10526 9.87634 6.58421 9.85266 6.06316C9.59213 4.64211 8.40792 4.59474 8.31318 4.59474H8.2895H4.31055C4.16845 4.59474 4.05003 4.47632 4.05003 4.33421C4.05003 4.19211 4.16845 4.09737 4.31055 4.09737H8.31318C8.26581 3.15 7.22371 2.96053 6.72634 2.93684H6.46582C5.82634 2.91316 5.16318 2.93684 4.52371 2.98421C3.31582 3.07895 2.70003 3.81316 2.62897 4.85526C2.55792 5.77895 2.55792 6.70263 2.62897 7.62632ZM8.62108 7.08158V7.43684C8.62108 7.55526 8.52634 7.65 8.38424 7.65C8.26581 7.65 8.17108 7.55526 8.17108 7.43684V7.08158C8.05266 7.01053 7.9816 6.91579 7.9816 6.77368C7.9816 6.58421 8.17108 6.41842 8.38424 6.41842C8.59739 6.41842 8.78687 6.58421 8.78687 6.77368C8.78687 6.91579 8.71582 7.01053 8.62108 7.08158Z" fill="#FEFEFE" />
  <path fill-rule="evenodd" clip-rule="evenodd" d="M43.8631 5.66054V6.79738C43.8631 6.79738 43.4604 7.55527 42.1341 7.72106C40.8078 7.91054 40.8078 7.08159 40.9025 6.86843C40.9973 6.65527 41.3052 6.37106 42.4183 6.18159C43.5788 5.99212 43.8631 5.66054 43.8631 5.66054ZM45.4262 4.57106V8.97633H43.9815V8.2658C43.5078 8.69212 42.8446 9.09475 41.921 9.14212C39.0315 9.21317 37.9183 6.0158 41.4236 5.06843C42.2525 4.83159 43.0578 4.90264 43.4841 4.68948C43.7683 4.52369 43.8394 4.26317 43.6499 4.02633C42.9394 3.07896 41.2341 3.4579 40.7604 4.76054L39.3157 4.40527C39.6946 2.96054 40.8552 2.32106 42.2525 2.17896C43.7446 2.03685 45.4262 2.84212 45.4262 4.57106ZM18.071 3.78948C17.0288 3.78948 16.1762 4.64212 16.1762 5.7079C16.1762 6.75001 17.0288 7.60264 18.071 7.60264C19.1131 7.60264 19.9657 6.75001 19.9657 5.7079C19.9657 4.64212 19.1131 3.78948 18.071 3.78948ZM21.8131 2.39212H19.9657V3.10264C19.3973 2.60527 18.6394 2.29738 17.7867 2.29738C15.9394 2.29738 14.4236 3.83685 14.4236 5.73159C14.4236 7.65001 15.9394 9.18948 17.7867 9.18948C18.6394 9.18948 19.3973 8.88159 19.9657 8.38422V9.02369C19.9657 10.0421 19.2315 10.8474 18.2131 10.8474C17.3604 10.8474 16.6736 10.6816 16.1052 10.0184L14.921 11.0842C15.892 12.1263 16.8631 12.4579 18.2367 12.4579C20.2262 12.4579 21.8131 11.1079 21.8131 8.83422V7.83948V2.39212ZM53.9999 2.27369H52.0578L50.1157 6.51317L47.8894 2.27369H45.9236L49.1446 8.31317L47.4394 11.8184H49.4052L53.9999 2.27369ZM34.8867 3.78948C35.9525 3.78948 36.8052 4.64212 36.8052 5.7079C36.8052 6.75001 35.9525 7.60264 34.8867 7.60264C33.8446 7.60264 32.992 6.75001 32.992 5.7079C32.992 4.64212 33.8446 3.78948 34.8867 3.78948ZM31.1683 2.39212H32.992V3.10264C33.5841 2.60527 34.342 2.29738 35.171 2.29738C37.0183 2.29738 38.5341 3.83685 38.5341 5.73159C38.5341 7.65001 37.0183 9.18948 35.171 9.18948C34.342 9.18948 33.5841 8.88159 32.992 8.38422V11.8184H31.1683V2.39212ZM26.2894 3.74212C27.4499 3.74212 28.3736 4.64212 28.3736 5.73159C28.3736 6.84475 27.4499 7.74475 26.2894 7.74475C25.1525 7.74475 24.2288 6.84475 24.2288 5.73159C24.2288 4.64212 25.1525 3.74212 26.2894 3.74212ZM26.2894 2.15527C28.3262 2.15527 29.9841 3.7658 29.9841 5.73159C29.9841 7.72106 28.3262 9.33159 26.2894 9.33159C24.2525 9.33159 22.5946 7.72106 22.5946 5.73159C22.5946 3.7658 24.2525 2.15527 26.2894 2.15527Z" fill="#1D1819" />
</svg>
  