<svg width="54" height="13" viewBox="0 0 54 13" fill="none" xmlns="http://www.w3.org/2000/svg">
<path d="M9.11966 10.9051C10.5939 10.0537 11.5159 8.5968 11.5159 7.01311C11.5159 3.48214 7.95068 2.21958 7.95068 2.21958C7.29511 1.84629 6.48614 1.64635 5.59125 1.64635C5.52528 1.64635 5.40614 1.64839 5.33915 1.64839C6.24938 0.988732 7.43165 0.581687 8.62722 0.581687C11.4136 0.581687 13.522 3.13748 13.522 5.52964C13.522 8.31248 11.4837 10.4725 9.11966 10.9051V10.9051ZM7.32733 10.8949C5.51557 10.5517 4.02699 9.22629 3.38778 7.65589C4.0229 8.25828 4.92648 8.66992 6.08063 8.66992C7.92256 8.66992 9.67398 7.30407 9.67398 5.28316C9.67398 4.28805 9.30989 3.63811 9.30989 3.63811C10.08 4.39237 10.5663 5.45038 10.5663 6.73953C10.5663 8.5518 9.16261 10.2424 7.32733 10.8949V10.8949ZM5.70733 11.1823C3.54426 11.1823 1.26 9.16032 1.26 6.64441C1.26 5.41458 1.65835 4.18782 2.66983 3.36299C2.48983 3.72504 2.36659 4.15816 2.31699 4.67873C2.29295 4.86691 2.27915 5.06123 2.27915 5.26527C2.27915 7.98265 3.82142 10.2357 6.23608 11.148C6.0617 11.1705 5.88477 11.1823 5.70733 11.1823ZM5.91597 2.38373C7.48841 2.38373 8.70443 3.87794 8.70443 5.21004C8.70443 7.01311 7.56562 8.21941 5.97375 8.21941C4.54653 8.21941 3.27119 6.94305 3.27119 5.12669C3.27119 3.62788 4.42585 2.38373 5.91597 2.38373V2.38373ZM8.15778 0.00180054C6.68915 0.00180054 4.60227 0.61288 3.37193 2.10095C1.42364 2.92424 0 4.75902 0 6.76816C0 9.88288 2.74602 11.7437 6.05506 11.7437C6.59966 11.7437 7.12023 11.6271 7.60398 11.5059C7.95989 11.5612 8.33011 11.5903 8.71312 11.5903C11.837 11.5903 14.5877 9.14498 14.5877 5.94794C14.5877 2.65271 11.8739 0.00180054 8.15778 0.00180054V0.00180054Z" fill="#00A4E4"/>
<path d="M19.7453 9.13425C19.7453 10.1365 19.0861 10.7026 17.6814 10.745V12.271C19.2758 12.271 21.2967 11.4354 21.2967 9.13425V1.65607H19.7453V9.13425Z" fill="#00A4E4"/>
<path d="M24.1983 4.73345C24.3016 3.80431 24.7112 2.98357 25.7349 2.98357C26.7602 2.98357 27.1693 3.80431 27.2736 4.73345H24.1983V4.73345ZM28.8967 4.87612C28.8967 3.69027 28.2227 1.5134 25.7349 1.5134C23.3786 1.5134 22.5747 3.42232 22.5747 5.39823C22.5747 7.37669 23.3949 9.28459 26.1011 9.28459C26.8344 9.28459 27.7686 9.11584 28.8379 8.37999L28.0483 7.19414C27.3754 7.60476 26.7295 7.81595 26.1011 7.81595C24.9009 7.81595 24.3445 7.02487 24.2131 6.20516H27.4766C28.4421 6.20516 28.8967 5.83851 28.8967 4.87612Z" fill="#00A4E4"/>
<path d="M33.1133 1.5134C31.1804 1.5134 30.1893 3.05465 30.1893 3.05465V9.20073H31.7388V3.54862C31.7388 3.54862 32.2215 2.98357 33.1133 2.98357C34.0946 2.98357 34.6351 3.76033 34.6351 4.45272V9.20073H36.1881V4.45272C36.1881 3.0255 35.1475 1.5134 33.1133 1.5134V1.5134Z" fill="#00A4E4"/>
<path d="M37.9078 9.20071H39.4583V1.59827H37.9078V9.20071Z" fill="#00A4E4"/>
<path d="M51.1905 4.59385H51.2044C50.6751 4.4522 49.9914 4.20112 49.9914 3.67749C49.9914 3.2955 50.4 2.98357 51.1757 2.98357C51.9515 2.98357 52.829 3.32311 53.1654 3.47755L53.6645 2.13419C53.1501 1.88005 52.1105 1.5134 51.1757 1.5134C49.8303 1.5134 48.4241 2.17664 48.4241 3.67749C48.4241 5.0597 49.683 5.75362 50.9267 6.0497C51.6017 6.19033 52.448 6.46033 52.448 6.99726C52.448 7.56283 51.7633 7.81749 51.0878 7.81749C50.4301 7.81749 49.523 7.40584 48.8352 7.05198L48.2349 8.45209C48.8925 8.77834 49.86 9.25595 51.0878 9.28459C52.5058 9.28459 54 8.63567 54 6.99726C54 5.41203 52.3611 4.87561 51.1905 4.59385V4.59385Z" fill="#00A4E4"/>
<path d="M45.6704 6.34577C45.6704 7.0356 45.1309 7.80929 44.1563 7.81543C43.1857 7.80929 42.6442 7.0356 42.6442 6.34577V1.59827H41.0942V6.34577C41.0942 7.76991 42.1282 9.27486 44.1496 9.28457H44.1675C46.189 9.27486 47.2209 7.76991 47.2209 6.34577V1.59827H45.6704V6.34577V6.34577Z" fill="#00A4E4"/>
</svg>
