<svg width="54" height="17" viewBox="0 0 54 17" fill="none" xmlns="http://www.w3.org/2000/svg">
<g clip-path="url(#clip0_147_1306)">
<path d="M0.0558505 11.6527C0.0558505 10.8714 0.0421981 10.2173 0 9.63211H1.47756L1.54768 10.6362H1.58864C1.92312 10.1062 2.53623 9.47821 3.6793 9.47821C4.57167 9.47821 5.26794 9.98086 5.56084 10.733H5.58939C5.82644 10.3569 6.10445 10.0777 6.42466 9.88344C6.80134 9.61784 7.2345 9.47821 7.79114 9.47821C8.92056 9.47821 10.0624 10.2446 10.0624 12.4203V16.4192H8.38998V12.6698C8.38998 11.5416 7.99965 10.8714 7.1774 10.8714C6.59222 10.8714 6.15968 11.2909 5.9791 11.7786C5.92885 11.9648 5.90073 12.1562 5.89533 12.3489V16.4198H4.22292V12.4879C4.22292 11.5422 3.84686 10.872 3.05192 10.872C2.41212 10.872 1.98021 11.3746 1.82507 11.8475C1.75619 12.0151 1.72764 12.2112 1.72764 12.4048V16.4198H0.0558505V11.6527ZM16.5789 14.7896C16.5789 15.4021 16.6068 16.0009 16.6757 16.4198H15.1286L15.0176 15.6677H14.9754C14.5571 16.1976 13.8459 16.5725 12.9697 16.5725C11.6032 16.5725 10.8368 15.5839 10.8368 14.5519C10.8368 12.8361 12.3547 11.9735 14.8649 11.9871V11.8761C14.8649 11.4293 14.6831 10.6908 13.4842 10.6908C12.8146 10.6908 12.1183 10.9005 11.6585 11.1922L11.324 10.0771C11.826 9.76987 12.7041 9.47759 13.7764 9.47759C15.9515 9.47759 16.5795 10.859 16.5795 12.3347L16.5789 14.7896ZM14.9059 13.1035C13.6927 13.075 12.5366 13.34 12.5366 14.3713C12.5366 15.0403 12.9697 15.3475 13.5127 15.3475C14.1947 15.3475 14.6974 14.9 14.8506 14.4129C14.8882 14.2911 14.907 14.1643 14.9065 14.0368V13.1035H14.9059ZM17.7629 11.6527C17.7629 10.8714 17.7487 10.2173 17.7083 9.63211H19.2119L19.2951 10.6511H19.3373C19.6296 10.1205 20.3687 9.47821 21.4975 9.47821C22.6827 9.47821 23.9083 10.2446 23.9083 12.3924V16.4192H22.1943V12.5872C22.1943 11.6117 21.8313 10.8707 20.898 10.8707C20.216 10.8707 19.7407 11.3591 19.5601 11.8754C19.5042 12.0281 19.4906 12.2378 19.4906 12.4315V16.4186H17.7623L17.7629 11.6527ZM31.3414 6.90536V14.5103C31.3414 15.2072 31.37 15.9612 31.3973 16.4198H29.8651L29.795 15.3475H29.7664C29.3631 16.0996 28.5396 16.5731 27.551 16.5731C25.9338 16.5731 24.6524 15.1936 24.6524 13.1041C24.6375 10.8317 26.0586 9.47883 27.6907 9.47883C28.624 9.47883 29.2929 9.86916 29.5995 10.3731H29.6287V6.90599H31.342V6.90536H31.3414ZM29.628 12.4612C29.628 12.3229 29.6144 12.1553 29.5858 12.0151C29.4326 11.3473 28.8902 10.8031 28.1089 10.8031C27.008 10.8031 26.3937 11.7792 26.3937 13.0471C26.3937 14.2863 27.0074 15.193 28.0953 15.193C28.7909 15.193 29.4046 14.7182 29.5716 13.9798C29.6138 13.8271 29.6287 13.6589 29.6287 13.4783V12.4612H29.628ZM32.554 16.4198V9.63211H34.2835V16.4198H32.554ZM35.4948 11.8208C35.4948 10.9012 35.4818 10.2452 35.4402 9.63273H36.9314L36.986 10.9278H37.0425C37.377 9.96659 38.1707 9.63273 38.8974 9.63273C39.0643 9.63273 39.1611 9.60418 39.3001 9.63273V11.1388C39.1356 11.1024 38.9678 11.0837 38.7993 11.083C37.9752 11.083 37.4179 11.6129 37.2653 12.3781C37.2315 12.5532 37.213 12.731 37.2101 12.9093V16.4204H35.4948V11.8208ZM40.0957 16.4198V9.63211H41.8227V16.4198H40.0957Z" fill="#0D2B5B"/>
<path d="M52.5808 2.45347C51.7251 1.47732 50.8153 1.91916 50.0924 2.27847C49.7883 2.42864 47.5934 3.67287 47.5934 3.67287C46.3908 4.1687 45.4543 3.62757 45.087 3.17208C45.0518 3.12888 45.0201 3.08303 44.992 3.03493L44.9064 2.88662C44.7616 2.63628 44.6008 2.39562 44.4248 2.16615C44.318 2.02706 44.2024 1.89502 44.0785 1.77085C43.2557 0.939919 41.9407 0.358454 39.7427 1.41465C38.702 2.01783 35.3119 3.9546 35.3119 3.9546C34.0379 4.47898 33.0636 3.84042 32.7471 3.3719C32.7329 3.35435 32.7204 3.33544 32.7099 3.31542L32.6683 3.24468L32.4536 2.89344C32.3567 2.73958 32.2527 2.59028 32.1421 2.44602C32.0342 2.30782 31.9184 2.17603 31.7952 2.05134C30.9779 1.22538 29.6697 0.645153 27.491 1.68149C26.1735 2.43361 23.1092 4.18545 23.1092 4.18545L23.1079 4.18669L20.8652 5.46815L22.0257 6.89296C22.5141 7.35838 23.4319 8.12167 24.8517 7.47814C24.8517 7.47814 28.7706 5.20876 28.7861 5.20193C32.1365 3.36321 33.7896 5.12001 34.5207 6.29101C34.5461 6.32763 34.5666 6.36734 34.5896 6.40271L34.5908 6.40458C34.6001 6.41885 34.6057 6.43188 34.6138 6.44553L34.6963 6.58081C35.0525 7.1207 35.6141 7.46946 36.2837 7.45332C36.6529 7.44588 36.9036 7.32549 37.2685 7.12256L41.0601 4.9233L41.0682 4.91957C44.4608 3.05851 46.1419 4.93012 46.8599 6.10112C46.9157 6.20227 46.979 6.29908 47.0442 6.38906C47.3998 6.87124 47.89 7.1871 48.5131 7.17159C48.9245 7.16352 49.3856 6.91654 49.4545 6.87124L54.0001 4.24751C54.0013 4.24875 53.5371 3.54689 52.5808 2.45347Z" fill="#FDD213"/>
</g>
<defs>
<clipPath id="clip0_147_1306">
<rect width="54" height="16.9344" fill="white"/>
</clipPath>
</defs>
</svg>
