<svg width="46" height="20" viewBox="0 0 46 20" fill="none" xmlns="http://www.w3.org/2000/svg">
  <path d="M14.0359 0.00424767L0.594066 1.82396C0.594066 1.82396 0 1.89634 0 2.61998C0 3.34383 0 15.5818 0 15.5818C0 15.5818 0.0780653 17.0981 1.78886 17.0981C3.49964 17.0981 17.0229 17.0981 17.0229 17.0981C17.0229 17.0981 18.3808 16.7674 18.3808 15.3888C18.3808 14.0103 18.3808 4.69133 18.3808 4.69133C18.3808 4.69133 18.4078 3.17486 16.6156 3.17486C14.8234 3.17486 1.92463 3.17486 1.92463 3.17486C1.92463 3.17486 1.35437 3.07838 1.20842 2.46844C1.16426 2.22723 1.25935 2.20298 1.5105 2.20298C1.76166 2.20298 14.9999 2.20298 14.9999 2.20298V0.728062C14.9999 0.728062 14.9524 -0.0645733 14.0359 0.00424767Z" fill="#EE3929" />
  <path d="M9.46308 14.8987C8.34813 14.8987 7.52749 14.4377 6.31711 13.2213C6.10126 13.0044 6.09949 12.6511 6.31314 12.4318C6.5268 12.2127 6.87485 12.2109 7.09079 12.4279C8.36514 13.7081 8.95719 14.0262 9.97511 13.7457C10.5668 13.5829 11.0978 12.8167 11.1289 11.9386C11.1529 11.2552 10.6787 10.8099 9.71893 10.615C7.99622 10.2651 6.97967 9.59607 6.69746 8.62635C6.46998 7.8452 6.7681 6.97361 7.51516 6.23497L7.54608 6.2067C9.15244 4.84338 11.0172 5.85913 11.7788 6.58685C11.9999 6.79826 12.0105 7.15146 11.8022 7.37599C11.5945 7.60048 11.2474 7.61114 11.0262 7.40103C10.9616 7.34011 9.51878 6.00898 8.26739 7.05009C7.83956 7.47936 7.64709 7.94916 7.75209 8.3099C7.90516 8.83552 8.68021 9.26532 9.93467 9.52013C12.0674 9.95323 12.2489 11.3836 12.228 11.9786C12.1822 13.274 11.1148 14.7251 10.113 14.8537C9.88353 14.8832 9.66832 14.8987 9.46308 14.8987Z" fill="white" />
  <path d="M24.0347 3.09879C23.8183 2.96411 23.5602 2.84376 23.253 2.75866C22.6876 2.59576 22.2758 2.38302 22.0803 2.11384C21.9058 1.87991 21.9058 1.5753 22.1151 1.18542C22.2339 0.951495 22.52 0.802664 22.89 0.774355C23.2738 0.746047 23.7415 0.838093 24.2302 1.09321C24.3489 1.15711 24.5025 1.10745 24.5652 0.979804C24.628 0.85945 24.5793 0.7035 24.4535 0.639764C23.8812 0.342101 23.3157 0.228697 22.8481 0.264125C22.3036 0.306673 21.8779 0.547718 21.6685 0.937426C21.3545 1.52563 21.3754 2.00739 21.6685 2.41133C21.9407 2.77273 22.4364 3.04926 23.1134 3.24057C23.3785 3.31849 23.6019 3.41776 23.7764 3.52402C24.0417 3.68699 24.2161 3.87836 24.2999 4.08389C24.3838 4.27525 24.3908 4.4878 24.3348 4.69333C24.307 4.79252 24.258 4.89178 24.2023 4.99103C24.2023 5.00513 24.1883 5.01931 24.1744 5.04056C23.9719 5.34536 23.6438 5.50123 23.2459 5.50123C22.8064 5.50123 22.2687 5.32411 21.6964 4.96977C21.6128 4.92012 21.536 4.87053 21.4662 4.82093C21.3475 4.74298 21.1939 4.77841 21.1171 4.89178C21.0403 5.01222 21.0752 5.16815 21.1869 5.2461C21.2777 5.30987 21.3613 5.35952 21.4243 5.4162C22.0803 5.82011 22.7015 6.01849 23.2319 6.01849C23.8044 6.01849 24.2791 5.79184 24.5793 5.33828C24.5861 5.32411 24.6001 5.2957 24.621 5.26742C24.7048 5.13274 24.7676 4.98388 24.8095 4.84212C24.9003 4.53032 24.8863 4.19724 24.7537 3.89253C24.628 3.59488 24.3908 3.31849 24.0347 3.09879Z" fill="#EE3929" />
  <path d="M27.8804 2.53898C27.6222 2.46812 27.322 2.47524 27.0149 2.56728C26.7236 2.65458 26.4293 2.81816 26.1494 3.06475V0.505002C26.1494 0.37041 26.0377 0.264124 25.8982 0.264124C25.7584 0.264124 25.6467 0.37041 25.6467 0.505002V5.77053C25.6467 5.90514 25.7584 6.01148 25.8982 6.01148C26.0377 6.01148 26.1494 5.90514 26.1494 5.77053V3.79982C26.1539 3.79518 26.1591 3.79128 26.1633 3.78624C26.4775 3.3965 26.8264 3.15554 27.1614 3.04926C27.3777 2.98547 27.5803 2.97835 27.7547 3.02802C27.9224 3.07753 28.0549 3.16971 28.1526 3.30432C28.2504 3.44603 28.3062 3.63739 28.3062 3.87836V5.76345C28.3062 5.90521 28.4179 6.01849 28.5575 6.01849C28.6972 6.01849 28.8087 5.90521 28.8087 5.76345V3.87836C28.8087 3.53111 28.7181 3.24057 28.5575 3.01378C28.39 2.77273 28.1526 2.61695 27.8804 2.53898Z" fill="#EE3929" />
  <path d="M32.1525 5.14691C31.9223 5.37369 31.6151 5.5154 31.273 5.5154C30.9312 5.5154 30.617 5.37369 30.3936 5.14691C30.1703 4.92012 30.0307 4.60115 30.0307 4.25399C30.0307 3.90675 30.1703 3.58786 30.3936 3.36101C30.6241 3.13422 30.9312 2.99259 31.273 2.99259C31.6151 2.99259 31.9293 3.13422 32.1525 3.36101C32.3759 3.58786 32.5157 3.90675 32.5157 4.25399C32.5157 4.60115 32.3759 4.92012 32.1525 5.14691ZM31.273 2.48948C30.7985 2.48948 30.3588 2.68781 30.0447 3.00666C29.7305 3.32558 29.5352 3.76492 29.5352 4.25399C29.5352 4.74298 29.7305 5.18233 30.0447 5.50123C30.3588 5.82011 30.7917 6.01849 31.273 6.01849C31.7547 6.01849 32.1876 5.82011 32.5016 5.50123C32.8157 5.18233 33.0112 4.74298 33.0112 4.25399C33.0112 3.76492 32.8157 3.32558 32.5016 3.00666C32.1876 2.68781 31.7547 2.48948 31.273 2.48948Z" fill="#EE3929" />
  <path d="M36.3822 5.14687C36.152 5.37364 35.8448 5.51535 35.5027 5.51535C35.1609 5.51535 34.8467 5.37364 34.6233 5.14687C34.3999 4.92008 34.2603 4.60111 34.2603 4.25395C34.2603 3.9067 34.3999 3.58782 34.6233 3.36096C34.8537 3.13417 35.1609 2.99254 35.5027 2.99254C35.8448 2.99254 36.1588 3.13417 36.3822 3.36096C36.6056 3.58782 36.7453 3.9067 36.7453 4.25395C36.7453 4.60111 36.6056 4.92008 36.3822 5.14687ZM35.5097 2.48943C35.0282 2.48943 34.5954 2.68776 34.2814 3.00661C34.2603 3.02085 34.2465 3.04204 34.2254 3.06338V2.74438C34.2254 2.60266 34.1137 2.48943 33.9742 2.48943C33.8346 2.48943 33.7229 2.60266 33.7229 2.74438V7.76184C33.7229 7.90355 33.8346 8.01691 33.9742 8.01691C34.1137 8.01691 34.2254 7.90355 34.2254 7.76184V5.44443C34.2465 5.4586 34.2603 5.47986 34.2814 5.50118C34.5954 5.82007 35.0282 6.01845 35.5097 6.01845C35.9913 6.01845 36.4241 5.82007 36.7383 5.50118C37.0524 5.18228 37.2479 4.74294 37.2479 4.25395C37.2479 3.76487 37.0524 3.32553 36.7383 3.00661C36.4241 2.68776 35.9913 2.48943 35.5097 2.48943Z" fill="#EE3929" />
  <path d="M38.5247 3.86419C38.5875 3.65158 38.7062 3.46735 38.8528 3.3185C39.0553 3.12012 39.3204 2.99955 39.6066 2.99955C39.8927 2.99955 40.158 3.12012 40.3604 3.3185C40.507 3.46735 40.6187 3.65158 40.6955 3.86419H38.5247ZM40.7095 2.95717C40.4232 2.65934 40.0323 2.48949 39.6066 2.48949C39.1808 2.48949 38.783 2.65239 38.5038 2.95717C37.9035 3.61615 37.9105 4.32484 38.1477 5.04057C38.2526 5.36656 38.4758 5.60049 38.7341 5.77054C38.9923 5.94065 39.3066 6.02566 39.6623 6.0185C40.0115 6.01149 40.4023 5.92641 40.8212 5.74928C40.9467 5.6926 41.0095 5.54375 40.9538 5.41621C40.898 5.28869 40.7514 5.22485 40.6257 5.28153C40.2627 5.43747 39.9346 5.51541 39.6553 5.51541C39.3972 5.51541 39.1738 5.45866 38.9994 5.34537C38.8319 5.23193 38.6992 5.06891 38.6085 4.84921C38.5596 4.70758 38.5177 4.55163 38.4968 4.38153H40.8072C40.9329 4.38153 41.3446 4.40987 41.1282 3.69414C41.0446 3.43902 40.9467 3.19806 40.7095 2.95717Z" fill="#EE3929" />
  <path d="M42.3362 3.86419C42.3991 3.65158 42.5177 3.46735 42.6643 3.3185C42.8668 3.12012 43.1321 2.99955 43.4182 2.99955C43.7042 2.99955 43.9695 3.12012 44.1719 3.3185C44.3185 3.46735 44.4302 3.65158 44.507 3.86419H42.3362ZM44.9399 3.69414C44.8561 3.43902 44.7584 3.19806 44.521 2.95717C44.2348 2.65934 43.8438 2.48949 43.4182 2.48949C42.9925 2.48949 42.5945 2.65239 42.3153 2.95717C41.7149 3.61615 41.7219 4.32484 41.9594 5.04057C42.064 5.36656 42.2874 5.60049 42.5457 5.77054C42.804 5.94065 43.118 6.02566 43.474 6.0185C43.8229 6.01149 44.2138 5.92641 44.6327 5.74928C44.7584 5.6926 44.8212 5.54375 44.7652 5.41621C44.7095 5.28869 44.5629 5.22485 44.4372 5.28153C44.0742 5.43747 43.7461 5.51541 43.4672 5.51541C43.2089 5.51541 42.9855 5.45866 42.8108 5.34537C42.6434 5.23193 42.5108 5.06891 42.42 4.84921C42.3711 4.70758 42.3293 4.55163 42.3083 4.38153H44.6187C44.7444 4.38153 45.1563 4.40987 44.9399 3.69414Z" fill="#EE3929" />
  <path d="M25.3265 12.5981H22.7181V8.75126H25.072C25.1129 8.75126 25.1527 8.75331 25.1934 8.75796C25.5514 8.79847 27.1172 9.07361 27.1172 10.778C27.1172 12.5981 25.3265 12.5981 25.3265 12.5981ZM24.866 7.28293H21.2517V17.0981H22.7181V14.1687H25.0234C25.7961 14.1687 26.5633 13.9797 27.2281 13.5797C28.0186 13.1043 28.8092 12.2669 28.8092 10.8189C28.8092 9.46157 28.1143 8.59977 27.3762 8.0672C26.6464 7.54071 25.7614 7.28293 24.866 7.28293Z" fill="#EE3929" />
  <path d="M32.4437 15.747C31.2433 15.747 30.2681 14.7587 30.2681 13.5378C30.2681 12.3188 31.2433 11.3307 32.4437 11.3307C33.6453 11.3307 34.618 12.3175 34.6193 13.5352V13.5405C34.618 14.7602 33.6453 15.747 32.4437 15.747ZM34.6193 10.1227V10.8133C34.0256 10.3219 33.2686 10.028 32.4437 10.028C30.5374 10.028 28.9849 11.6024 28.9849 13.5378C28.9849 15.4752 30.5374 17.0496 32.4437 17.0496C33.2686 17.0496 34.0256 16.7556 34.6193 16.2645V17.05H36.0859V10.1227H34.6193Z" fill="#EE3929" />
  <path d="M36.7451 10.0279H38.7064L41.0077 14.4996L43.2277 10.0279H45.0011L39.7246 20H37.9978L40.0098 16.2986L36.7451 10.0279Z" fill="#EE3929" />
</svg>